<?xml version="1.0" encoding="utf-8"?>
<!-- Generator: Adobe Illustrator 24.2.1, SVG Export Plug-In . SVG Version: 6.00 Build 0)  -->
<svg version="1.1" id="Layer_1" xmlns="http://www.w3.org/2000/svg" xmlns:xlink="http://www.w3.org/1999/xlink" x="0px" y="0px"
	 viewBox="0 0 254 80" style="enable-background:new 0 0 254 80;" xml:space="preserve">
<style type="text/css">
	.st0{fill:#0C5E9C;}
	.st1{fill:#FFFFFF;}
	.st2{fill:#2E3192;}
	.st3{fill:#E88325;}
	.st4{clip-path:url(#SVGID_2_);}
	.st5{fill:#F4BB19;}
	.st6{clip-path:url(#SVGID_4_);}
</style>
<g>
	<path class="st0" d="M249.7,26.1h-81c-1.9,0-3.4-1.5-3.4-3.4c0,0,0,0,0,0V7.9c0-1.9,1.5-3.4,3.4-3.4l0,0h81c1.9,0,3.4,1.5,3.4,3.4
		v14.7C253.2,24.5,251.6,26,249.7,26.1z"/>
	<path class="st1" d="M171.5,22.8V12.3h1.6v1.2c0.2-0.4,0.5-0.8,0.9-1.1c0.5-0.2,1-0.4,1.5-0.4c0.9,0,1.8,0.4,2.3,1.1
		c0.6,0.8,0.9,1.8,0.9,2.8c0.1,1-0.2,2-0.9,2.8c-1,1-2.5,1.4-3.8,0.8c-0.4-0.2-0.8-0.5-1-0.9v4.3h-1.7L171.5,22.8z M173.1,15.8
		c0,0.6,0.2,1.3,0.6,1.8c0.4,0.4,0.9,0.7,1.5,0.6c0.6,0,1.1-0.2,1.4-0.6c0.4-0.5,0.5-1.1,0.5-1.8c0-0.6-0.2-1.3-0.6-1.8
		c-0.4-0.4-0.9-0.7-1.5-0.6c-0.6,0-1.1,0.2-1.4,0.6C173.2,14.6,173.1,15.2,173.1,15.8z"/>
	<path class="st1" d="M182.2,7.7v5.8c0.2-0.4,0.5-0.8,0.9-1.1c0.5-0.2,1-0.4,1.5-0.4c0.9,0,1.8,0.4,2.3,1.1c0.6,0.8,0.9,1.8,0.9,2.8
		c0.1,1-0.2,2-0.9,2.8c-1,1-2.5,1.4-3.8,0.8c-0.4-0.2-0.8-0.5-1-0.9v0.9h-1.6V7.7H182.2z M182.2,15.8c0,0.6,0.2,1.3,0.6,1.8
		c0.4,0.4,0.9,0.7,1.5,0.6c0.6,0,1.1-0.2,1.4-0.6c0.4-0.5,0.5-1.1,0.5-1.8c0-0.6-0.2-1.3-0.6-1.8c-0.4-0.4-0.9-0.7-1.5-0.6
		c-0.6,0-1.1,0.2-1.4,0.6C182.3,14.6,182.2,15.2,182.2,15.8z"/>
	<path class="st1" d="M190.9,19.5H189l2.7-3.8l-2.3-3.3h1.8l1,1.5c0.1,0.1,0.2,0.3,0.3,0.4l0.2,0.4c0.1-0.1,0.1-0.2,0.2-0.4
		c0.1-0.2,0.2-0.3,0.3-0.5l1-1.5h1.8l-2.3,3.3l2.7,3.8h-1.8l-1.4-1.9l-0.1-0.1c-0.2-0.3-0.4-0.6-0.5-0.9c-0.1,0.2-0.2,0.4-0.3,0.6
		s-0.2,0.3-0.3,0.4L190.9,19.5z"/>
	<path class="st1" d="M197,18.6c0-0.5,0.5-1,1-1c0.5,0,1,0.5,1,1c0,0.5-0.5,1-1,1c-0.3,0-0.5-0.1-0.7-0.3
		C197.1,19.1,197,18.9,197,18.6z"/>
	<path class="st1" d="M205.7,14.3c-0.2-0.3-0.5-0.5-0.9-0.6c-0.3-0.1-0.7-0.2-1.1-0.2c-0.6,0-1.2,0.2-1.6,0.6
		c-0.4,0.5-0.7,1.1-0.6,1.7c0,0.7,0.2,1.3,0.6,1.8c0.5,0.4,1.1,0.7,1.7,0.6c0.4,0,0.7-0.1,1.1-0.2c0.3-0.2,0.6-0.4,0.9-0.7v1.9
		c-0.3,0.2-0.6,0.3-1,0.4c-0.4,0.1-0.8,0.1-1.1,0.1c-2,0.1-3.7-1.4-3.8-3.5c0-0.1,0-0.3,0-0.4c0-1,0.4-2.1,1.1-2.8
		c0.8-0.7,1.8-1.1,2.9-1.1c0.4,0,0.7,0.1,1.1,0.1c0.3,0.1,0.6,0.2,0.9,0.4L205.7,14.3L205.7,14.3z"/>
	<path class="st1" d="M206.3,15.8c0-0.5,0.1-1,0.3-1.5c0.2-0.5,0.5-0.9,0.9-1.3c0.4-0.4,0.8-0.7,1.3-0.9c0.5-0.2,1-0.3,1.5-0.3
		c0.5,0,1.1,0.1,1.6,0.3c1,0.4,1.7,1.2,2.1,2.1c0.2,0.5,0.3,1,0.3,1.5c0,1-0.4,2-1.1,2.7c-0.4,0.3-0.8,0.6-1.3,0.9c-1,0.4-2,0.4-3,0
		c-1-0.4-1.7-1.2-2.1-2.1C206.4,16.8,206.3,16.3,206.3,15.8z M212.5,15.8c0-0.6-0.2-1.2-0.6-1.7c-0.8-0.9-2.1-1-2.9-0.2
		c-0.1,0.1-0.1,0.1-0.2,0.2c-0.4,0.5-0.7,1.1-0.6,1.7c0,0.6,0.2,1.2,0.6,1.7c0.8,0.9,2.1,1,2.9,0.2c0.1-0.1,0.1-0.1,0.2-0.2
		C212.3,17.1,212.5,16.5,212.5,15.8L212.5,15.8z"/>
	<path class="st1" d="M216.5,19.5h-1.6v-7.2h1.6v1.2c0.3-0.4,0.7-0.8,1.1-1.1c0.5-0.2,1-0.4,1.5-0.4c0.5,0,1,0.1,1.4,0.4
		c0.4,0.3,0.7,0.6,0.9,1.1c0.3-0.4,0.7-0.8,1.2-1.1c0.5-0.2,1-0.4,1.5-0.4c0.4,0,0.8,0.1,1.2,0.3c0.4,0.2,0.7,0.4,0.9,0.8
		c0.1,0.2,0.2,0.4,0.2,0.6c0.1,0.3,0.1,0.6,0.1,0.9v4.9h-1.6v-3.7c0.1-0.7,0-1.3-0.3-1.9c-0.3-0.3-0.7-0.5-1.1-0.4
		c-0.5-0.1-1.1,0.2-1.4,0.6c-0.3,0.7-0.5,1.4-0.4,2.1v3.3H220v-3.7c0-0.6-0.1-1.3-0.4-1.8c-0.3-0.4-0.7-0.6-1.1-0.5
		c-0.3,0-0.6,0.1-0.9,0.2c-0.3,0.1-0.5,0.4-0.6,0.6c-0.1,0.2-0.2,0.4-0.2,0.6c-0.1,0.4-0.1,0.9-0.1,1.4v3.1L216.5,19.5z"/>
	<path class="st1" d="M227.5,18.6c0-0.5,0.5-1,1-1c0.5,0,1,0.5,1,1c0,0.5-0.5,1-1,1c-0.3,0-0.5-0.1-0.7-0.3
		C227.6,19.1,227.5,18.9,227.5,18.6z"/>
	<path class="st1" d="M232.5,7.7v5.8c0.2-0.4,0.5-0.8,0.9-1.1c0.5-0.2,1-0.4,1.5-0.4c0.9,0,1.8,0.4,2.3,1.1c0.6,0.8,0.9,1.8,0.9,2.8
		c0.1,1-0.2,2-0.9,2.8c-1,1-2.5,1.4-3.8,0.8c-0.4-0.2-0.8-0.5-1-0.9v0.9h-1.6V7.7H232.5z M232.4,15.8c0,0.6,0.2,1.3,0.6,1.8
		c0.4,0.4,0.9,0.7,1.5,0.6c0.6,0,1.1-0.2,1.4-0.6c0.4-0.5,0.5-1.1,0.5-1.8c0-0.6-0.2-1.3-0.6-1.8c-0.4-0.4-0.9-0.7-1.5-0.6
		c-0.6,0-1.1,0.2-1.4,0.6C232.6,14.6,232.4,15.2,232.4,15.8z"/>
	<path class="st1" d="M245.3,7.7h1.6v11.7h-1.6v-0.9c-0.3,0.4-0.6,0.7-1,0.9c-0.4,0.2-0.9,0.3-1.4,0.3c-0.9,0-1.8-0.4-2.4-1.1
		c-0.6-0.8-0.9-1.8-0.9-2.8c-0.1-1,0.3-2,0.9-2.8c0.6-0.7,1.4-1.1,2.3-1.1c0.5,0,1,0.1,1.5,0.4c0.4,0.2,0.8,0.6,0.9,1.1L245.3,7.7
		L245.3,7.7z M245.4,15.8c0.1-0.6-0.1-1.2-0.5-1.7c-0.4-0.4-0.9-0.7-1.4-0.6c-0.6,0-1.1,0.2-1.5,0.6c-0.4,0.5-0.6,1.1-0.6,1.8
		c-0.1,0.6,0.1,1.3,0.5,1.8c0.7,0.8,1.9,0.9,2.7,0.2c0.1-0.1,0.1-0.1,0.2-0.2C245.2,17.2,245.4,16.5,245.4,15.8z"/>
	<path class="st2" d="M92.2,52.1l-3.3-7.4H77.6l-3.3,7.4h-4.9l13.9-29.8l13.9,29.8H92.2z M79.3,40.9h8l-2.9-6.5
		c-0.1-0.4-0.4-0.9-0.5-1.4c-0.1-0.5-0.4-1.1-0.6-1.8c-0.1,0.6-0.4,1.2-0.5,1.8c-0.1,0.5-0.3,1-0.6,1.5L79.3,40.9z"/>
	<path class="st2" d="M99.5,52.1V21.7h4.3V52L99.5,52.1L99.5,52.1z"/>
	<path class="st2" d="M109.6,60.8V33.5h4.3v3.1c0.5-1.1,1.3-2.1,2.3-2.7c1.2-0.7,2.5-1,3.9-0.9c2.3-0.1,4.5,0.9,6,2.7
		c1.6,1.8,2.3,4.2,2.3,7.2c0,3.1-0.8,5.5-2.3,7.4c-1.5,1.8-3.8,2.8-6.2,2.7c-1.2,0-2.4-0.3-3.5-0.8c-1.1-0.6-2-1.4-2.6-2.4v11.1
		L109.6,60.8L109.6,60.8z M113.7,42.7c-0.1,1.7,0.4,3.3,1.4,4.6c0.9,1.1,2.3,1.8,3.8,1.7c1.4,0.1,2.8-0.5,3.7-1.6
		c1-1.3,1.4-2.9,1.4-4.5c0-1.9-0.4-3.5-1.4-4.5c-0.9-1.1-2.3-1.7-3.8-1.6c-1.4-0.1-2.8,0.5-3.8,1.6
		C114.1,39.6,113.6,41.1,113.7,42.7L113.7,42.7z"/>
	<path class="st2" d="M132.7,52.1V21.7h4v14.8c0.7-1.2,1.8-2.1,3-2.8c1.3-0.6,2.7-0.9,4.2-0.9c1.2,0,2.4,0.2,3.6,0.6
		c0.9,0.4,1.7,1.1,2.3,1.9c0.4,0.5,0.6,1.1,0.7,1.8c0.2,1.2,0.2,2.4,0.2,3.6V52h-4.3v-9.5c0-2.4-0.3-4.1-0.9-4.8
		c-0.6-0.8-1.6-1.2-3.1-1.2c-0.9,0-1.8,0.2-2.6,0.6c-0.8,0.3-1.4,0.9-1.8,1.6c-0.3,0.5-0.5,1.1-0.6,1.7c-0.2,1.1-0.2,2.2-0.2,3.3
		v8.5L132.7,52.1L132.7,52.1z"/>
	<path class="st2" d="M173.5,52.1h-4.3v-2.4c-0.7,1-1.6,1.8-2.6,2.4c-1.1,0.6-2.3,0.8-3.5,0.8c-2.4,0.1-4.7-0.9-6.2-2.7
		c-1.5-1.8-2.3-4.3-2.3-7.4c-0.1-2.6,0.7-5.1,2.3-7.2c1.5-1.8,3.7-2.8,6-2.7c1.4,0,2.7,0.3,3.9,0.9c1,0.6,1.9,1.6,2.3,2.7v-3.1h4.3
		L173.5,52.1z M169.3,42.7c0.1-1.6-0.4-3.2-1.4-4.5c-1.9-2.1-5.2-2.2-7.3-0.2c-0.1,0.1-0.2,0.2-0.2,0.2c-0.9,1.1-1.4,2.6-1.4,4.5
		c0,1.9,0.4,3.5,1.4,4.5c1.8,2,5,2.2,7,0.4c0.2-0.1,0.3-0.3,0.4-0.4C168.9,45.9,169.4,44.3,169.3,42.7z"/>
	<path class="st3" d="M191.2,39.9v12.9h-4.3V24.1h7c1.5,0,3.1,0.1,4.6,0.4c0.9,0.2,1.8,0.6,2.6,1.1c0.9,0.7,1.7,1.6,2.1,2.7
		c0.5,1.2,0.8,2.4,0.8,3.7c0,1.3-0.3,2.6-0.8,3.8c-0.4,1.1-1.2,2-2.1,2.7c-0.8,0.5-1.6,0.9-2.6,1.1c-1.5,0.3-3.1,0.4-4.6,0.4
		L191.2,39.9L191.2,39.9z M191.5,36.1h1.2c2.6,0,4.3-0.3,5.2-0.9c0.9-0.6,1.3-1.6,1.3-3s-0.4-2.6-1.4-3.2s-2.6-0.9-5-0.9h-1.2
		L191.5,36.1L191.5,36.1z"/>
	<path class="st3" d="M207.7,52.7V24.1h7.2c1.5,0,3,0.1,4.5,0.4c0.9,0.2,1.7,0.5,2.5,1.1c0.9,0.7,1.6,1.5,2.1,2.6
		c0.5,1.1,0.7,2.3,0.7,3.5c0,1.4-0.3,2.7-1.1,3.8c-0.8,1-1.8,1.8-3.1,2.1c1.6,0.2,3,1,3.9,2.3c1,1.4,1.5,3.1,1.4,4.8
		c0,1.1-0.2,2.2-0.6,3.3c-0.4,1-1,1.9-1.7,2.6c-0.8,0.8-1.8,1.4-2.9,1.7c-1.9,0.4-3.9,0.6-5.8,0.5L207.7,52.7L207.7,52.7z
		 M212.3,36.2h1.8c2.2,0,3.8-0.3,4.7-0.9c1-0.7,1.5-1.9,1.4-3.1c0-1.6-0.4-2.6-1.3-3.3S216.4,28,214,28h-1.8L212.3,36.2L212.3,36.2z
		 M212.3,48.8h1.6c1.2,0,2.4,0,3.6-0.2c0.7-0.1,1.3-0.3,1.9-0.7c0.6-0.4,1-0.9,1.4-1.5c0.7-1.4,0.7-3.1-0.1-4.5
		c-0.4-0.7-0.9-1.2-1.6-1.6c-0.5-0.2-1-0.4-1.5-0.5c-0.8-0.1-1.5-0.1-2.3-0.1h-3.1C212.3,39.6,212.3,48.8,212.3,48.8z"/>
	<path class="st3" d="M226.9,52.7l9.3-15l-8.2-13.6h4.9l4.1,7c0.2,0.4,0.6,1.1,1.2,2.3l0.3,0.6c0.2-0.4,0.4-0.9,0.7-1.3
		c0.3-0.5,0.6-1,0.9-1.5l4.3-7h4.8l-8.4,13.6l9,15.1h-5.1l-4.8-8.1c0,0-0.1-0.1-0.1-0.1c-0.5-1-1-1.9-1.4-2.8
		c-0.2,0.4-0.5,0.9-0.7,1.4s-0.6,1-0.9,1.4l-5,8.2L226.9,52.7L226.9,52.7z"/>
	<path class="st0" d="M30,73.4L2.8,45.9c-2.8-2.8-2.8-7.3,0-10.2L30.9,7.3c2.7-2.8,7.2-2.9,10-0.1c0,0,0.1,0.1,0.1,0.1l27.2,27.5
		c2.8,2.8,2.8,7.3,0,10.2L40.1,73.4c-2.7,2.8-7.2,2.9-10,0.1C30.1,73.5,30.1,73.5,30,73.4z"/>
	<g>
		<defs>
			<path id="SVGID_1_" d="M30,73.4L2.8,45.9c-2.8-2.8-2.8-7.3,0-10.2L30.9,7.3c2.7-2.8,7.2-2.9,10-0.1c0,0,0.1,0.1,0.1,0.1
				l27.2,27.5c2.8,2.8,2.8,7.3,0,10.2L40.1,73.4c-2.7,2.8-7.2,2.9-10,0.1C30.1,73.5,30.1,73.5,30,73.4z"/>
		</defs>
		<clipPath id="SVGID_2_">
			<use xlink:href="#SVGID_1_"  style="overflow:visible;"/>
		</clipPath>
		<g class="st4">
			<rect x="5.6" y="59.3" class="st5" width="58.7" height="23.7"/>
		</g>
	</g>
	<g>
		<defs>
			<path id="SVGID_3_" d="M30,73.4L2.8,45.9c-2.8-2.8-2.8-7.3,0-10.2L30.9,7.3c2.7-2.8,7.2-2.9,10-0.1c0,0,0.1,0.1,0.1,0.1
				l27.2,27.5c2.8,2.8,2.8,7.3,0,10.2L40.1,73.4c-2.7,2.8-7.2,2.9-10,0.1C30.1,73.5,30.1,73.5,30,73.4z"/>
		</defs>
		<clipPath id="SVGID_4_">
			<use xlink:href="#SVGID_3_"  style="overflow:visible;"/>
		</clipPath>
		<g class="st6">
			<rect x="6.6" y="-2.3" class="st5" width="58.7" height="23.7"/>
		</g>
	</g>
	<path class="st1" d="M28,55.4l3.9-4c1.1-1.1,1.1-2.9,0-4l-0.6-0.6l-7.9,8l0.6,0.6C25.1,56.5,26.8,56.6,28,55.4
		C28,55.5,28,55.5,28,55.4z"/>
	<path class="st1" d="M30.1,42.8L38,35c0.8-0.8,1.9-0.8,2.8-0.1l7.8-7.9c-4-3.4-9.9-3.2-13.6,0.5L22.6,39.8
		c-3.7,3.7-3.9,9.7-0.4,13.6l7.8-7.9C29.3,44.7,29.4,43.5,30.1,42.8z"/>
	<path class="st1" d="M42.7,36.7c1.1,1.1,2.9,1.1,4,0l3.9-4c1.1-1.1,1.1-2.9,0-4L50,28.1L42.1,36L42.7,36.7z"/>
	<polygon class="st0" points="69.6,62.5 69.6,63.5 70.7,63.5 70.7,69.6 70.6,69.6 70.6,69.6 69.6,69.6 69.6,70.5 73.2,70.5 
		73.2,69.6 72,69.6 72,63.5 72.2,63.5 72.2,63.5 73.2,63.5 73.2,62.5 	"/>
	<path class="st0" d="M79.3,67.2c0.1-0.1,0.3-0.2,0.4-0.4c0.2-0.2,0.4-0.5,0.4-0.8c0.1-0.3,0.2-0.7,0.1-1.1c0-0.4-0.1-0.8-0.2-1.1
		c-0.1-0.3-0.3-0.6-0.6-0.8c-0.2-0.2-0.5-0.3-0.8-0.4c-0.3-0.1-0.7-0.1-1.1-0.1H75v8h1.3v-2.8h0.1v-0.1h1.3c0.2,0,0.5,0,0.7-0.1
		c0.1,0,0.1-0.1,0.3-0.1c0.1,0,0.1,0,0.1-0.1C79,67.4,79.1,67.3,79.3,67.2z M78.6,66.2c-0.1,0.1-0.2,0.2-0.4,0.2
		c-0.1,0.1-0.1,0.1-0.2,0.1c-0.1,0.1-0.2,0.1-0.3,0.1c-0.1,0-0.3,0.1-0.5,0.1h-0.9v-3.1h0.1v-0.1h1.3c0.2,0,0.4,0.1,0.6,0.1
		c0.2,0.1,0.4,0.2,0.5,0.4c0.1,0.2,0.2,0.5,0.2,0.8c0,0.2,0,0.5-0.1,0.7C78.8,65.9,78.7,66,78.6,66.2z"/>
	<path class="st0" d="M89.5,63c-0.2-0.2-0.5-0.3-0.8-0.4c-0.3-0.1-0.7-0.1-1.1-0.1h-2.8v8h1.4v-2.8h1.3c0.2,0,0.5,0,0.7-0.1
		c0.2-0.1,0.4-0.1,0.6-0.2c0.2-0.1,0.3-0.2,0.5-0.3c0.1-0.1,0.3-0.3,0.4-0.4c0.2-0.2,0.4-0.5,0.4-0.8c0.1-0.3,0.2-0.7,0.1-1.1
		c0-0.4-0.1-0.8-0.2-1.1C90,63.5,89.8,63.2,89.5,63z M88.4,65.6c-0.1,0.2-0.2,0.3-0.3,0.4c-0.1,0.1-0.2,0.2-0.3,0.2
		c-0.1,0.1-0.2,0.1-0.4,0.1c-0.1,0.1-0.3,0.1-0.4,0.1h-0.6v-2.6h1c0.2,0,0.4,0.1,0.6,0.1c0.2,0.1,0.3,0.2,0.4,0.4
		c0.1,0.2,0.1,0.4,0.1,0.6C88.5,65.2,88.5,65.4,88.4,65.6z"/>
	<path class="st0" d="M97.1,69.2c0.1-0.3,0.2-0.7,0.2-1c0-0.4-0.1-0.9-0.4-1.2c-0.3-0.3-0.6-0.5-1-0.6l-0.2-0.1v-0.4l0.1-0.1
		c0.3-0.1,0.5-0.4,0.6-0.6c0.2-0.3,0.3-0.6,0.3-1c0-0.3-0.1-0.6-0.2-0.9c-0.1-0.2-0.3-0.4-0.5-0.6c-0.2-0.1-0.5-0.2-0.7-0.3
		c-0.4-0.1-0.9-0.1-1.3-0.1h-2.3v8h2.8c0.4,0,0.8-0.1,1.2-0.1c0.3-0.1,0.6-0.2,0.8-0.4C96.8,69.6,97,69.5,97.1,69.2z M93,63.6h0.1
		v-0.1h1.2c0.2,0,0.4,0.1,0.6,0.1c0.2,0.1,0.4,0.2,0.4,0.4c0.1,0.2,0.1,0.3,0.1,0.5c0,0.2-0.1,0.4-0.1,0.6c-0.1,0.2-0.2,0.4-0.4,0.4
		c-0.1,0.1-0.2,0.1-0.3,0.1c-0.1,0.1-0.2,0.1-0.4,0.1h-1.2L93,63.6L93,63.6z M95.8,68.8c-0.1,0.2-0.3,0.4-0.5,0.5
		c-0.1,0.1-0.2,0.1-0.4,0.1c-0.2,0.1-0.3,0.1-0.5,0.1H93v-2.6h0.1v-0.1h1.5c0.2,0,0.4,0.1,0.6,0.1c0.2,0.1,0.4,0.2,0.6,0.4
		c0.2,0.2,0.2,0.5,0.2,0.8C95.9,68.4,95.8,68.6,95.8,68.8z"/>
	<polygon class="st0" points="104.6,62.5 103.1,62.5 101.5,65.3 101.5,65.2 101.4,65.4 99.8,62.5 98.3,62.5 100.6,66.4 98.2,70.5 
		99.7,70.5 101.3,67.6 101.4,67.7 101.5,67.5 103.1,70.5 104.6,70.5 102.2,66.4 	"/>
	<path class="st0" d="M114.5,69.1c0.1-0.3,0.2-0.7,0.2-1c0-0.4-0.1-0.9-0.4-1.2c-0.3-0.3-0.6-0.5-1-0.6l-0.2-0.1v-0.4l0.1-0.1
		c0.3-0.1,0.5-0.4,0.6-0.6c0.2-0.3,0.3-0.6,0.3-1c0-0.3-0.1-0.6-0.2-0.9c-0.1-0.2-0.3-0.4-0.5-0.6c-0.2-0.1-0.5-0.2-0.8-0.3
		c-0.4-0.1-0.9-0.1-1.3-0.1h-2.3v8h2.8c0.4,0,0.8-0.1,1.2-0.1c0.3-0.1,0.6-0.2,0.8-0.4C114.2,69.6,114.4,69.3,114.5,69.1z
		 M110.4,63.4h0.1v-0.1h1.2c0.2,0,0.4,0.1,0.6,0.1c0.2,0.1,0.4,0.2,0.4,0.4c0.1,0.2,0.1,0.3,0.1,0.5c0,0.2-0.1,0.4-0.1,0.6
		c-0.1,0.2-0.2,0.4-0.4,0.4c-0.1,0.1-0.2,0.1-0.3,0.1c-0.1,0.1-0.2,0.1-0.4,0.1h-1.2L110.4,63.4L110.4,63.4z M113.2,68.6
		c-0.1,0.2-0.3,0.4-0.5,0.5c-0.1,0.1-0.2,0.1-0.4,0.1c-0.2,0.1-0.3,0.1-0.5,0.1h-1.4v-2.6h1.6c0.2,0,0.4,0.1,0.6,0.1
		c0.2,0.1,0.4,0.2,0.6,0.4c0.2,0.2,0.2,0.5,0.2,0.8C113.3,68.2,113.3,68.4,113.2,68.6z"/>
	<path class="st0" d="M119.8,64.5v4.4l-0.1,0.1c-0.2,0.1-0.4,0.2-0.6,0.3H119c-0.4,0.2-0.8,0.2-1.2,0c-0.2-0.1-0.3-0.2-0.4-0.4
		c-0.1-0.2-0.1-0.4-0.1-0.6v-3.8h-1.2v3.9c-0.1,0.6,0.1,1.2,0.4,1.6c0.3,0.3,0.7,0.5,1.1,0.5c0.1,0,0.3,0,0.4-0.1
		c0.1,0,0.1-0.1,0.2-0.1c0.3-0.2,0.6-0.4,0.9-0.6l0.4-0.4v0.1l0.1-0.1v1.1h1.1v-5.9h-1.1V64.5z"/>
	<path class="st0" d="M126.7,69.4c0.1-0.2,0.2-0.5,0.1-0.8c0-0.4-0.1-0.7-0.3-1c-0.2-0.3-0.5-0.5-0.9-0.6c-0.2-0.1-0.4-0.1-0.6-0.1
		c-0.2-0.1-0.4-0.1-0.6-0.1c-0.3-0.1-0.5-0.2-0.7-0.3c-0.3-0.3-0.3-0.8,0-1.1c0.1-0.1,0.1-0.1,0.2-0.1c0.1-0.1,0.2-0.1,0.4-0.1
		c0.4-0.1,0.9-0.1,1.3,0c0.2,0.1,0.4,0.1,0.6,0.2c0.1,0.1,0.2,0.2,0.4,0.2v-0.9c-0.2-0.1-0.4-0.1-0.7-0.2c-0.7-0.1-1.4-0.1-2.1,0
		c-0.3,0.1-0.5,0.2-0.7,0.4c-0.2,0.1-0.4,0.3-0.4,0.6c-0.1,0.2-0.1,0.5-0.1,0.7c0,0.4,0.1,0.8,0.3,1.1c0.2,0.3,0.6,0.5,0.9,0.6
		c0.1,0.1,0.4,0.1,0.6,0.1c0.2,0.1,0.4,0.1,0.6,0.1c0.2,0,0.5,0.1,0.6,0.3c0.1,0.2,0.2,0.4,0.2,0.6c0,0.3-0.2,0.5-0.4,0.6
		c-0.1,0-0.1,0-0.1,0.1l0,0c-0.5,0.2-1,0.2-1.6,0.1c-0.2-0.1-0.4-0.2-0.6-0.3l-0.4-0.2v1c0.2,0.1,0.5,0.2,0.8,0.3
		c0.7,0.2,1.5,0.2,2.3,0c0.3-0.1,0.5-0.2,0.7-0.4C126.5,69.9,126.6,69.6,126.7,69.4z"/>
	<rect x="128.2" y="62" class="st0" width="1.3" height="1"/>
	<rect x="128.3" y="64.5" class="st0" width="1.1" height="5.9"/>
	<path class="st0" d="M135.7,64.8c-0.3-0.3-0.7-0.5-1.1-0.5c-0.1,0-0.3,0-0.4,0.1c-0.1,0-0.2,0.1-0.3,0.1c-0.3,0.2-0.6,0.4-0.9,0.6
		l-0.4,0.4v-0.1l-0.1,0.1v-1.1h-1.1v5.9h1.1v-4.5l0.1-0.1c0.2-0.1,0.4-0.3,0.6-0.4h0.1c0.4-0.1,0.8-0.1,1.1,0
		c0.2,0.1,0.3,0.2,0.4,0.4c0.1,0.2,0.1,0.4,0.1,0.6v3.7h1.2v-3.9C136.2,65.8,136,65.3,135.7,64.8z"/>
	<path class="st0" d="M142.7,70.1v-1.1l-0.4,0.2c-0.1,0.1-0.2,0.1-0.4,0.1s-0.3,0.1-0.4,0.1c-0.5,0.1-1,0.1-1.4,0
		c-0.2-0.1-0.4-0.2-0.6-0.3c-0.2-0.2-0.4-0.3-0.5-0.6c-0.1-0.3-0.2-0.6-0.2-0.9v-0.3h0.1v-0.1h3.9v-0.4c0.1-0.8-0.2-1.5-0.6-2.1
		c-0.5-0.5-1.2-0.8-1.8-0.7c-0.4,0-0.8,0.1-1.1,0.2c-0.3,0.1-0.6,0.4-0.9,0.6c-0.5,0.7-0.8,1.5-0.8,2.3c-0.1,0.8,0.2,1.7,0.8,2.3
		c0.7,0.5,1.5,0.8,2.3,0.8c0.2,0,0.5,0,0.7-0.1c0.2,0,0.4-0.1,0.6-0.1c0.1,0,0.1-0.1,0.2-0.1h0.1L142.7,70.1z M138.8,66.6
		c0-0.4,0.1-0.8,0.4-1.1c0.2-0.2,0.4-0.3,0.6-0.4c0.2-0.1,0.4-0.1,0.6-0.1c0.4,0,0.8,0.1,1,0.4c0.2,0.3,0.3,0.7,0.4,1.1v0.3h-0.1
		v0.1h-2.8L138.8,66.6z"/>
	<path class="st0" d="M148,69.4c0.1-0.2,0.2-0.5,0.1-0.8c0-0.4-0.1-0.7-0.3-1c-0.2-0.3-0.5-0.5-0.9-0.6c-0.2-0.1-0.4-0.1-0.6-0.1
		c-0.2-0.1-0.4-0.1-0.6-0.1c-0.3-0.1-0.5-0.2-0.7-0.3c-0.3-0.3-0.3-0.8,0-1.1c0.1-0.1,0.1-0.1,0.2-0.1c0.1-0.1,0.2-0.1,0.4-0.1
		c0.4-0.1,0.9-0.1,1.3,0c0.2,0.1,0.4,0.1,0.6,0.2c0.1,0.1,0.2,0.1,0.4,0.2v-0.9c-0.2-0.1-0.4-0.1-0.7-0.2c-0.7-0.1-1.4-0.1-2.1,0
		c-0.3,0.1-0.5,0.2-0.7,0.4c-0.2,0.2-0.4,0.3-0.5,0.6c-0.1,0.2-0.1,0.5-0.1,0.7c0,0.4,0.1,0.8,0.3,1.1c0.2,0.3,0.6,0.5,0.9,0.6
		c0.1,0.1,0.4,0.1,0.6,0.1s0.4,0.1,0.6,0.1c0.2,0,0.5,0.1,0.6,0.3c0.1,0.2,0.2,0.4,0.2,0.6c0,0.3-0.2,0.5-0.4,0.6
		c-0.1,0-0.1,0-0.1,0.1l0,0c-0.5,0.2-1,0.2-1.6,0.1c-0.2-0.1-0.4-0.2-0.6-0.3l-0.4-0.2v1c0.2,0.1,0.5,0.2,0.8,0.3
		c0.7,0.2,1.5,0.2,2.3,0c0.3-0.1,0.5-0.2,0.7-0.4C147.7,69.8,147.9,69.6,148,69.4z"/>
	<path class="st0" d="M149.9,70.4c0.7,0.2,1.5,0.2,2.3,0c0.3-0.1,0.5-0.2,0.7-0.4c0.2-0.2,0.4-0.3,0.5-0.6c0.1-0.2,0.2-0.5,0.1-0.8
		c0-0.4-0.1-0.7-0.3-1c-0.2-0.3-0.5-0.5-0.9-0.6c-0.2-0.1-0.4-0.1-0.6-0.1c-0.2-0.1-0.4-0.1-0.6-0.1c-0.3-0.1-0.5-0.2-0.7-0.3
		c-0.1-0.2-0.2-0.4-0.2-0.6c0-0.3,0.2-0.5,0.4-0.6c0.1-0.1,0.2-0.1,0.4-0.1c0.4-0.1,0.9-0.1,1.3,0c0.2,0.1,0.4,0.1,0.6,0.2
		c0.1,0.1,0.2,0.2,0.4,0.2v-0.9c-0.2-0.1-0.4-0.1-0.7-0.2c-0.7-0.1-1.4-0.1-2.1,0c-0.3,0.1-0.5,0.2-0.7,0.4
		c-0.2,0.1-0.4,0.3-0.4,0.6c-0.1,0.2-0.1,0.5-0.1,0.7c0,0.4,0.1,0.8,0.3,1.1c0.2,0.3,0.6,0.5,0.9,0.6c0.1,0.1,0.4,0.1,0.6,0.1
		c0.2,0.1,0.4,0.1,0.6,0.1c0.2,0,0.5,0.1,0.6,0.3c0.1,0.2,0.2,0.4,0.2,0.6c0,0.3-0.2,0.5-0.4,0.6c-0.1,0-0.1,0-0.1,0.1l0,0
		c-0.5,0.2-1,0.2-1.6,0.1c-0.2-0.1-0.4-0.2-0.6-0.3l-0.4-0.2v1C149.5,70.2,149.7,70.3,149.9,70.4z"/>
	<polygon class="st0" points="163.4,63.3 163.4,62.3 157.5,62.3 157.5,63.3 159.8,63.3 159.8,70.2 161.1,70.2 161.1,63.4 
		161.2,63.4 161.2,63.3 	"/>
	<path class="st0" d="M168.8,64.9c-0.5-0.5-1.2-0.8-1.8-0.7c-0.4,0-0.8,0.1-1.1,0.2c-0.3,0.1-0.6,0.4-0.9,0.6
		c-0.5,0.7-0.8,1.5-0.8,2.3c-0.1,0.8,0.2,1.7,0.8,2.3c0.7,0.6,1.5,0.8,2.3,0.8c0.2,0,0.5,0,0.7-0.1c0.2,0,0.4-0.1,0.6-0.1
		c0.1,0,0.1-0.1,0.2-0.1h0.1l0.3-0.1v-1.1l-0.4,0.2c-0.1,0.1-0.2,0.1-0.4,0.1s-0.3,0.1-0.4,0.1c-0.5,0.1-1,0.1-1.4,0
		c-0.2-0.1-0.4-0.2-0.6-0.3c-0.2-0.2-0.4-0.3-0.5-0.6c-0.1-0.3-0.2-0.6-0.2-0.9v-0.3h0.1v-0.1h3.9v-0.4
		C169.4,66.2,169.2,65.5,168.8,64.9z M168.1,66.7h-2.8v-0.3c0-0.4,0.1-0.8,0.4-1.1c0.2-0.2,0.4-0.3,0.6-0.4c0.2-0.1,0.4-0.1,0.6-0.1
		c0.4,0,0.8,0.1,1,0.4c0.2,0.3,0.3,0.7,0.4,1.1v0.3L168.1,66.7z"/>
	<rect x="170.8" y="61.8" class="st0" width="1.2" height="8.4"/>
	<path class="st0" d="M178,64.9c-0.5-0.5-1.2-0.8-1.8-0.7c-0.4,0-0.8,0.1-1.1,0.2c-0.3,0.1-0.6,0.4-0.9,0.6
		c-0.5,0.7-0.8,1.5-0.8,2.3c-0.1,0.8,0.2,1.7,0.8,2.3c0.7,0.5,1.5,0.8,2.3,0.8c0.2,0,0.5,0,0.7-0.1c0.2,0,0.4-0.1,0.6-0.1
		c0.1,0,0.1-0.1,0.2-0.1h0.1c0.1-0.1,0.1-0.1,0.3-0.1v-1.1l-0.4,0.2c-0.1,0.1-0.2,0.1-0.4,0.1s-0.3,0.1-0.4,0.1
		c-0.5,0.1-1,0.1-1.4,0c-0.2-0.1-0.4-0.2-0.6-0.3c-0.2-0.1-0.4-0.3-0.4-0.6c-0.2-0.3-0.2-0.6-0.2-0.9v-0.3h0.1v-0.1h3.9v-0.4
		C178.7,66.2,178.5,65.5,178,64.9z M177.4,66.7h-2.8v-0.3c0-0.4,0.1-0.8,0.4-1.1c0.2-0.2,0.4-0.3,0.6-0.4c0.2-0.1,0.4-0.1,0.6-0.1
		c0.4,0,0.8,0.1,1,0.4c0.2,0.3,0.3,0.7,0.4,1.1v0.3L177.4,66.7z"/>
	<path class="st0" d="M184.5,69.6c0.5-0.7,0.7-1.5,0.6-2.3c0.1-0.8-0.1-1.6-0.5-2.3c-0.3-0.5-0.8-0.8-1.4-0.8c-0.1,0-0.3,0-0.4,0.1
		c-0.1,0-0.2,0.1-0.3,0.1c-0.3,0.2-0.5,0.4-0.8,0.6l-0.4,0.4v-0.1l-0.1,0.1v-1H180v8.2h1.2v-2.8l0.1,0.1v-0.1l0.4,0.3
		c0.2,0.1,0.4,0.2,0.6,0.3c0.2,0.1,0.5,0.1,0.7,0.1c0.1,0,0.3,0,0.4-0.1C183.9,70.1,184.2,69.9,184.5,69.6z M183.6,68.8
		c-0.1,0.2-0.4,0.4-0.6,0.5c-0.2,0.1-0.5,0.1-0.7,0.1h-0.4c-0.1,0-0.3-0.1-0.4-0.1l-0.1-0.1v-3.6l0.1-0.1c0.2-0.1,0.4-0.2,0.6-0.3
		h0.1c0.2-0.1,0.4-0.1,0.6-0.1c0.4,0,0.8,0.2,1.1,0.6c0.2,0.5,0.3,1,0.3,1.5C184,67.8,183.9,68.4,183.6,68.8z"/>
	<path class="st0" d="M191.1,64.7c-0.3-0.4-0.7-0.5-1.2-0.5c-0.1,0-0.3,0-0.4,0.1c-0.1,0-0.2,0.1-0.3,0.1c-0.3,0.2-0.6,0.4-0.9,0.6
		l-0.4,0.4v-0.1l-0.1,0.1v-3.6h-1.1v8.4h1.1v-4.4l0.1-0.1c0.2-0.1,0.4-0.3,0.6-0.4h0.1c0.4-0.1,0.8-0.1,1.1,0
		c0.2,0.1,0.3,0.2,0.4,0.4c0.1,0.2,0.1,0.4,0.1,0.6v3.7h1.2v-3.9C191.5,65.7,191.4,65.1,191.1,64.7z"/>
	<path class="st0" d="M198.3,67.3c0-0.8-0.2-1.7-0.7-2.3c-0.5-0.6-1.3-0.9-2.1-0.9c-0.4,0-0.7,0.1-1.1,0.1c-0.3,0.1-0.6,0.3-0.9,0.6
		c-0.9,1.4-0.9,3.3,0,4.7c0.5,0.6,1.3,0.9,2.1,0.9c0.4,0,0.7-0.1,1.1-0.1c0.3-0.1,0.6-0.3,0.9-0.6C198.1,69,198.4,68.1,198.3,67.3z
		 M197,68.3c-0.1,0.3-0.1,0.5-0.3,0.7c-0.1,0.2-0.3,0.3-0.5,0.4c-0.1,0-0.1,0-0.1,0.1l0,0c-0.2,0.1-0.4,0.1-0.6,0.1
		c-0.2,0-0.4-0.1-0.6-0.1c-0.2-0.1-0.4-0.2-0.5-0.4c-0.1-0.2-0.2-0.4-0.3-0.6c-0.1-0.3-0.1-0.7-0.1-1c0-0.4,0.1-0.8,0.1-1.1
		c0.1-0.3,0.1-0.5,0.3-0.7c0.1-0.2,0.3-0.3,0.5-0.4h0.1c0.4-0.1,0.8-0.1,1.1,0c0.2,0.1,0.4,0.2,0.5,0.4c0.1,0.2,0.2,0.5,0.3,0.7
		c0.1,0.3,0.1,0.7,0.1,1C197.1,67.7,197.1,68,197,68.3z"/>
	<path class="st0" d="M204.2,64.7c-0.3-0.4-0.7-0.5-1.2-0.5c-0.1,0-0.3,0-0.4,0.1c-0.1,0-0.2,0.1-0.3,0.1c-0.3,0.2-0.6,0.4-0.9,0.6
		l-0.4,0.4v-0.1l-0.1,0.1v-1.1h-1.1v5.9h1.1v-4.4l0.1-0.1c0.2-0.1,0.4-0.3,0.6-0.4h0.1c0.4-0.1,0.8-0.1,1.1,0
		c0.2,0.1,0.3,0.2,0.4,0.4c0.1,0.2,0.1,0.4,0.1,0.6v3.7h1.2v-3.9C204.7,65.7,204.6,65.1,204.2,64.7z"/>
	<path class="st0" d="M210.6,64.9c-0.5-0.5-1.2-0.8-1.8-0.7c-0.4,0-0.8,0.1-1.1,0.2c-0.3,0.1-0.6,0.4-0.9,0.6
		c-0.5,0.7-0.8,1.5-0.8,2.3c-0.1,0.8,0.2,1.7,0.8,2.3c0.7,0.5,1.5,0.8,2.3,0.8c0.2,0,0.5,0,0.7-0.1c0.2,0,0.4-0.1,0.6-0.1
		c0.1,0,0.1-0.1,0.2-0.1h0.1L211,70v-1.1l-0.4,0.2c-0.1,0.1-0.2,0.1-0.4,0.1c-0.1,0.1-0.3,0.1-0.4,0.1c-0.5,0.1-1,0.1-1.4,0
		c-0.2-0.1-0.4-0.2-0.6-0.3c-0.2-0.1-0.4-0.3-0.4-0.6c-0.2-0.3-0.2-0.6-0.2-0.9v-0.3h0.1v-0.1h3.9v-0.4
		C211.3,66.2,211.1,65.5,210.6,64.9z M210,66.7h-2.8v-0.3c0-0.4,0.1-0.8,0.4-1.1c0.2-0.2,0.4-0.3,0.6-0.4c0.2-0.1,0.4-0.1,0.6-0.1
		c0.4,0,0.8,0.1,1,0.4c0.2,0.3,0.3,0.7,0.4,1.1v0.3L210,66.7z"/>
	<path class="st0" d="M220.2,62.3c-0.4-0.1-0.9-0.1-1.4-0.1c-0.4,0-0.8,0.1-1.1,0.1c-0.3,0.1-0.6,0.3-0.9,0.5
		c-0.6,0.4-0.9,1.1-0.9,1.8c0,0.5,0.1,0.9,0.4,1.4c0.3,0.4,0.7,0.7,1.2,0.9l0.8,0.2l0.9,0.2c0.2,0.1,0.5,0.2,0.6,0.4
		c0.2,0.2,0.3,0.4,0.3,0.7c0,0.2-0.1,0.5-0.2,0.6c-0.1,0.1-0.3,0.3-0.4,0.4c-0.1,0.1-0.1,0.1-0.3,0.1c-0.1,0.1-0.3,0.1-0.4,0.1
		c-0.2,0-0.4,0.1-0.5,0.1c-0.5,0-1-0.1-1.5-0.3c-0.3-0.2-0.7-0.4-1-0.6v1.3c0.3,0.2,0.7,0.3,1.1,0.4c0.5,0.1,1,0.2,1.5,0.1
		c0.4,0,0.9-0.1,1.3-0.1c0.3-0.1,0.6-0.3,0.9-0.5c0.6-0.4,0.9-1.1,0.9-1.8c0.1-0.9-0.5-1.8-1.4-2.1c-0.3-0.1-0.5-0.2-0.8-0.2
		l-0.8-0.2c-0.3-0.1-0.6-0.2-0.9-0.4c-0.2-0.2-0.3-0.4-0.3-0.7c0-0.2,0.1-0.4,0.2-0.6c0.1-0.1,0.3-0.3,0.4-0.4
		c0.1-0.1,0.2-0.1,0.4-0.1c0.1-0.1,0.2-0.1,0.4-0.1c0.1,0,0.4-0.1,0.5-0.1c0.5,0,1,0.1,1.4,0.3c0.2,0.1,0.5,0.3,0.7,0.4v-1.2
		C220.9,62.4,220.6,62.3,220.2,62.3z"/>
	<polygon class="st0" points="223.6,72.6 224.9,72.6 227.7,64.3 226.5,64.3 225.2,69 225.1,68.8 225,69 223.6,64.3 222.4,64.3 
		224.4,70.4 	"/>
	<path class="st0" d="M232,64.3c-0.7-0.1-1.4-0.1-2.1,0c-0.3,0.1-0.5,0.2-0.7,0.4c-0.2,0.2-0.4,0.3-0.5,0.6
		c-0.1,0.2-0.1,0.5-0.1,0.7c0,0.4,0.1,0.8,0.3,1.1c0.2,0.3,0.6,0.5,0.9,0.6c0.1,0.1,0.4,0.1,0.6,0.1c0.2,0.1,0.4,0.1,0.6,0.1
		c0.2,0,0.5,0.1,0.6,0.3c0.1,0.2,0.2,0.4,0.2,0.6c0,0.3-0.2,0.5-0.4,0.6c-0.1,0-0.1,0-0.1,0.1l0,0c-0.5,0.2-1,0.2-1.6,0.1
		c-0.2-0.1-0.4-0.2-0.6-0.3l-0.4-0.2v1c0.2,0.1,0.5,0.2,0.8,0.3c0.7,0.2,1.5,0.2,2.3,0c0.3-0.1,0.5-0.2,0.7-0.4
		c0.2-0.2,0.4-0.3,0.5-0.6c0.1-0.2,0.2-0.5,0.1-0.8c0-0.4-0.1-0.7-0.3-1c-0.2-0.3-0.5-0.5-0.9-0.6c-0.2-0.1-0.4-0.1-0.6-0.1
		c-0.2-0.1-0.4-0.1-0.6-0.1c-0.3-0.1-0.5-0.2-0.7-0.3c-0.3-0.3-0.3-0.8,0-1.1c0.1-0.1,0.1-0.1,0.2-0.1c0.1-0.1,0.2-0.1,0.4-0.1
		c0.4-0.1,0.9-0.1,1.3,0c0.2,0.1,0.4,0.1,0.6,0.2c0.1,0.1,0.2,0.2,0.4,0.2v-1.1C232.5,64.5,232.3,64.4,232,64.3z"/>
	<path class="st0" d="M234.4,65.2v3.3c-0.1,0.5,0.1,1.1,0.4,1.5c0.4,0.3,0.9,0.5,1.4,0.4c0.3,0,0.5,0,0.8-0.1c0.1,0,0.2,0,0.3-0.1
		v-0.9c-0.1,0-0.1,0.1-0.1,0.1c-0.1,0-0.3,0.1-0.4,0.1c-0.2,0-0.5-0.1-0.7-0.1c-0.1-0.1-0.3-0.3-0.4-0.4c-0.1-0.2-0.1-0.4-0.1-0.6
		v-3.1h0.1v-0.1h1.6v-0.9h-1.8v-1.8h-1.2v1.8h-0.1v0.1h-0.6v0.9H234.4z"/>
	<path class="st0" d="M238.2,67.3c-0.1,0.8,0.2,1.7,0.8,2.3c0.7,0.5,1.5,0.8,2.3,0.8c0.2,0,0.5,0,0.7-0.1c0.2,0,0.4-0.1,0.6-0.1
		c0.1,0,0.1-0.1,0.2-0.1h0.1l0.3-0.1v-1.1l-0.4,0.2c-0.1,0.1-0.2,0.1-0.4,0.1c-0.1,0.1-0.3,0.1-0.4,0.1c-0.5,0.1-1,0.1-1.4,0
		c-0.2-0.1-0.4-0.2-0.6-0.3c-0.2-0.1-0.4-0.3-0.4-0.6c-0.2-0.3-0.2-0.6-0.2-0.9v-0.3h0.1v-0.1h3.9v-0.4c0.1-0.8-0.2-1.5-0.6-2.1
		c-0.5-0.5-1.2-0.8-1.8-0.7c-0.4,0-0.8,0.1-1.1,0.2c-0.3,0.1-0.6,0.4-0.9,0.6C238.4,65.6,238.1,66.4,238.2,67.3z M239.4,66.4
		c0-0.4,0.1-0.8,0.4-1.1c0.2-0.2,0.4-0.3,0.6-0.4c0.2-0.1,0.4-0.1,0.6-0.1c0.4,0,0.8,0.1,1,0.4c0.2,0.3,0.3,0.7,0.4,1.1v0.3h-0.3
		v0.1h-2.8L239.4,66.4z"/>
	<path class="st0" d="M252.9,65.3c-0.1-0.2-0.2-0.5-0.4-0.6c-0.1-0.1-0.3-0.3-0.4-0.4c-0.3-0.1-0.7-0.2-1.1-0.1
		c-0.1,0.1-0.2,0.1-0.3,0.1c-0.3,0.2-0.7,0.5-0.9,0.8l-0.3,0.3v-0.1l-0.1,0.1l-0.1-0.4c-0.1-0.3-0.3-0.5-0.5-0.7
		c-0.2-0.1-0.5-0.2-0.8-0.2c-0.1,0-0.2,0-0.4,0.1c-0.1,0-0.1,0.1-0.2,0.1c-0.3,0.2-0.6,0.4-0.8,0.6l-0.4,0.4v-0.2l-0.1,0.1v-1.1
		h-1.2v5.9h1.2v-4.4l0.1-0.1c0.1-0.1,0.3-0.2,0.4-0.3c0.1-0.1,0.2-0.1,0.4-0.1c0.3-0.1,0.7-0.1,1,0.1c0.2,0.1,0.3,0.2,0.4,0.4
		c0.1,0.2,0.1,0.4,0.1,0.6v3.8h1.2v-4.4l0.1-0.1c0.1-0.1,0.3-0.2,0.5-0.3c0.1-0.1,0.1-0.1,0.3-0.1c0.1-0.1,0.3-0.1,0.4-0.1
		c0.2,0,0.4,0,0.6,0.1c0.2,0.1,0.3,0.2,0.4,0.4c0.1,0.2,0.1,0.4,0.1,0.6v3.8h1.2v-3.9C253.1,66,253,65.7,252.9,65.3z"/>
</g>
</svg>
