<?xml version="1.0" encoding="utf-8"?>
<!-- Generator: Adobe Illustrator 24.2.1, SVG Export Plug-In . SVG Version: 6.00 Build 0)  -->
<svg version="1.1" id="Layer_1" xmlns="http://www.w3.org/2000/svg" xmlns:xlink="http://www.w3.org/1999/xlink" x="0px" y="0px"
	 viewBox="0 0 254 80" style="enable-background:new 0 0 254 80;" xml:space="preserve">
<style type="text/css">
	.st0{fill:#009FDC;}
	.st1{fill:#FFFFFF;}
	.st2{fill:#0948B3;}
	.st3{fill:#020202;}
	.st4{fill:#F67A3C;stroke:#FFFFFF;stroke-miterlimit:10;}
	.st5{fill:none;}
</style>
<g>
	<path class="st0" d="M174.1,6.7c24.3-0.2,48.6,0,72.9-0.1c1.7-0.1,2.8,1.4,3.4,2.8c1.4,3.4,1.4,7.3,0,10.7
		c-0.6,1.4-1.7,2.9-3.4,2.8c-24.2,0-48.4,0-72.6,0c-1.6-0.2-2.5-1.8-3-3.1c-1.1-3.2-1.2-6.6-0.1-9.8C171.8,8.7,172.6,7.1,174.1,6.7z
		 M230.5,19.8c0.5-0.2,1-0.4,1.5-0.7c1,0.6,2.2,0.9,3.3,0.4c2.3-1.3,2.5-4.8,0.8-6.7c-1.1-1.2-3.1-1-4.3,0c0-1.2,0-2.5,0.1-3.7
		l-1.2,0.2C230.4,12.8,230.6,16.3,230.5,19.8z M243.4,9.1c0,1.2,0,2.4,0.1,3.6c-1.1-0.7-2.6-1.2-3.9-0.4c-2.2,1.7-2.1,5.9,0.5,7.2
		c1,0.5,2.2,0.2,3.1-0.4c0.5,0.3,1,0.4,1.5,0.6c0-3.6,0-7.1,0-10.6L243.4,9.1L243.4,9.1z M222.6,12l-1,0.2c0,0.2,0,0.6,0,0.8l1,0.2
		c0,1.9-0.2,3.9,0.1,5.8c0.4,1,1.7,0.7,2.6,0.9c0-0.3,0-0.8,0-1.1l-1.4-0.3c-0.1-1.8,0-3.5-0.1-5.3l1.4-0.1c0-0.2,0-0.7,0-1l-1.4,0
		c0-0.9,0-1.8,0-2.8C222.8,9.8,222.5,10.8,222.6,12L222.6,12z M175.3,14.9c1.1,1.7,3.6,1.1,5,2.7c-0.7,0.6-1.3,1.4-2.2,1.1
		c-1.1,0.1-1.5-1-2.1-1.7c-0.3,0.2-1.2,0.2-0.9,0.8c0.7,2.1,3.4,2.4,5.1,1.5c1.2-0.6,1.7-2.6,0.4-3.4c-1.2-0.7-2.6-0.9-3.9-1.3
		l-0.4-1c1.2-1,2.9-0.8,3.7,0.6l1.2-0.3c-0.6-1.2-1.8-2.2-3.2-2C176.4,11.7,174.5,13.2,175.3,14.9z M184.1,12.8
		c-0.4-0.4-0.8-0.7-1.4-0.9c0,2.6,0,5.2,0,7.8h1.4c0-1.8-0.2-3.7,0.2-5.5c0.4-1.2,2.4-1.7,2.9-0.4c0.3,1.9,0,3.9,0.1,5.8l1.4,0
		c0-1.8-0.2-3.6,0.1-5.5c0.3-1.2,2.3-1.7,2.9-0.4c0.3,1.9,0.1,3.9,0.1,5.8l1.4,0c0-2.1,0.2-4.3-0.2-6.4c-0.7-1.9-3.3-1.6-4.5-0.4
		c-1.1-1.2-2.9-1.3-4.2-0.2C184.1,12.7,184.1,12.7,184.1,12.8z M194.6,14.5c0.7,2.2,3.9,1.2,4.8,3.1c-0.8,1.8-3.4,1.3-4-0.4
		l-1.3,0.2c0.5,0.8,0.9,1.9,2,2.2c1.5,0.4,3.6,0.2,4.4-1.5c0.4-1,0-2.2-1.1-2.6c-0.1,0-0.3-0.1-0.5-0.1c-1.1-0.6-3.1-0.3-3.3-1.8
		c0.8-0.8,2.2-0.9,3-0.1l0,0c0.5,0.6,1.2,0.6,1.9,0.5c-0.5-1-1.2-2-2.4-2.1C196.6,11.5,194.1,12.5,194.6,14.5z M206.2,12.1
		c0,2.5,0,5,0,7.5l1.4,0.1c0-1.8-0.2-3.6,0.1-5.4c0.3-1.5,2.9-1.8,3.3-0.2c0.2,1.8,0,3.7,0,5.5l1.4,0c-0.1-2.1,0.2-4.3-0.2-6.3
		c-0.8-2-3.6-1.7-4.9-0.4c0-0.2,0-0.7,0-0.9L206.2,12.1z M215.2,19.1c1,0.7,2.3,0.8,3.4,0.6c1.1-0.2,1.8-1.4,2.4-2.2l-1.4-0.2
		c-0.7,0.7-1.4,1.8-2.5,1.5c-1.3-0.2-1.7-1.5-2.1-2.5c2,0,4,0,5.9,0c0-2-1.1-4.4-3.5-4.3C213.9,11.6,212.6,17,215.2,19.1L215.2,19.1
		z M202.5,18.1c0,0.5,0,1,0,1.5h1.5c0-0.5,0-1,0-1.5L202.5,18.1z M226.8,18.1c0,0.5,0,1,0,1.5h1.5c0-0.5,0-1,0-1.5H226.8z"/>
	<path class="st0" d="M215.1,15c0.5-1,1.1-2.3,2.5-2.1c1.2,0,1.7,1.2,2.2,2.1C218.2,15.1,216.6,15.1,215.1,15z"/>
	<path class="st0" d="M232.7,13.3c1.2-1.1,3,0.2,3,1.6c0.4,1.5-0.4,4-2.3,3.7C231.2,18,231.2,14.7,232.7,13.3z"/>
	<path class="st0" d="M240.5,13.2c1.3-0.9,2.9,0.4,2.9,1.7c0.4,1.5-0.2,4-2.2,3.7C239,18.1,238.9,14.5,240.5,13.2z"/>
	<path class="st1" d="M230.5,19.8c0-3.5-0.1-7,0-10.5l1.3-0.2c0,1.2,0,2.5-0.1,3.7c1.2-1,3.2-1.2,4.3,0c1.7,1.8,1.5,5.4-0.8,6.7
		c-1.1,0.6-2.3,0.3-3.3-0.4C231.5,19.3,231,19.6,230.5,19.8z M232.7,13.3c-1.5,1.3-1.5,4.7,0.7,5.4c2,0.2,2.7-2.2,2.3-3.7
		C235.7,13.5,233.9,12.2,232.7,13.3L232.7,13.3z"/>
	<path class="st1" d="M243.4,9.1h1.3c0,3.6,0,7.1,0,10.6c-0.5-0.2-1-0.4-1.5-0.7c-0.9,0.5-2.1,0.9-3.1,0.4c-2.6-1.3-2.8-5.5-0.5-7.2
		c1.2-0.8,2.7-0.4,3.9,0.4C243.4,11.5,243.4,10.3,243.4,9.1z M240.5,13.2c-1.6,1.3-1.5,4.8,0.7,5.5c2,0.2,2.6-2.2,2.2-3.7
		C243.4,13.6,241.8,12.4,240.5,13.2z"/>
	<path class="st1" d="M222.6,12c-0.1-1.2,0.2-2.2,1.4-2.7c0,0.9,0,1.8,0,2.8l1.4,0c0,0.2,0,0.7,0,1l-1.4,0.1c0,1.8,0,3.5,0.1,5.3
		l1.4,0.3c0,0.3,0,0.8,0,1.1c-0.9-0.2-2.2,0.1-2.6-0.9c-0.3-1.9-0.1-3.8-0.1-5.8l-1-0.2c0-0.2,0-0.6,0-0.8L222.6,12z"/>
	<path class="st1" d="M175.3,14.9c-0.8-1.7,1.1-3.2,2.7-3c1.5-0.2,2.6,0.7,3.2,2l-1.2,0.3c-0.8-1.4-2.5-1.5-3.7-0.6l0.4,1
		c1.3,0.4,2.7,0.7,3.9,1.3c1.2,0.8,0.7,2.8-0.4,3.4c-1.7,0.9-4.5,0.6-5.1-1.5c-0.3-0.5,0.7-0.5,0.9-0.8c0.6,0.7,1.1,1.8,2.1,1.7
		c1,0.2,1.6-0.6,2.2-1.1C178.9,16,176.4,16.6,175.3,14.9z"/>
	<path class="st1" d="M184.1,12.8c1.2-1.1,3-1.1,4.2,0c0,0,0,0,0.1,0.1c1.2-1.2,3.8-1.5,4.5,0.4c0.4,2.1,0.1,4.3,0.2,6.4l-1.4,0
		c0-1.9,0.2-3.9-0.1-5.8c-0.6-1.2-2.5-0.8-2.9,0.4c-0.4,1.8-0.1,3.6-0.1,5.4l-1.4,0c0-1.9,0.2-3.9-0.1-5.8c-0.4-1.4-2.5-0.8-2.9,0.4
		c-0.4,1.8-0.1,3.6-0.2,5.5h-1.4c0-2.6,0-5.2,0-7.8C183.3,12,183.7,12.3,184.1,12.8z"/>
	<path class="st1" d="M194.6,14.5c-0.5-2,2-3,3.6-2.6c1.2,0,1.9,1.1,2.4,2.1c-0.7,0.1-1.4,0.1-1.9-0.5c-0.8-0.8-2.2-0.8-3,0.1l0,0
		c0.2,1.5,2.2,1.2,3.3,1.8c1.1,0.2,1.8,1.1,1.6,2.2c0,0.2-0.1,0.3-0.1,0.5c-0.7,1.7-2.8,1.8-4.4,1.5c-1.1-0.3-1.5-1.4-2-2.2l1.3-0.2
		c0.7,1.7,3.2,2.2,4,0.4C198.4,15.7,195.2,16.8,194.6,14.5z"/>
	<path class="st1" d="M206.2,12.1l1.2-0.1c0,0.2,0,0.7,0,0.9c1.3-1.3,4.1-1.6,4.9,0.4c0.4,2.1,0.1,4.2,0.2,6.3l-1.4,0
		c0-1.8,0.2-3.7,0-5.5c-0.4-1.6-3-1.3-3.3,0.2c-0.3,1.8-0.1,3.6-0.1,5.4l-1.4-0.1C206.2,17.1,206.2,14.6,206.2,12.1z"/>
	<path class="st1" d="M215.2,19.1c-2.6-2.1-1.4-7.5,2.3-7.2c2.3-0.1,3.4,2.3,3.5,4.3c-2,0-4,0-5.9,0c0.4,1,0.8,2.3,2.1,2.5
		c1.1,0.3,1.9-0.8,2.5-1.5l1.4,0.2c-0.6,0.9-1.2,2-2.4,2.2C217.5,19.9,216.1,19.8,215.2,19.1z M215.1,15c1.5,0,3.1,0,4.7,0
		c-0.5-0.9-1-2.2-2.2-2.1C216.2,12.8,215.6,14.1,215.1,15L215.1,15z"/>
	<path class="st1" d="M202.5,18.1l1.5,0c0,0.5,0,1,0,1.5h-1.5C202.5,19.1,202.5,18.6,202.5,18.1z"/>
	<path class="st1" d="M226.8,18.1h1.5c0,0.5,0,1,0,1.5h-1.5C226.8,19.1,226.8,18.6,226.8,18.1z"/>
	<path class="st2" d="M58.3,26.1c0.9-2.2,4.7-2,5.3,0.3c3.3,8.8,6.6,17.6,9.9,26.4H67l-1.5-4.1c-3,0-6.1,0-9.1,0
		c-0.5,1.4-1.1,2.7-1.6,4.1h-6.5C51.7,43.9,54.8,34.9,58.3,26.1z M60.9,36.7c-0.7,1.9-1.5,3.9-2.2,5.8c1.5,0,3,0,4.5,0
		C62.3,40.6,61.6,38.6,60.9,36.7L60.9,36.7z"/>
	<path class="st2" d="M74.8,24.7h6.5c0,7.3,0,14.7,0,22c3.9,0,7.8,0,11.6,0c0,2,0,4,0,6c-4.5,0-9,0-13.4,0c-1.4,0.1-2.8-0.6-3.6-1.7
		c-0.9-1.3-1.1-2.9-1.1-4.5C74.9,39.3,74.9,32,74.8,24.7z"/>
	<path class="st2" d="M95.9,24.7c3.9,0,7.9,0,11.8,0c2.7,0,5.7,0.8,7.5,3c2,2.5,2.2,5.8,1.9,8.7c-0.2,2.8-1.7,5.6-4.3,6.9
		c-3.3,1.6-7,1-10.5,1.1c0,2.8,0,5.6,0,8.4c-2.1,0-4.2,0-6.3,0V24.7z M102.2,30.7c0,2.5,0,5,0,7.5c2.1-0.1,4.3,0.3,6.4-0.4
		c2.8-1.1,2.7-5.9-0.2-6.8C106.3,30.5,104.2,30.8,102.2,30.7z"/>
	<path class="st2" d="M120.1,24.7h6.4c0,3.7,0,7.5,0,11.2h7.7V24.7h6.4c0,9.4,0,18.7,0,28.1h-6.4c0-3.6,0-7.2,0-10.8h-7.7
		c0,3.6,0,7.2,0,10.8c-2.1,0-4.2,0-6.4,0C120.1,43.4,120.1,34.1,120.1,24.7z"/>
	<path class="st2" d="M153.2,26.3c0.7-2,3.7-2.3,4.9-0.7c0.4,0.8,0.8,1.6,1.1,2.5c3.2,8.2,6.2,16.5,9.3,24.7h-6.5
		c-0.5-1.4-1.1-2.7-1.6-4.1h-9.2l-1.5,4.1h-6.5C146.6,44,149.9,35.1,153.2,26.3z M155.9,36.7c-0.7,1.9-1.5,3.9-2.2,5.8h4.5
		C157.3,40.6,156.6,38.6,155.9,36.7z"/>
	<path class="st1" d="M17.3,32c1.5-0.7,3.6-0.4,4.7,1c0.1,0.6-0.4,1-0.9,1.2c-0.6-0.4-1.1-0.9-1.8-1.3c-0.8-0.4-1.4,0.5-1.9,0.9
		c1.4,0.7,2.9,0.9,4.3,1.7c1.3,0.9,0.6,3-0.8,3.4c-1.6,0.7-4.1,0.5-4.9-1.3c-0.3-0.6,0.5-0.9,0.8-1.3c0.7,1.2,2.6,2.7,3.7,1
		c-0.4-1.8-3.3-1.1-4.3-2.7C15.5,33.7,16.3,32.4,17.3,32z"/>
	<path class="st1" d="M23.8,32.2c0.5-1.1,1.3-0.4,1.9,0.2c1.3-1,2.9-0.8,4.1,0.1c1.1-0.8,2.6-1.3,3.8-0.4c0.9,0.5,0.7,1.7,0.8,2.6
		c0,1.3,0,2.6-0.1,3.9c-0.1,0.9-1.5,0.9-1.8,0c-0.3-1.7,0.2-3.4-0.3-5.1c-0.6-0.9-2-0.3-2.2,0.7c-0.3,1.5,0,3-0.3,4.4
		c-0.1,0.9-1.7,0.8-1.7-0.1c-0.2-1.7,0.1-3.4-0.2-5.1c-0.5-0.5-1.3-0.5-1.8,0c-0.1,0.1-0.3,0.3-0.3,0.5c-0.4,1.5-0.1,3.1-0.3,4.6
		c0,1-1.7,1.1-1.8,0C23.8,36.4,23.8,34.3,23.8,32.2z"/>
	<path class="st1" d="M36.2,34.6c-0.8-2,1.8-3.3,3.4-2.9c1.2,0,2,0.9,2.7,1.8c-0.4,0.2-0.8,0.4-1.2,0.6c-1-0.5-2-2-3.2-1
		c-0.1,0.2-0.3,0.5-0.3,0.7c1.3,0.8,2.9,0.8,4.1,1.7c1.1,0.9,0.5,2.8-0.7,3.3c-1.6,0.7-4,0.6-5.1-1.1c-0.4-0.7,0.3-1.1,0.7-1.5
		c0.5,0.5,1,1.1,1.6,1.5c0.8,0.5,2.2,0.2,2.3-0.9C39.4,35.7,37.2,36,36.2,34.6z"/>
	<path class="st2" d="M57,59.3h1.8c0,2.8,0,5.6,0,8.4c0,1.1,1.2,2.2,2.3,1.8c0.9-0.2,1.5-1,1.5-1.9c0-2.8,0-5.5,0-8.4h1.8
		c0,3.1,0.1,6.2-0.1,9.2c-0.4,2.8-4.2,3.8-6.2,2.1c-0.8-0.8-1.2-1.8-1.2-3C56.9,64.9,57,62.1,57,59.3z"/>
	<path class="st2" d="M48.6,59.3c1.7,0,3.5-0.5,5,0.4c1.6,1.1,1.5,3.6,0.1,4.8c2.3,1.3,2.3,5.2-0.1,6.3c-1.5,0.7-3.3,0.4-5,0.4
		C48.6,67.3,48.6,63.3,48.6,59.3z M50.4,60.9c0,1,0,2,0,3c1.1,0,2.6-0.1,2.6-1.5C53.2,61,51.5,60.9,50.4,60.9L50.4,60.9z M50.4,65.5
		c0,1.4,0,2.7,0,4c0.9-0.1,1.9,0,2.7-0.6c0.7-0.9,0.7-2.1,0-3C52.3,65.4,51.3,65.6,50.4,65.5L50.4,65.5z"/>
	<path class="st2" d="M66.4,59.3h1.8c0,3.3,0,6.7,0,10.1h4.5c0,0.7,0,1.3,0,1.9c-2.1,0-4.2,0-6.3,0C66.5,67.3,66.5,63.3,66.4,59.3z"
		/>
	<path class="st2" d="M74.2,59.3H76c0,1.9,0,3.8,0,5.7c1.2-1.8,2.2-3.7,3.4-5.5c0.7-0.4,1.5-0.1,2.2-0.2c-1.1,1.8-2.2,3.6-3.3,5.3
		c1.3,2.2,2.5,4.5,3.8,6.8c-0.7,0-1.5,0-2.2,0c-1-1.7-1.8-3.4-2.8-5.1c-1.3,1.5-1.1,3.3-1.1,5.1h-1.8C74.2,67.3,74.2,63.3,74.2,59.3
		z"/>
	<path class="st2" d="M88.1,59.5c1.3-0.8,2.9-0.4,4.2,0.2c-0.2,0.6-0.4,1.3-0.5,1.9c-0.7-0.3-1.3-0.7-2.1-0.7
		c-0.7,0-1.3,0.7-1.3,1.4c0,0.2,0.1,0.4,0.2,0.7c0.9,1.4,2.8,1.7,3.6,3.2c0.8,1.6,0.6,3.9-1,4.8c-1.5,0.9-3.2,0.5-4.7-0.2
		c0.2-0.7,0.4-1.4,0.7-2c0.9,0.5,2.2,1.3,3.2,0.6c0.7-0.4,0.6-1.4,0.2-2c-0.9-1.3-2.7-1.7-3.6-3.1C86.2,62.6,86.5,60.4,88.1,59.5z"
		/>
	<path class="st2" d="M93.3,71.3c0.7-4,1.3-8,2.1-12h0.9c0.8,2.6,1.5,5.4,2.2,8c0.8-2.6,1.3-5.3,2.2-7.9l0.9-0.3
		c0.7,4,1.4,8.1,2.1,12.1h-1.8c-0.4-2.1-0.6-4.3-1.1-6.4c-0.8,2.3-1.2,4.8-2.3,6.9c-1.1-2.2-1.5-4.7-2.3-7c-0.5,2.1-0.7,4.3-1.1,6.4
		L93.3,71.3z"/>
	<path class="st2" d="M105.6,59.5c1.3-0.8,2.9-0.4,4.2,0.2c-0.2,0.7-0.4,1.3-0.5,1.9c-0.7-0.3-1.3-0.8-2.1-0.7
		c-0.7,0-1.3,0.6-1.3,1.4c0,0.2,0.1,0.4,0.2,0.7c0.8,1.3,2.5,1.7,3.5,2.9c1.1,1.5,0.9,4-0.8,5.1c-1.5,0.9-3.3,0.5-4.7-0.2
		c0.2-0.7,0.4-1.4,0.7-2c0.9,0.5,2.2,1.3,3.2,0.6c0.8-0.5,0.6-1.6,0-2.2c-0.9-1.1-2.4-1.5-3.3-2.6C103.8,62.9,104,60.5,105.6,59.5z"
		/>
	<path class="st2" d="M122.3,59.4c1.3-0.7,2.8-0.3,4.1,0.3c-0.2,0.7-0.4,1.3-0.5,2c-0.8-0.4-1.8-1-2.7-0.6c-0.4,0.4-0.9,1.2-0.5,1.8
		c0.8,1.4,2.6,1.8,3.6,3.1c1,1.5,0.8,3.9-0.8,5c-1.5,1-3.3,0.6-4.7-0.2c0.2-0.7,0.4-1.3,0.7-1.9c1,0.7,2.6,1.4,3.6,0.2
		c0.7-1.8-1.3-2.8-2.5-3.6C120.1,64.2,120.1,60.6,122.3,59.4z"/>
	<path class="st2" d="M127.4,71.3c0.8-4,1.3-8.1,2.2-12l0.8,0.1c0.9,2.6,1.4,5.3,2.2,7.9c0.7-2.6,1.4-5.3,2.1-7.9h1
		c0.7,4,1.4,8,2.1,12c-0.6,0-1.2-0.1-1.8-0.2c-0.4-2.1-0.7-4.2-1-6.3c-0.8,2-1.2,4.2-2,6.2l-0.6,0.6c-0.8-2.2-1.3-4.5-2.2-6.7
		c-0.3,2.1-0.7,4.2-1,6.3L127.4,71.3z"/>
	<path class="st2" d="M139.8,59.4c1.3-0.7,2.8-0.2,4,0.3c-0.2,0.7-0.4,1.3-0.5,2c-0.9-0.5-2.5-1.4-3.2-0.1c-0.7,1.5,1.1,2.4,2.1,3.1
		c2,1,2.8,3.9,1.3,5.6c-1.3,1.6-3.7,1.5-5.3,0.5c0.1-0.7,0.3-1.4,0.5-2c0.9,0.5,2,1.2,3,0.7c0.8-0.3,0.9-1.4,0.5-2
		c-0.8-1.3-2.4-1.7-3.4-2.8C137.7,63,138,60.4,139.8,59.4z"/>
	<path class="st2" d="M149.6,64.2c0.2-2.3,1.8-4.8,4.2-5.1c1.4-0.3,2.6,0.3,3.7,1c-0.3,0.6-0.5,1.2-0.8,1.8
		c-1.1-0.7-2.5-1.4-3.6-0.5c-2,1.5-2.1,4.6-1,6.7c0.7,1.5,2.6,1.8,4,1c0-0.8,0-1.7,0-2.5l-1.5,0v-1.8c1.1,0,2.2,0,3.3,0
		c0,1.8,0,3.7,0,5.5c-1.8,1.1-4.1,1.7-5.9,0.5C149.9,69.4,149.4,66.6,149.6,64.2z"/>
	<path class="st2" d="M158.4,71.3c1.5-4,2.6-8.2,4.1-12.2l0.7,0.2c1.4,4,2.6,8,4,12l-2,0l-0.7-2.5h-3.4c-0.2,0.8-0.5,1.6-0.7,2.5
		L158.4,71.3z M162.9,62.9c-0.5,1.4-0.8,2.8-1.3,4.2l2.4,0C163.6,65.8,163.3,64.3,162.9,62.9z"/>
	<path class="st2" d="M167.4,59.3h8.3c0,0.7,0,1.3,0,1.9h-3.3c0,3.3,0,6.7,0,10.1h-1.8c0-3.3,0-6.7,0-10.1h-3.3
		C167.4,60.6,167.4,59.9,167.4,59.3z"/>
	<path class="st2" d="M176.8,71.3c0-4,0-8,0-12h6.4c0,0.7,0,1.3,0.1,1.9c-1.5,0-3.1,0-4.7,0c0,0.9,0,1.8,0,2.7h3.3
		c0,0.4,0,1.4,0,1.8h-3.3c0,1.2,0,2.4,0,3.6c1.5,0,3,0,4.6,0c0,0.7,0,1.3,0,1.9C181.1,71.3,179,71.3,176.8,71.3z"/>
	<path class="st2" d="M183.9,59.3h1.8c0.7,2.4,1.2,4.8,1.9,7.2c0.7-2.5,1.2-5.1,2.2-7.5l0.7,0.8c0.7,2.2,1.2,4.5,1.9,6.7
		c0.6-2.4,1.2-4.8,1.8-7.2h1.9c-1,3.5-1.9,7.1-2.9,10.6c-0.2,0.7-0.5,1.4-0.9,1.9c-1.1-2.5-1.5-5.3-2.5-7.9c-0.7,2.5-1.3,4.9-2,7.3
		l-0.7,0.1C186,67.4,184.9,63.3,183.9,59.3z"/>
	<path class="st2" d="M200.4,58.9c1,0.5,1.1,1.6,1.4,2.5c1.1,3.3,2.2,6.6,3.3,9.8l-2,0c-0.3-0.8-0.5-1.6-0.7-2.5h-3.4
		c-0.2,0.8-0.5,1.6-0.7,2.5h-2.1C197.6,67.2,198.8,62.9,200.4,58.9z M200.5,62.9c-0.4,1.5-0.7,2.9-1.1,4.3h2.4
		C201.4,65.7,201.1,64.3,200.5,62.9L200.5,62.9z"/>
	<path class="st2" d="M205,59.3l2,0c0.8,1.7,1.6,3.3,2.3,5.1c0.8-1.7,1.6-3.4,2.4-5.1l1.9,0c-1.1,2.3-2.2,4.6-3.3,6.9
		c-0.3,1.7,0,3.4-0.1,5.1h-1.8c-0.2-2.1,0.5-4.4-0.6-6.2C206.9,63.1,206,61.2,205,59.3z"/>
	<path class="st2" d="M219.3,60.3c1.1-1.6,3.5-1.5,5-0.4c-0.3,0.5-0.5,1-0.7,1.5c-0.8-0.4-1.8-1.1-2.5-0.4c-1,0.7-0.5,1.9-0.1,2.8
		h2.4c0-0.4,0-1,0-1.3c0.6-0.3,1.2-0.6,1.8-0.8c0,0.7,0,1.5-0.1,2.2c0.6,0,1.1,0,1.8,0v1.8l-1.8,0c0,1.1,0,2.2,0.1,3.3
		c0.1,0.9,1.2,0.5,1.8,0.5c0,0.6,0,1.2,0,1.8c-1,0.2-2,0.3-2.9-0.3c-1.4,0.4-3.1,0.8-4.3-0.2c-1.6-1.6-1.5-4.4-0.3-6.2
		C218.6,63.3,218.3,61.5,219.3,60.3z M221,69.1c0.6,0.7,1.6,0.4,2.4,0.4c0-1.3,0-2.6,0-3.9c-0.8,0-1.7,0-2.5,0
		C220.4,66.7,220,68.2,221,69.1z"/>
	<path class="st2" d="M231.9,71.3c1.5-4,2.5-8.1,4.1-12c0.7-0.8,0.9,0.6,1.1,1c1.2,3.7,2.4,7.4,3.7,11l-2,0
		c-0.3-0.8-0.5-1.6-0.7-2.4c-1.1,0-2.3,0-3.4,0c-0.2,0.8-0.5,1.6-0.7,2.5H231.9z M235.1,67.1l2.4,0c-0.4-1.5-0.8-2.9-1.1-4.4
		C235.9,64.2,235.6,65.7,235.1,67.1z"/>
	<path class="st2" d="M241.8,59.3c1.7,0,3.5-0.3,5.1,0.5c1.9,1,1.9,3.7,1.1,5.4c-0.8,1.6-2.8,1.8-4.4,1.8c0,1.5,0,2.9,0,4.3h-1.8
		C241.9,67.3,241.8,63.3,241.8,59.3z M243.7,61.1c0,1.3,0,2.6,0,4c0.7,0,1.5,0,2.1-0.3c0.9-0.5,1.1-1.8,0.7-2.6
		C245.9,61.1,244.6,61.2,243.7,61.1z"/>
	<path class="st2" d="M250.1,59.3h1.8c0,4,0,8,0,12h-1.8C250.1,67.3,250.1,63.3,250.1,59.3z"/>
	<path class="st1" d="M13.6,63.4c1.8-0.8,4.4,0,4.7,2.1c0.7,2.3-1.6,4.7-3.9,4C11.6,69.2,11,64.5,13.6,63.4z"/>
	<path class="st3" d="M112.4,69.4c0.7-0.8,1.8-0.3,2.1,0.6c0.2,1.3-0.4,2.5-1.1,3.5h-1.7c0.5-0.5,1-1.1,1.4-1.7
		C112.6,71,111.5,70.1,112.4,69.4z"/>
	<path class="st4" d="M4.8,19.7c3.6-0.1,7.3,0,10.9-0.1c-1.8,1.4-3.7,2.7-5.1,4.6C10,25,9.4,26.1,8.3,26.1c-1.8,0.1-3.6-0.1-5.3,0.1
		c0,11.8-0.1,23.6,0,35.4c8.1,0.2,16.2,0.1,24.3,0c0.1-1.5,0-3,0-4.5c0.3-1.2,1.5-1.9,2.2-2.8c0.1,3.8,0,7.7,0,11.5
		c0,1.7-0.4,3.5-1.9,4.5c-1.2,0.9-2.7,0.8-4.1,0.8c-6.2,0-12.3,0-18.5,0c-2.4,0.1-4.5-2-4.4-4.4c0-14.2,0-28.5,0-42.7
		C0.7,21.9,2.5,19.7,4.8,19.7z M13.6,63.4c-2.6,1.1-2.1,5.8,0.8,6.2c2.3,0.7,4.7-1.8,3.9-4C18,63.4,15.5,62.6,13.6,63.4L13.6,63.4z"
		/>
	<path class="st4" d="M21.6,22.1c2.6-0.2,5.2,0,7.8-0.1c3.5,0,7.3-0.4,10.4,1.4c5.8,3.2,8.5,11.3,5.6,17.3c-1.5,3.3-4.2,6-7.6,7.2
		c-2.5,0.9-5.3-0.2-7.7,1.1c-1.9,0.9-3.2,2.7-4.7,4.1c-1.1,1.1-2.3,2.2-3.5,3.1l-0.7-0.7c0.1-2.3,0.5-4.6,0.8-6.9
		c-1.9-0.8-4-1.2-5.7-2.5c-4.7-3.3-6.6-9.8-4.7-15.2C13,26.5,16.9,22.8,21.6,22.1z M17.3,32c-1,0.4-1.8,1.7-1.1,2.7
		c0.9,1.6,3.8,0.8,4.3,2.7c-1.1,1.6-3,0.2-3.7-1c-0.4,0.4-1.1,0.6-0.8,1.3c0.8,1.8,3.3,2,4.9,1.3c1.4-0.4,2.1-2.5,0.8-3.4
		c-1.3-0.8-2.9-1-4.3-1.7c0.5-0.4,1.1-1.3,1.9-0.9c0.7,0.4,1.2,0.9,1.8,1.3c0.5-0.1,1-0.6,0.9-1.2C20.9,31.6,18.8,31.3,17.3,32z
		 M23.8,32.2c-0.1,2.1-0.1,4.2,0,6.3c0.1,1,1.7,0.9,1.8,0c0.2-1.5-0.1-3.1,0.3-4.6c0.3-0.7,1-1,1.7-0.7c0.2,0.1,0.4,0.2,0.5,0.3
		c0.4,1.7,0,3.4,0.2,5.1c0,0.9,1.6,0.9,1.7,0.1c0.2-1.5,0-3,0.3-4.4c0.1-1,1.5-1.6,2.2-0.7c0.4,1.7,0,3.4,0.3,5.1
		c0.2,0.8,1.6,0.8,1.8,0c0.1-1.3,0.1-2.5,0.1-3.9c0-0.9,0.1-2-0.8-2.6c-1.2-0.9-2.7-0.4-3.8,0.4c-1.2-1-2.9-1.2-4.1-0.1
		C25.2,31.8,24.4,31.1,23.8,32.2z M36.2,34.6c1,1.5,3.2,1.1,4.4,2.3c-0.1,1.1-1.5,1.5-2.3,0.9c-0.6-0.5-1.1-1-1.6-1.5
		c-0.4,0.4-1.1,0.8-0.7,1.5c1,1.7,3.4,1.8,5.1,1.1c1.2-0.5,1.8-2.4,0.7-3.3c-1.2-0.9-2.9-1-4.1-1.7c0.1-0.2,0.3-0.5,0.3-0.7
		c1.1-1,2.2,0.4,3.2,1c0.4-0.2,0.8-0.4,1.2-0.6c-0.7-0.9-1.5-1.8-2.7-1.8C37.9,31.2,35.4,32.6,36.2,34.6L36.2,34.6z"/>
	<path class="st2" d="M180.3,27.8c1.7-2.2,4.6-3,7.3-3.1c3.5,0,7,0,10.6,0v6.2c-3.7,0-7.3,0-11,0c-2.2,0-2.2,3.6-0.3,4
		c2.9,0.8,5.8,1.3,8.7,2.1c2.2,0.6,4,2.4,4.4,4.7c0.4,2.3,0.4,4.8-0.6,6.9c-1.3,2.6-4,4.2-6.9,4.2c-4.1,0-8.3,0-12.4,0c0-2,0-4,0-6
		c3.8,0,7.7,0,11.5,0c2.1,0,2.2-3.6,0.4-4c-3.3-1.1-7-0.8-9.9-2.8C178.2,37.4,177.4,31.3,180.3,27.8z"/>
	<path class="st2" d="M203.5,27.2c0-1.4,1.1-2.6,2.6-2.6c1.3-0.1,2.9-0.1,3.6,1.2c2.2,4.3,4.1,8.7,6.3,13c2-4.2,4-8.4,6-12.5
		c1.2-2.6,6.2-2.2,6.5,0.9c0.1,8.5,0,17.1,0.1,25.6c-2.1,0-4.1,0-6.2,0c0-4.2,0-8.4,0.1-12.6c-1.4,2.6-2.3,5.4-3.6,8
		c-1,2-4.4,2-5.4,0c-1.3-2.5-2.3-5.3-3.6-7.8c-0.1,4.1,0,8.3,0,12.4c-2.1,0-4.2,0-6.3,0C203.5,44.2,203.3,35.7,203.5,27.2z"/>
	<path class="st2" d="M236.5,25.4c2.2-0.8,4.7-0.8,7-0.7c2.5,0,5.1,0,7.6,0c0,2.1,0,4.1,0,6.2c-3.7,0-7.5,0-11.2,0.1
		c-2.1,0.1-1.9,3.6,0,4c2.9,0.8,5.8,1.3,8.7,2.1c2.2,0.7,3.9,2.5,4.3,4.8c0.4,2.4,0.4,5-0.9,7.2c-1.4,2.4-4,3.9-6.8,3.8
		c-4.1,0-8.2,0-12.3,0c0-2,0-4,0-6c4-0.1,7.9,0.1,11.8-0.1c2-0.3,1.8-3.6,0-4c-3-0.9-6.2-0.8-9-2.2c-3.2-1.7-4.8-5.6-4-9.1
		C232.1,28.7,233.9,26.3,236.5,25.4z"/>
	<rect x="172.8" y="8.8" class="st0" width="75.7" height="11.7"/>
	<path class="st5" d="M242.4,12.3c-0.6,0-1.1,0.3-1.5,0.7c-0.4,0.7-0.6,1.4-0.5,2.2c0,0.7,0.1,1.4,0.5,2c0.4,0.5,0.9,0.7,1.5,0.7
		c0.7,0,1.5-0.4,1.8-1.1v-3.5C243.9,12.7,243.2,12.3,242.4,12.3z"/>
	<path class="st5" d="M218.4,12.3c-0.5,0-1,0.2-1.3,0.6c-0.4,0.4-0.6,1-0.7,1.6h3.8v-0.1c0-0.6-0.2-1.1-0.5-1.5
		C219.3,12.5,218.9,12.3,218.4,12.3z"/>
	<path class="st5" d="M234.6,17.9c0.6,0,1.1-0.3,1.5-0.7c0.4-0.7,0.6-1.4,0.5-2.2c0-0.7-0.1-1.4-0.5-2c-0.4-0.5-0.9-0.7-1.5-0.7
		c-0.8,0-1.5,0.4-1.8,1.2v3.3C233,17.5,233.7,18,234.6,17.9z"/>
	<path class="st1" d="M180.9,15c-0.5-0.2-1-0.4-1.6-0.5c-0.4-0.1-0.9-0.2-1.3-0.4c-0.3-0.1-0.4-0.4-0.4-0.7c0-0.3,0.1-0.6,0.4-0.8
		c0.3-0.2,0.7-0.4,1.1-0.3c0.4,0,0.8,0.1,1.1,0.4c0.3,0.2,0.4,0.6,0.4,0.9h1.3c0-0.7-0.3-1.3-0.8-1.7c-0.6-0.5-1.3-0.7-2.1-0.7
		c-0.7,0-1.5,0.2-2,0.6c-0.5,0.4-0.8,1-0.8,1.6c0,0.4,0.1,0.7,0.3,1c0.2,0.3,0.5,0.5,0.8,0.7c0.5,0.2,1,0.4,1.5,0.5
		c0.5,0.1,1,0.3,1.4,0.5c0.3,0.2,0.4,0.5,0.4,0.8c0,0.3-0.2,0.6-0.4,0.8c-0.4,0.2-0.7,0.3-1.2,0.3c-0.4,0-0.9-0.1-1.3-0.4
		c-0.3-0.3-0.5-0.6-0.5-1h-1.3c0,0.4,0.1,0.9,0.4,1.2c0.3,0.4,0.7,0.7,1.1,0.9c0.5,0.2,1.1,0.4,1.6,0.3c0.7,0,1.5-0.2,2.1-0.6
		c0.5-0.4,0.8-1,0.8-1.6c0-0.4-0.1-0.7-0.3-1C181.6,15.5,181.3,15.2,180.9,15z"/>
	<path class="st1" d="M191.9,11.2c-0.5,0-1,0.1-1.5,0.4c-0.4,0.2-0.7,0.5-1,0.9c-0.4-0.8-1.1-1.2-2.2-1.2c-0.9,0-1.7,0.3-2.2,1
		l0-0.8h-1.2v7.6h1.3v-5.5c0.3-0.7,1-1.1,1.8-1.1c1.1,0,1.6,0.6,1.6,1.6v5h1.3v-5c0-0.4,0.2-0.8,0.5-1.1c0.3-0.3,0.7-0.4,1.2-0.4
		c0.4,0,0.9,0.1,1.2,0.4c0.3,0.4,0.4,0.8,0.4,1.2v5h1.3v-5.1C194.4,12.1,193.5,11.2,191.9,11.2z"/>
	<path class="st1" d="M200.8,15c-0.5-0.2-1-0.4-1.6-0.5c-0.4-0.1-0.9-0.2-1.3-0.4c-0.3-0.1-0.4-0.4-0.4-0.7c0-0.3,0.1-0.6,0.4-0.8
		c0.3-0.2,0.7-0.3,1.1-0.3s0.8,0.1,1.1,0.4c0.3,0.2,0.4,0.6,0.4,0.9h1.3c0-0.7-0.3-1.3-0.8-1.7c-0.6-0.5-1.3-0.7-2.1-0.7
		c-0.7,0-1.5,0.2-2,0.7c-0.5,0.4-0.8,1-0.8,1.6c0,0.4,0.1,0.7,0.3,1c0.2,0.3,0.5,0.5,0.8,0.7c0.5,0.2,1,0.4,1.5,0.5
		c0.5,0.1,1,0.3,1.4,0.5c0.3,0.2,0.4,0.5,0.4,0.8c0,0.3-0.2,0.6-0.4,0.8c-0.4,0.2-0.7,0.3-1.2,0.3c-0.4,0-0.9-0.1-1.3-0.4
		c-0.3-0.3-0.5-0.6-0.5-1H196c0,0.4,0.1,0.9,0.4,1.2c0.3,0.4,0.7,0.7,1.1,0.9c0.5,0.2,1.1,0.4,1.6,0.3c0.7,0,1.5-0.2,2.1-0.6
		c0.5-0.4,0.8-1,0.8-1.6c0-0.4-0.1-0.7-0.3-1C201.5,15.5,201.2,15.2,200.8,15z"/>
	<path class="st1" d="M204.5,17.5c-0.2,0-0.4,0-0.6,0.2c-0.1,0.2-0.2,0.4-0.2,0.6c0,0.2,0,0.4,0.2,0.5c0.2,0.2,0.4,0.2,0.6,0.2
		c0.2,0,0.4,0,0.6-0.2c0.1-0.1,0.2-0.4,0.2-0.5c0-0.2,0-0.4-0.2-0.6C205,17.5,204.8,17.4,204.5,17.5z"/>
	<path class="st1" d="M211,11.2c-0.9,0-1.7,0.4-2.3,1.1l0-0.9h-1.2v7.5h1.3v-5.4c0.2-0.4,0.4-0.7,0.7-0.9c0.3-0.2,0.7-0.4,1.1-0.4
		c0.4,0,0.8,0.1,1.1,0.4c0.3,0.4,0.4,0.8,0.4,1.2v5h1.3v-5C213.4,12.1,212.6,11.2,211,11.2z"/>
	<path class="st1" d="M218.4,11.2c-0.6,0-1.2,0.2-1.7,0.5c-0.5,0.4-0.9,0.8-1.2,1.4c-0.3,0.6-0.4,1.3-0.4,2v0.2c0,1,0.3,2,1,2.7
		c0.7,0.7,1.6,1.1,2.5,1c1.1,0,2.2-0.5,2.9-1.5l-0.8-0.6c-0.2,0.3-0.5,0.6-0.8,0.7c-0.4,0.2-0.7,0.3-1.1,0.3c-0.6,0-1.2-0.2-1.6-0.7
		c-0.4-0.5-0.7-1.1-0.7-1.8h5.1V15c0-1-0.2-2-0.8-2.8C220,11.5,219.2,11.2,218.4,11.2z M220.2,14.4h-3.8c0-0.6,0.3-1.1,0.7-1.6
		c0.4-0.4,0.8-0.6,1.3-0.6c0.5,0,1,0.2,1.3,0.5C220,13.2,220.2,13.8,220.2,14.4L220.2,14.4z"/>
	<path class="st1" d="M223.4,11.3h-1.4v1h1.4V17c0,0.5,0.1,1.1,0.4,1.5c0.4,0.4,0.8,0.6,1.3,0.5c0.4,0,0.7,0,1-0.1v-1.1
		c-0.2,0-0.4,0.1-0.6,0.1c-0.2,0-0.5,0-0.7-0.2c-0.1-0.2-0.2-0.4-0.2-0.7v-4.7h1.4v-1h-1.4V9.5h-1.3V11.3z"/>
	<path class="st1" d="M228.4,17.5c-0.2,0-0.4,0-0.6,0.2c-0.1,0.2-0.2,0.4-0.2,0.6c0,0.2,0,0.4,0.2,0.5c0.2,0.2,0.4,0.2,0.6,0.2
		c0.2,0,0.4,0,0.6-0.2c0.1-0.1,0.2-0.4,0.2-0.5c0-0.4-0.3-0.7-0.7-0.8C228.5,17.5,228.5,17.5,228.4,17.5z"/>
	<path class="st1" d="M231.4,18.9h1.2l0.1-0.9c0.5,0.7,1.4,1.1,2.2,1c0.8,0,1.6-0.4,2.2-1.1c0.6-0.8,0.8-1.8,0.8-2.8v-0.1
		c0-1-0.2-2-0.8-2.9c-0.5-0.7-1.3-1.1-2.2-1.1c-0.8,0-1.6,0.3-2.2,1V9.5h-1.3V18.9z M232.7,13.5c0.3-0.7,1.1-1.2,1.8-1.2
		c0.6,0,1.1,0.3,1.5,0.7c0.4,0.6,0.6,1.3,0.5,2c0,0.7-0.1,1.5-0.5,2.2c-0.3,0.5-0.9,0.7-1.5,0.7c-0.8,0-1.5-0.4-1.8-1.2V13.5z"/>
	<path class="st1" d="M244.2,9.5v2.6c-1.1-1.1-2.8-1.2-4-0.2c-0.1,0.1-0.2,0.2-0.3,0.3c-0.6,0.8-0.9,1.8-0.8,2.8v0.1
		c0,1,0.3,2,0.8,2.8c0.5,0.7,1.3,1.1,2.2,1.1c0.8,0,1.6-0.3,2.2-1l0,0.8h1.2V9.5H244.2z M244.2,16.8c-0.3,0.7-1,1.1-1.8,1.1
		c-0.6,0-1.1-0.3-1.5-0.7c-0.4-0.6-0.6-1.3-0.5-2c0-0.7,0.1-1.5,0.5-2.2c0.4-0.5,0.9-0.8,1.5-0.7c0.7,0,1.5,0.4,1.8,1.1L244.2,16.8
		L244.2,16.8z"/>
</g>
</svg>
