<?xml version="1.0" encoding="utf-8"?>
<!-- Generator: Adobe Illustrator 24.2.1, SVG Export Plug-In . SVG Version: 6.00 Build 0)  -->
<svg version="1.1" id="Layer_1" xmlns="http://www.w3.org/2000/svg" xmlns:xlink="http://www.w3.org/1999/xlink" x="0px" y="0px"
	 viewBox="0 0 254 80" style="enable-background:new 0 0 254 80;" xml:space="preserve">
<style type="text/css">
	.st0{fill:#FFFFFF;stroke:#818285;stroke-miterlimit:10;}
	.st1{fill:none;}
	.st2{fill:url(#XMLID_2_);}
	.st3{fill:url(#XMLID_3_);}
	.st4{fill:url(#XMLID_4_);}
	.st5{fill:#167EC2;}
	.st6{fill:#010101;}
	.st7{fill:url(#XMLID_5_);}
	.st8{fill:url(#XMLID_6_);}
	.st9{fill:url(#XMLID_7_);}
	.st10{fill:url(#XMLID_8_);}
	.st11{fill:url(#XMLID_9_);}
	.st12{fill:url(#XMLID_10_);}
	.st13{fill:url(#XMLID_11_);}
	.st14{fill:url(#XMLID_12_);}
	.st15{fill:#050505;}
</style>
<g>
	<g>
		<path id="XMLID_1320_" class="st0" d="M60,39.7L30.2,10h0L0.8,39.8v0c0,0,18.4,18.5,18.3,18.5H4.3c-0.6,0-1.1,0.5-1.1,1.1v9.3
			c0,0.7,0.6,1.2,1.2,1.2h51.8c0.6,0,1.1-0.5,1.1-1.1v-9.6c0-0.6-0.4-1-1-1c0,0-14.7,0-14.7,0C41.6,58.3,60,39.7,60,39.7z"/>
		<g id="XMLID_42_">
			<g id="XMLID_1306_">
				<polygon id="XMLID_1319_" class="st1" points="31.4,55.9 29.8,57.8 31.2,57.8 33,55.9 				"/>
				<polygon id="XMLID_1318_" class="st1" points="35,55.9 33.3,57.8 34.8,57.8 36.5,55.9 				"/>
				<polygon id="XMLID_1317_" class="st1" points="27.9,55.9 26.2,57.8 27.7,57.8 29.5,55.9 				"/>
				<polygon id="XMLID_1316_" class="st1" points="24.4,55.9 22.7,57.8 24.2,57.8 26,55.9 				"/>
				<path id="XMLID_1313_" class="st1" d="M46.7,46.8c1.3,0,2.2-0.3,2.7-0.5l-0.2-1.1c-1.8,0.8-5.1,0.7-5-2.4h5.6
					c0.2-1.8-0.3-4.5-3.3-4.6C41.6,38.1,41.4,47.2,46.7,46.8z M46.3,39.4c1.6,0,2,1.5,2,2.4h-4.2C44.2,40.7,44.9,39.4,46.3,39.4z"/>
				
					<linearGradient id="XMLID_2_" gradientUnits="userSpaceOnUse" x1="934.0519" y1="-101.9839" x2="934.0519" y2="-82.0573" gradientTransform="matrix(2.6667 0 0 2.6667 -2454.0696 284.8676)">
					<stop  offset="0" style="stop-color:#2BACE2"/>
					<stop  offset="0.4095" style="stop-color:#1284C7"/>
					<stop  offset="0.8157" style="stop-color:#0F60AD"/>
					<stop  offset="1" style="stop-color:#07519F"/>
				</linearGradient>
				<path id="XMLID_1310_" class="st2" d="M24.4,55.9H26l-1.7,1.9h2l1.7-1.9h1.5l-1.7,1.9h2l1.7-1.9h1.5l-1.7,1.9h2l1.7-1.9h1.5
					l-1.7,1.9h5l12.3-12.3c-0.3-0.9-0.1-4.9-0.1-5.8h-1.2v-1.1h1.2v-2l1.4-0.4v2.4h2.1v1.1h-2.1c0,0.3,0,4.3,0,4.6l4.4-4.4
					L30.4,12.5L21,21.9c4.5-0.2,8.4,3.3,8.2,10l4.1-8.9h5.3l-9.5,19.1c-0.4,1-0.4,9.1,4.8,4.7c0,0,0,0,0.1-0.1c0-1.6,0-6.7-0.1-8.2
					h1.3l0.1,1.4h0c1.3-2.3,5.5-2.4,5.5,1.9v4.9h-1.5c-0.3-1.7,1.1-7.2-1.9-7.1c-1.2,0-2.1,1.1-2.1,2.2v4.7c0,0,0,0.2,0,0.2l0,0
					c-1.2,3.3-9.9,11.1-9-1.5c-2,3.6-6.6,6.7-10.7,7.4l4.3,4.3l0.8-0.9h1.5l-1.6,1.7l0.2,0.2h1.7L24.4,55.9z M46.5,38.3
					c2.9,0.1,3.5,2.8,3.3,4.6h-5.6c0,3.1,3.2,3.2,5,2.4l0.2,1.1C41.9,49.5,40.3,38.8,46.5,38.3z"/>
				
					<linearGradient id="XMLID_3_" gradientUnits="userSpaceOnUse" x1="922.4406" y1="-101.9839" x2="922.4406" y2="-82.057" gradientTransform="matrix(2.6667 0 0 2.6667 -2454.0696 284.8676)">
					<stop  offset="0" style="stop-color:#2BACE2"/>
					<stop  offset="0.4095" style="stop-color:#1284C7"/>
					<stop  offset="0.8157" style="stop-color:#0F60AD"/>
					<stop  offset="1" style="stop-color:#07519F"/>
				</linearGradient>
				<path id="XMLID_1309_" class="st3" d="M8.5,34.4l-5.4,5.4L7,43.7C7,41.2,7.4,38.1,8.5,34.4z"/>
				
					<linearGradient id="XMLID_4_" gradientUnits="userSpaceOnUse" x1="927.6786" y1="-101.9838" x2="927.6786" y2="-82.0572" gradientTransform="matrix(2.6667 0 0 2.6667 -2454.0696 284.8676)">
					<stop  offset="0" style="stop-color:#2BACE2"/>
					<stop  offset="0.4095" style="stop-color:#1284C7"/>
					<stop  offset="0.8157" style="stop-color:#0F60AD"/>
					<stop  offset="1" style="stop-color:#07519F"/>
				</linearGradient>
				<path id="XMLID_1308_" class="st4" d="M20.1,47.9c6.5-5.3,6.5-10.8,7.4-12.7c0.8-10.6-7.4-17.3-13.4-0.7
					C7.8,54.4,17.7,50,20.1,47.9z"/>
				<path id="XMLID_1307_" class="st5" d="M46.3,39.4c-1.5,0-2.1,1.4-2.2,2.4h4.3C48.4,40.8,48,39.4,46.3,39.4z"/>
			</g>
			<g id="XMLID_43_">
				<path id="XMLID_1303_" class="st6" d="M7.9,63h0.9v4.1H7.9v-0.8C6.8,68.1,4.2,67,4.3,65c-0.1-1.9,2.6-3.1,3.6-1.2L7.9,63L7.9,63
					z M8,65c0-1.8-2.8-1.8-2.7,0C5.2,66.8,8,66.8,8,65z"/>
				<path id="XMLID_1302_" class="st6" d="M10.1,60.6H11v6.5h-0.9V60.6z"/>
				<path id="XMLID_1299_" class="st6" d="M13.3,63v0.8c1.1-1.8,3.6-0.7,3.5,1.2c0.1,1.9-2.5,3.1-3.5,1.3V69h-0.9v-6H13.3z M15.9,65
					c0-1.8-2.8-1.7-2.8,0C13.1,66.8,15.9,66.8,15.9,65z"/>
				<path id="XMLID_1298_" class="st6" d="M17.7,60.6h0.9v3c0.8-1.2,2.7-1,2.7,0.6v2.9h-0.9c-0.1-0.5,0.2-2.9-0.2-3.2
					c-0.6-0.7-1.7,0.2-1.7,1v2.3h-0.9L17.7,60.6L17.7,60.6z"/>
				<path id="XMLID_1295_" class="st6" d="M25.9,63h0.9v4.1h-0.9v-0.8c-1.1,1.8-3.7,0.7-3.5-1.3c-0.1-1.9,2.6-3.1,3.6-1.2L25.9,63
					L25.9,63z M26,65c0-1.8-2.8-1.8-2.7,0C23.2,66.8,26,66.8,26,65z"/>
				<path id="XMLID_1294_" class="st6" d="M27.9,66.5c0-0.9,1.4-0.9,1.4,0C29.3,67.4,27.9,67.4,27.9,66.5z"/>
				<path id="XMLID_1293_" class="st6" d="M30.1,67.1v-4.1H31v0.7c0.8-1.2,2.6-1,2.7,0.5v3h-0.9c-0.1-0.4,0.2-3-0.2-3.3
					c-0.7-0.6-1.7,0.2-1.6,1V67L30.1,67.1L30.1,67.1L30.1,67.1z"/>
				<path id="XMLID_61_" class="st6" d="M38.9,65.2h-3.5c0.2,1.3,1.9,1.6,2.6,0.6l0.6,0.5c-1.2,1.7-4.2,0.9-4.1-1.3
					C34.6,62.1,39,62.2,38.9,65.2z M35.5,64.5H38C37.5,63.4,35.9,63.4,35.5,64.5z"/>
				<path id="XMLID_60_" class="st6" d="M40.2,61.8H41V63h0.9v0.8H41v3.3h-0.9v-3.3h-0.7V63h0.7V61.8z"/>
				<path id="XMLID_59_" class="st6" d="M42.5,66.5c0-0.9,1.4-0.9,1.4,0C43.9,67.4,42.5,67.4,42.5,66.5z"/>
				<path id="XMLID_47_" class="st6" d="M45,60.6h0.9v3.2c1-1.8,3.7-0.7,3.6,1.2c0.1,2-2.6,3-3.6,1.2v0.9H45L45,60.6L45,60.6z
					 M48.5,65c0-1.8-2.8-1.8-2.7,0C45.7,66.8,48.6,66.8,48.5,65z"/>
				<path id="XMLID_44_" class="st6" d="M54,60.6h0.9v6.5H54v-0.9c-1.1,1.9-3.7,0.7-3.6-1.3c-0.1-2,2.6-3,3.6-1.2L54,60.6L54,60.6
					L54,60.6z M54.1,65c0-1.8-2.8-1.8-2.8,0C51.3,66.8,54.1,66.8,54.1,65z"/>
			</g>
		</g>
	</g>
	<g id="XMLID_1426_">
		
			<linearGradient id="XMLID_5_" gradientUnits="userSpaceOnUse" x1="68.6846" y1="-371.7292" x2="92.3581" y2="-395.4028" gradientTransform="matrix(1 0 0 -1 0 -344.1654)">
			<stop  offset="0" style="stop-color:#00AEEF"/>
			<stop  offset="0.4095" style="stop-color:#0084CB"/>
			<stop  offset="0.8157" style="stop-color:#005EAD"/>
			<stop  offset="1" style="stop-color:#014EA2"/>
		</linearGradient>
		<path id="XMLID_1442_" class="st7" d="M93.6,46.3c-2-2-11.3-27.4-12.8-30.5h-0.4c-1.6,3.4-10.7,27.5-12.7,29.9
			c-0.7,0.8-1.5,1.2-2.5,1.4V48h9.5v-0.9c-6.1,0-3.2-4.7-2-8.1h10.1l1.5,3.9c1.5,3.2,0.8,4.3-2.6,4.2V48h13.8v-0.9
			C94.7,47.1,94.1,46.8,93.6,46.3z M73.5,37.3l4.4-10.8l4.3,10.8H73.5z"/>
		
			<linearGradient id="XMLID_6_" gradientUnits="userSpaceOnUse" x1="91.2205" y1="-366.4326" x2="112.3172" y2="-387.5293" gradientTransform="matrix(1 0 0 -1 0 -344.1654)">
			<stop  offset="0" style="stop-color:#00AEEF"/>
			<stop  offset="0.4095" style="stop-color:#0084CB"/>
			<stop  offset="0.8157" style="stop-color:#005EAD"/>
			<stop  offset="1" style="stop-color:#014EA2"/>
		</linearGradient>
		<path id="XMLID_1441_" class="st8" d="M107.7,47.2V48H97v-0.8c2.2-0.2,2.3-1.1,2.4-3.7c-0.2-1.8,0.6-24.4-0.5-25.4
			c-0.3-0.4-0.9-0.7-1.9-0.7v-0.9h8.3c0.2,1.6-0.6,29.4,0.5,29.9C106.1,46.8,106.8,47.1,107.7,47.2z"/>
		
			<linearGradient id="XMLID_7_" gradientUnits="userSpaceOnUse" x1="105.1963" y1="-374.1651" x2="126.7822" y2="-395.7511" gradientTransform="matrix(1 0 0 -1 0 -344.1654)">
			<stop  offset="0" style="stop-color:#00AEEF"/>
			<stop  offset="0.4095" style="stop-color:#0084CB"/>
			<stop  offset="0.8157" style="stop-color:#005EAD"/>
			<stop  offset="1" style="stop-color:#014EA2"/>
		</linearGradient>
		<path id="XMLID_1438_" class="st9" d="M129.4,31.3c-1.8-6-8.8-8.1-12.2-2.2v-2.9H109v0.9c2.4,0.3,2.3,1.1,2.4,3.7v22.9
			c0,2.6-0.1,3.4-2.4,3.6v0.9h11.3v-0.9c-2.6,0.1-3-0.9-3-3.4v-8.1c2.3,3.2,6.3,3.8,9.3,1.4C130.7,43.7,131.1,36.3,129.4,31.3z
			 M123,44.9c-1.6,2.6-4.1,1-5.8-1.5V31.8c0.9-2.3,2.1-3.4,3.5-3.4C125.5,28.6,124.4,42.4,123,44.9z"/>
		
			<linearGradient id="XMLID_8_" gradientUnits="userSpaceOnUse" x1="127.8033" y1="-366.4979" x2="154.2332" y2="-392.9278" gradientTransform="matrix(1 0 0 -1 0 -344.1654)">
			<stop  offset="0" style="stop-color:#00AEEF"/>
			<stop  offset="0.4095" style="stop-color:#0084CB"/>
			<stop  offset="0.8157" style="stop-color:#005EAD"/>
			<stop  offset="1" style="stop-color:#014EA2"/>
		</linearGradient>
		<path id="XMLID_1437_" class="st10" d="M155,47.2V48h-10v-0.8c2-0.5,1.9-1.4,2-3.9v-9.7c0-1.8-0.1-2.9-0.2-3.4c-1.1-3-4-0.8-5,1.4
			c0.1,2-0.3,13,0.3,14.5c0.3,0.5,0.8,0.8,1.6,1V48h-10v-0.8c2.3-0.4,2-1.1,2.1-3.9c-0.2-2,0.5-23.9-0.4-25.1
			c-0.3-0.4-0.8-0.7-1.7-0.8v-0.9h8.1V29c3.1-4.3,8.9-5,10.7,0.5c0.7,2.3,0.3,10.8,0.4,13.8C153,46,152.7,46.7,155,47.2z"/>
		
			<linearGradient id="XMLID_9_" gradientUnits="userSpaceOnUse" x1="158.6318" y1="-374.0015" x2="175.7151" y2="-391.0849" gradientTransform="matrix(1 0 0 -1 0 -344.1654)">
			<stop  offset="0" style="stop-color:#00AEEF"/>
			<stop  offset="0.4095" style="stop-color:#0084CB"/>
			<stop  offset="0.8157" style="stop-color:#005EAD"/>
			<stop  offset="1" style="stop-color:#014EA2"/>
		</linearGradient>
		<path id="XMLID_1434_" class="st11" d="M176.5,44.4c-1.5,2-2.2,0.2-2-1.8c-0.1-2.4,0.2-11.1-0.3-12.9c-0.9-2.6-3.4-4.3-6.6-4.2
			c-2.8,0-6.1,1-7.8,3.1c-2,2.2-1.4,6.1,1.9,6.1c1.6,0,2.8-1.2,2.8-2.7c0.2-1-1.3-2.2-1.4-3.1c0.1-1.2,1.6-1.6,2.8-1.6
			c3.4,0.1,2.6,4.1,2.7,6.9c-4.4,2.2-7.2,4-8.5,5.3c-5.3,6.1,1.1,13,8.5,5.2c0.5,5.1,6.7,4.2,8.5,0.2L176.5,44.4z M168.6,43.1
			c-4.4,4.2-7.6-2.8,0-7.3L168.6,43.1L168.6,43.1z"/>
		
			<linearGradient id="XMLID_10_" gradientUnits="userSpaceOnUse" x1="188.8465" y1="-361.1034" x2="217.8941" y2="-390.1511" gradientTransform="matrix(1 0 0 -1 0 -344.1654)">
			<stop  offset="0" style="stop-color:#00AEEF"/>
			<stop  offset="0.4095" style="stop-color:#0084CB"/>
			<stop  offset="0.8157" style="stop-color:#005EAD"/>
			<stop  offset="1" style="stop-color:#014EA2"/>
		</linearGradient>
		<path id="XMLID_1433_" class="st12" d="M218.9,16.5v0.9c-2,0.3-2.7,0.4-3.4,2c-0.7,0.9-0.2,27.6-0.3,29.4h-0.7l-19.4-26.3v20
			c-0.1,3.3,1.6,4.8,4.4,4.6V48h-10.2v-0.9c1.6,0,2.7-0.4,3.3-1.1c1.9-1.5,0.5-23.4,0.9-25.8c-1.2-1.7-2-3-4.2-2.9v-0.9h10.2
			L213.6,36c-0.3-2.6,0.7-15.4-0.7-17.4c-0.7-0.9-1.8-1.3-3.4-1.3v-0.9H218.9z"/>
		
			<linearGradient id="XMLID_11_" gradientUnits="userSpaceOnUse" x1="222.9809" y1="-374.2219" x2="237.3327" y2="-388.5737" gradientTransform="matrix(1 0 0 -1 0 -344.1654)">
			<stop  offset="0" style="stop-color:#00AEEF"/>
			<stop  offset="0.4095" style="stop-color:#0084CB"/>
			<stop  offset="0.8157" style="stop-color:#005EAD"/>
			<stop  offset="1" style="stop-color:#014EA2"/>
		</linearGradient>
		<path id="XMLID_1428_" class="st13" d="M235.2,44.3c-4.9,3-7.9-3.3-7.9-8h10.8c-0.2-15.7-16.9-13-16.5,1.1
			c-0.5,11.5,11.8,16,16.5,4.6l-0.7-0.5C236.6,42.9,235.9,43.8,235.2,44.3z M227.2,34c0.1-9.7,6.4-9,5.7,0.8h-5.7V34z"/>
		
			<linearGradient id="XMLID_12_" gradientUnits="userSpaceOnUse" x1="239.8494" y1="-370.3651" x2="255.8846" y2="-386.4002" gradientTransform="matrix(1 0 0 -1 0 -344.1654)">
			<stop  offset="0" style="stop-color:#00AEEF"/>
			<stop  offset="0.4095" style="stop-color:#0084CB"/>
			<stop  offset="0.8157" style="stop-color:#005EAD"/>
			<stop  offset="1" style="stop-color:#014EA2"/>
		</linearGradient>
		<path id="XMLID_1427_" class="st14" d="M248.5,28.6c0.1,1.7-0.2,14.5,0.2,15.8c0.9,2.2,2.8,1.1,3.9-1.1l0.6,0.5
			c-1.6,5.6-8.8,6-10.4,0.8c-0.4-1.9-0.1-13.5-0.2-16h-2.6v-0.8c3.5-2.7,5.9-5.5,7.8-9.4h0.7v7.9h4.7v2.3H248.5z"/>
	</g>
	<g>
		<path class="st15" d="M71.4,67.2L71.4,67.2c0,0.8-0.2,1.5-0.8,2c-0.6,0.5-1.3,0.8-2.2,0.8c-0.9,0-1.7-0.3-2.3-1
			c-0.6-0.7-0.9-1.5-0.9-2.5V65c0-1,0.3-1.9,0.9-2.5c0.6-0.7,1.4-1,2.3-1s1.7,0.2,2.2,0.8c0.6,0.5,0.8,1.2,0.8,2l0,0h-1.1
			c0-0.6-0.2-1-0.5-1.4s-0.8-0.5-1.4-0.5c-0.6,0-1.1,0.2-1.5,0.8c-0.4,0.5-0.6,1.1-0.6,1.9v1.5c0,0.8,0.2,1.4,0.6,1.9
			c0.4,0.5,0.9,0.8,1.5,0.8c0.6,0,1.1-0.2,1.4-0.5c0.3-0.3,0.5-0.8,0.5-1.4H71.4L71.4,67.2z"/>
		<path class="st15" d="M74,69h4v0.9h-5.1v-8.3H74V69z"/>
		<path class="st15" d="M85.2,66.4c0,1-0.3,1.8-0.9,2.5c-0.6,0.7-1.4,1-2.4,1c-1,0-1.7-0.3-2.3-1c-0.6-0.7-0.9-1.5-0.9-2.5V65
			c0-1,0.3-1.8,0.9-2.5s1.4-1,2.3-1c1,0,1.8,0.3,2.4,1s0.9,1.5,0.9,2.5V66.4z M84.1,65c0-0.8-0.2-1.4-0.6-1.9s-1-0.7-1.6-0.7
			c-0.7,0-1.2,0.2-1.5,0.7c-0.4,0.5-0.6,1.1-0.6,1.9v1.5c0,0.8,0.2,1.4,0.6,1.9c0.4,0.5,0.9,0.7,1.5,0.7c0.7,0,1.2-0.2,1.6-0.7
			c0.4-0.5,0.6-1.1,0.6-1.9L84.1,65L84.1,65z"/>
		<path class="st15" d="M92.9,61.6v5.5c0,0.9-0.3,1.6-0.9,2.1c-0.6,0.5-1.4,0.8-2.3,0.8c-0.9,0-1.6-0.3-2.2-0.8
			c-0.6-0.5-0.8-1.2-0.8-2.1v-5.5h1.1v5.5c0,0.6,0.2,1.1,0.5,1.5c0.4,0.4,0.8,0.5,1.4,0.5c0.6,0,1.1-0.2,1.5-0.5s0.6-0.8,0.6-1.5
			v-5.5H92.9z"/>
		<path class="st15" d="M94.6,69.8v-8.3h2.6c1.1,0,1.9,0.3,2.6,1s1,1.5,1,2.6v1.1c0,1.1-0.3,1.9-1,2.6c-0.7,0.7-1.5,1-2.6,1
			L94.6,69.8L94.6,69.8z M95.8,62.5V69h1.5c0.8,0,1.4-0.2,1.8-0.8c0.4-0.5,0.7-1.1,0.7-1.9v-1.1c0-0.8-0.2-1.4-0.7-1.9
			c-0.4-0.5-1-0.8-1.8-0.8H95.8z"/>
		<path class="st15" d="M104.8,67.6c0-0.5,0.1-0.9,0.4-1.2c0.3-0.3,0.7-0.7,1.2-1c-0.3-0.4-0.5-0.7-0.7-1c-0.1-0.3-0.2-0.6-0.2-0.9
			c0-0.6,0.2-1.1,0.6-1.5c0.4-0.3,0.9-0.5,1.5-0.5c0.6,0,1.1,0.2,1.5,0.5c0.4,0.3,0.6,0.8,0.6,1.2c0,0.4-0.1,0.7-0.3,1
			c-0.2,0.3-0.5,0.6-0.9,0.8l-0.6,0.5l1.9,2.3c0.1-0.2,0.3-0.5,0.4-0.8s0.1-0.6,0.1-0.9h1c0,0.5-0.1,1-0.2,1.4
			c-0.1,0.4-0.4,0.8-0.6,1.1l1,1.3l0,0H110l-0.5-0.6c-0.3,0.2-0.6,0.4-1,0.5c-0.4,0.1-0.8,0.2-1.1,0.2c-0.8,0-1.5-0.2-2-0.7
			C105,68.9,104.8,68.3,104.8,67.6z M107.5,69.1c0.3,0,0.5,0,0.8-0.1c0.3-0.1,0.5-0.2,0.8-0.4l-2-2.5l-0.2,0.2
			c-0.3,0.3-0.6,0.5-0.7,0.7c-0.1,0.2-0.2,0.4-0.2,0.6c0,0.4,0.1,0.8,0.4,1.1C106.6,68.9,106.9,69.1,107.5,69.1z M106.6,63.4
			c0,0.2,0,0.4,0.1,0.6c0.1,0.2,0.3,0.5,0.5,0.7l0.8-0.5c0.2-0.1,0.4-0.3,0.4-0.5c0.1-0.2,0.1-0.4,0.1-0.6c0-0.2-0.1-0.4-0.3-0.6
			c-0.2-0.2-0.4-0.3-0.7-0.3c-0.3,0-0.5,0.1-0.7,0.3C106.7,62.9,106.6,63.1,106.6,63.4z"/>
		<path class="st15" d="M121.3,62.5h-2.7v7.4h-1.1v-7.4h-2.7v-0.9h6.5L121.3,62.5L121.3,62.5z"/>
		<path class="st15" d="M126.9,66h-3.4v3h4v0.9h-5.1v-8.3h5v0.9h-3.9v2.7h3.4L126.9,66L126.9,66z"/>
		<path class="st15" d="M134.7,67.2L134.7,67.2c0,0.8-0.2,1.5-0.8,2s-1.3,0.8-2.2,0.8c-0.9,0-1.7-0.3-2.3-1
			c-0.6-0.7-0.9-1.5-0.9-2.5V65c0-1,0.3-1.9,0.9-2.5c0.6-0.7,1.4-1,2.3-1s1.7,0.2,2.2,0.8c0.6,0.5,0.8,1.2,0.8,2l0,0h-1.1
			c0-0.6-0.2-1-0.5-1.4s-0.8-0.5-1.4-0.5s-1.1,0.2-1.5,0.8c-0.4,0.5-0.6,1.1-0.6,1.9v1.5c0,0.8,0.2,1.4,0.6,1.9
			c0.4,0.5,0.9,0.8,1.5,0.8s1.1-0.2,1.4-0.5s0.5-0.8,0.5-1.4H134.7L134.7,67.2z"/>
		<path class="st15" d="M142.4,69.8h-1.1v-3.6h-4v3.6h-1.1v-8.3h1.1v3.7h4v-3.7h1.1V69.8z"/>
		<path class="st15" d="M150.6,69.8h-1.1l-4-6.3l0,0v6.3h-1.1v-8.3h1.1l4,6.3l0,0v-6.3h1.1V69.8z"/>
		<path class="st15" d="M158.8,66.4c0,1-0.3,1.8-0.9,2.5c-0.6,0.7-1.4,1-2.4,1c-1,0-1.7-0.3-2.3-1c-0.6-0.7-0.9-1.5-0.9-2.5V65
			c0-1,0.3-1.8,0.9-2.5c0.6-0.7,1.4-1,2.3-1c1,0,1.8,0.3,2.4,1c0.6,0.7,0.9,1.5,0.9,2.5V66.4z M157.7,65c0-0.8-0.2-1.4-0.6-1.9
			s-1-0.7-1.6-0.7c-0.7,0-1.2,0.2-1.5,0.7c-0.4,0.5-0.6,1.1-0.6,1.9v1.5c0,0.8,0.2,1.4,0.6,1.9c0.4,0.5,0.9,0.7,1.5,0.7
			c0.7,0,1.2-0.2,1.6-0.7c0.4-0.5,0.6-1.1,0.6-1.9L157.7,65L157.7,65z"/>
		<path class="st15" d="M161.5,69h4v0.9h-5.1v-8.3h1.1V69z"/>
		<path class="st15" d="M172.7,66.4c0,1-0.3,1.8-0.9,2.5c-0.6,0.7-1.4,1-2.4,1c-1,0-1.7-0.3-2.3-1c-0.6-0.7-0.9-1.5-0.9-2.5V65
			c0-1,0.3-1.8,0.9-2.5s1.4-1,2.3-1c1,0,1.8,0.3,2.4,1s0.9,1.5,0.9,2.5V66.4z M171.6,65c0-0.8-0.2-1.4-0.6-1.9s-1-0.7-1.6-0.7
			c-0.7,0-1.2,0.2-1.5,0.7c-0.4,0.5-0.6,1.1-0.6,1.9v1.5c0,0.8,0.2,1.4,0.6,1.9c0.4,0.5,0.9,0.7,1.5,0.7c0.7,0,1.2-0.2,1.6-0.7
			c0.4-0.5,0.6-1.1,0.6-1.9L171.6,65L171.6,65z"/>
		<path class="st15" d="M180.3,68.7c-0.2,0.3-0.5,0.6-1,0.8s-1.1,0.4-1.9,0.4c-0.9,0-1.7-0.3-2.4-0.9s-0.9-1.5-0.9-2.4v-1.7
			c0-1,0.3-1.8,0.9-2.4s1.4-0.9,2.3-0.9c0.9,0,1.6,0.2,2.2,0.7c0.5,0.5,0.8,1.1,0.8,1.9l0,0h-1.1c0-0.5-0.2-0.9-0.5-1.3
			c-0.3-0.3-0.8-0.5-1.4-0.5c-0.6,0-1.1,0.2-1.5,0.7c-0.4,0.5-0.6,1.1-0.6,1.8v1.7c0,0.7,0.2,1.3,0.6,1.8c0.4,0.5,0.9,0.7,1.6,0.7
			c0.5,0,0.9-0.1,1.2-0.2s0.5-0.3,0.6-0.5v-1.9h-1.9v-0.9h3L180.3,68.7L180.3,68.7z"/>
		<path class="st15" d="M184.9,65.8l2.2-4.2h1.3l-2.9,5.3v2.9h-1.1v-3l-2.9-5.3h1.3L184.9,65.8z"/>
		<path class="st15" d="M196.8,67.8c0-0.4-0.1-0.7-0.4-0.9c-0.3-0.3-0.7-0.5-1.4-0.7c-0.8-0.2-1.5-0.5-2-0.9
			c-0.5-0.4-0.7-0.9-0.7-1.5c0-0.7,0.3-1.2,0.8-1.6c0.5-0.4,1.2-0.7,2-0.7c0.9,0,1.6,0.2,2.1,0.7c0.5,0.5,0.8,1.1,0.8,1.7l0,0h-1.1
			c0-0.5-0.2-0.8-0.5-1.2c-0.3-0.3-0.8-0.5-1.3-0.5c-0.5,0-0.9,0.1-1.2,0.4c-0.3,0.3-0.4,0.6-0.4,1c0,0.4,0.1,0.7,0.5,0.9
			c0.3,0.2,0.8,0.5,1.5,0.6c0.8,0.2,1.5,0.5,1.9,0.9c0.4,0.4,0.7,0.9,0.7,1.5c0,0.7-0.3,1.2-0.8,1.6c-0.5,0.4-1.2,0.6-2.1,0.6
			c-0.8,0-1.5-0.2-2.1-0.7c-0.6-0.4-0.9-1-0.9-1.8l0,0h1.1c0,0.5,0.2,0.9,0.6,1.2c0.4,0.3,0.8,0.4,1.3,0.4c0.5,0,0.9-0.1,1.3-0.4
			C196.7,68.5,196.8,68.2,196.8,67.8z"/>
		<path class="st15" d="M205.8,66.4c0,1-0.3,1.8-0.9,2.5c-0.6,0.7-1.4,1-2.4,1c-1,0-1.7-0.3-2.3-1c-0.6-0.7-0.9-1.5-0.9-2.5V65
			c0-1,0.3-1.8,0.9-2.5c0.6-0.7,1.4-1,2.3-1c1,0,1.8,0.3,2.4,1s0.9,1.5,0.9,2.5V66.4z M204.7,65c0-0.8-0.2-1.4-0.6-1.9
			s-1-0.7-1.6-0.7c-0.7,0-1.2,0.2-1.5,0.7c-0.4,0.5-0.6,1.1-0.6,1.9v1.5c0,0.8,0.2,1.4,0.6,1.9c0.4,0.5,0.9,0.7,1.5,0.7
			c0.7,0,1.2-0.2,1.6-0.7c0.4-0.5,0.6-1.1,0.6-1.9L204.7,65L204.7,65z"/>
		<path class="st15" d="M208.5,69h4v0.9h-5.1v-8.3h1.1V69z"/>
		<path class="st15" d="M219.6,61.6v5.5c0,0.9-0.3,1.6-0.9,2.1c-0.6,0.5-1.4,0.8-2.3,0.8c-0.9,0-1.6-0.3-2.2-0.8
			c-0.6-0.5-0.8-1.2-0.8-2.1v-5.5h1.1v5.5c0,0.6,0.2,1.1,0.5,1.5c0.4,0.4,0.8,0.5,1.4,0.5c0.6,0,1.1-0.2,1.5-0.5
			c0.4-0.4,0.6-0.8,0.6-1.5v-5.5H219.6z"/>
		<path class="st15" d="M227.1,62.5h-2.7v7.4h-1.1v-7.4h-2.7v-0.9h6.5L227.1,62.5L227.1,62.5z"/>
		<path class="st15" d="M229.5,69.8h-1.1v-8.3h1.1V69.8z"/>
		<path class="st15" d="M237.9,66.4c0,1-0.3,1.8-0.9,2.5c-0.6,0.7-1.4,1-2.4,1c-1,0-1.7-0.3-2.3-1c-0.6-0.7-0.9-1.5-0.9-2.5V65
			c0-1,0.3-1.8,0.9-2.5c0.6-0.7,1.4-1,2.3-1c1,0,1.8,0.3,2.4,1s0.9,1.5,0.9,2.5V66.4z M236.7,65c0-0.8-0.2-1.4-0.6-1.9
			s-1-0.7-1.6-0.7c-0.7,0-1.2,0.2-1.5,0.7c-0.4,0.5-0.6,1.1-0.6,1.9v1.5c0,0.8,0.2,1.4,0.6,1.9c0.4,0.5,0.9,0.7,1.5,0.7
			c0.7,0,1.2-0.2,1.6-0.7c0.4-0.5,0.6-1.1,0.6-1.9L236.7,65L236.7,65z"/>
		<path class="st15" d="M245.7,69.8h-1.1l-4-6.3l0,0v6.3h-1.1v-8.3h1.1l4,6.3l0,0v-6.3h1.1V69.8z"/>
		<path class="st15" d="M252,67.8c0-0.4-0.1-0.7-0.4-0.9c-0.3-0.3-0.7-0.5-1.4-0.7c-0.8-0.2-1.5-0.5-2-0.9c-0.5-0.4-0.7-0.9-0.7-1.5
			c0-0.7,0.3-1.2,0.8-1.6s1.2-0.7,2-0.7c0.9,0,1.6,0.2,2.1,0.7c0.5,0.5,0.8,1.1,0.8,1.7l0,0H252c0-0.5-0.2-0.8-0.5-1.2
			c-0.3-0.3-0.8-0.5-1.3-0.5c-0.5,0-0.9,0.1-1.2,0.4c-0.3,0.3-0.4,0.6-0.4,1c0,0.4,0.1,0.7,0.5,0.9c0.3,0.2,0.8,0.5,1.5,0.6
			c0.8,0.2,1.5,0.5,1.9,0.9c0.4,0.4,0.7,0.9,0.7,1.5c0,0.7-0.3,1.2-0.8,1.6c-0.5,0.4-1.2,0.6-2.1,0.6c-0.8,0-1.5-0.2-2.1-0.7
			c-0.6-0.4-0.9-1-0.9-1.8l0,0h1.1c0,0.5,0.2,0.9,0.6,1.2s0.8,0.4,1.3,0.4c0.5,0,0.9-0.1,1.3-0.4C251.9,68.5,252,68.2,252,67.8z"/>
	</g>
</g>
</svg>
