<?xml version="1.0" encoding="utf-8"?>
<!-- Generator: Adobe Illustrator 24.2.1, SVG Export Plug-In . SVG Version: 6.00 Build 0)  -->
<svg version="1.1" id="Layer_1" xmlns="http://www.w3.org/2000/svg" xmlns:xlink="http://www.w3.org/1999/xlink" x="0px" y="0px"
	 viewBox="0 0 260 80" style="enable-background:new 0 0 260 80;" xml:space="preserve">
<style type="text/css">
	.st0{fill:none;stroke:#B9999C;stroke-width:2;}
	.st1{fill:none;stroke:#A4CDDF;stroke-width:2;}
	.st2{fill:#FFFFFF;}
	.st3{fill:#723339;}
	.st4{fill:#499ABF;}
</style>
<g>
	<path vector-effect="non-scaling-stroke" class="st0" d="M25.8,54.3v5c0,0.5,0.3,0.8,0.8,0.8l9.6,0c0.4,0,0.7-0.3,0.7-0.6v0V3.5
		c0-0.5-0.3-0.8-0.8-0.8H25.6C25.2,2.8,25,3,25,3.4v17.1c0,0.6-0.2,0.7-0.6,0.2c-2.3-2.8-4.9-4.1-8-3.8C6.6,17.6,3.7,25.8,2.7,34.7
		C1.8,43.2,3.5,59.9,15,60.5c4.7,0.3,8.1-1.9,10.3-6.4C25.6,53.5,25.8,53.5,25.8,54.3"/>
	<path vector-effect="non-scaling-stroke" class="st0" d="M97.5,2.9c0-0.2-0.2-0.4-0.4-0.4c0,0,0,0,0,0l-10.9,0
		c-0.2,0-0.4,0.2-0.4,0.4c0,0,0,0,0,0l0,10.9c0,0.2,0.2,0.4,0.4,0.4c0,0,0,0,0,0l10.9,0c0.2,0,0.4-0.2,0.4-0.4c0,0,0,0,0,0L97.5,2.9
		"/>
	<path vector-effect="non-scaling-stroke" class="st0" d="M81.1,75c13.1,2.4,16.3-3.2,16.4-15.2c0.1-8.8,0.1-22.6,0-41.5
		c0-0.3-0.2-0.5-0.5-0.5H86.3c-0.3,0-0.5,0.2-0.5,0.5c0,14.4-0.1,28.8-0.3,43.2c0,3.1-1.5,4.3-4.5,3.7c-0.3-0.1-0.7,0.1-0.8,0.5
		c0,0,0,0.1,0,0.1V74C80.3,74.5,80.6,74.9,81.1,75"/>
	<path vector-effect="non-scaling-stroke" class="st0" d="M21.8,25.2c-3.9-1.7-5.9,1.2-6.5,4.8c-0.7,4.2-1.9,19,2.3,21.6
		c5.8,3.6,7.2-4.5,7.3-8.1C25,37.9,26.1,27.1,21.8,25.2"/>
	<path vector-effect="non-scaling-stroke" class="st0" d="M46.4,53c7.1,12.5,26.7,10.2,30.3-3.8c2.7-10.3,2.3-27.6-10-31.6
		c-4.9-1.6-9.7-1.2-14.4,1.1C41.8,23.9,41.7,44.7,46.4,53"/>
	<path vector-effect="non-scaling-stroke" class="st0" d="M109.7,57.3c6.3,4.9,16.2,5.1,22.1-0.2c5.5-4.8,6.4-13.5,6.1-20.3
		c-0.4-8.5-2.7-16.5-11.3-19.3c-4.8-1.5-9.5-1.2-14.2,1.2C101.3,24.1,100.5,50,109.7,57.3"/>
	<path vector-effect="non-scaling-stroke" class="st0" d="M162.7,46.8c4.8,6.4-8.5,10.3-10.4,0.9c-0.1-0.4-0.3-0.5-0.7-0.5l-8.2,1.3
		c-0.3,0-0.5,0.2-0.5,0.6c1.1,12.9,18.2,15,26.6,8.5c7.8-6.1,6-18.4-3.5-21.9c-4.3-1.6-14.3-3.3-10.1-10.3c0.2-0.3,0.5-0.5,0.9-0.6
		c4-0.7,6.5,1,7.6,4.9c0.1,0.3,0.4,0.5,0.8,0.4c0,0,0,0,0,0l7.4-2.1c0.5-0.1,0.6-0.4,0.5-0.9c-2.9-7.5-8.1-10.9-15.4-10.2
		c-6.9,0.7-12.4,4.3-13.5,11.4c-1.5,10.4,6.9,13.5,15.5,16.6C161.2,45.4,162.2,46,162.7,46.8"/>
	<path vector-effect="non-scaling-stroke" class="st1" d="M225,36.3h-1.6c-0.4,0-0.6,0.2-0.6,0.6v3.6c0,0.5,0.3,0.8,0.8,0.8h1.5
		c0.3,0,0.5,0.2,0.5,0.5v17.5c0,0.4,0.3,0.7,0.7,0.7l5.1,0c0.4,0,0.7-0.3,0.7-0.7v0V42c0-0.5,0.3-0.8,0.8-0.8h2.8
		c0.5,0,0.8-0.3,0.8-0.8v-3.6c0-0.4-0.2-0.6-0.6-0.6h-3.1c-0.5,0-0.7-0.3-0.6-0.8l0.5-2.7c0.1-0.4,0.3-0.6,0.8-0.7l2.9-0.2
		c0.3,0,0.5-0.2,0.4-0.5v-3.7c0-0.4-0.2-0.6-0.6-0.7c-7.6-1.8-9.8,2.5-10.5,8.8C225.4,36.1,225.3,36.3,225,36.3"/>
	<path vector-effect="non-scaling-stroke" class="st1" d="M197,28.2c0-0.2-0.2-0.4-0.4-0.4c0,0,0,0,0,0l-5.6,0
		c-0.2,0-0.4,0.2-0.4,0.4c0,0,0,0,0,0l0,5.6c0,0.2,0.2,0.4,0.4,0.4c0,0,0,0,0,0l5.6,0c0.2,0,0.4-0.2,0.4-0.4c0,0,0,0,0,0L197,28.2"
		/>
	<path vector-effect="non-scaling-stroke" class="st1" d="M207.8,37l0-0.4c0-0.2-0.2-0.4-0.4-0.4h-5.2c-0.4,0-0.6,0.2-0.6,0.6v22.4
		c0,0.5,0.2,0.7,0.7,0.7l5.2,0c0.3,0,0.6-0.3,0.6-0.6c0-5.1,0.1-10.2,0.3-15.3c0.2-4.6,5.2-4.4,5.2-0.6c0,5.2,0,10.4,0,15.7
		c0,0.5,0.3,0.8,0.8,0.8l5.1,0c0.4,0,0.6-0.3,0.6-0.6c0-5,1.1-16.4-0.9-20.6c-1.8-3.6-6.8-4-9.9-1.3C208.4,38.2,207.9,38,207.8,37"
		/>
	<path vector-effect="non-scaling-stroke" class="st1" d="M256.3,44.6c0-4.7-3.8-8.6-8.5-8.6c0,0,0,0,0,0l-1.4,0
		c-4.7,0-8.6,3.8-8.6,8.5c0,0,0,0,0,0l-0.1,7.3c0,4.7,3.8,8.6,8.5,8.6c0,0,0,0,0,0l1.4,0c4.7,0,8.6-3.8,8.6-8.5c0,0,0,0,0,0
		L256.3,44.6"/>
	<path vector-effect="non-scaling-stroke" class="st1" d="M197,36.8c0-0.3-0.3-0.6-0.6-0.6h-5.4c-0.3,0-0.6,0.3-0.6,0.6v22.6
		c0,0.3,0.3,0.6,0.6,0.6h5.4c0.3,0,0.6-0.3,0.6-0.6V36.8"/>
	<path vector-effect="non-scaling-stroke" class="st1" d="M185.2,53.7c0-0.4-0.3-0.7-0.7-0.7l-5.1,0c-0.4,0-0.7,0.3-0.7,0.7l0,5.6
		c0,0.4,0.3,0.7,0.7,0.7l5.1,0c0.4,0,0.7-0.3,0.7-0.7L185.2,53.7"/>
	<path vector-effect="non-scaling-stroke" class="st0" d="M56.6,49.2c0.9,5.2,7.6,4.5,8.4-0.7c1-6.3,1-12.7,0.1-19.1
		c-0.8-5.4-7.4-6-8.5-0.9C55.3,34.8,55.3,41.6,56.6,49.2"/>
	<path vector-effect="non-scaling-stroke" class="st0" d="M116.7,49.2c0.6,3.4,4.4,4.6,6.7,2.6c3.3-2.9,3.8-23.8-0.9-26.3
		c-2.4-1.3-5.4,0.4-6,3.1C115.3,35,115.3,41.9,116.7,49.2"/>
	<path vector-effect="non-scaling-stroke" class="st1" d="M246.5,55.9c1.1,0.3,2.2-0.2,2.5-1.3c0,0,0-0.1,0-0.2
		c0.6-2.3,2.5-15.5-3.1-13.8c-0.5,0.2-0.9,0.6-1.1,1.1C244.3,44.4,243,54.8,246.5,55.9"/>
</g>
<path class="st2" d="M23.4,0H38c1.1,1.4,1.7,2.6,1.7,3.8c0,18.7,0,37.1,0,55.3c0,2.1-1.7,3.9-3.8,3.9c-2.9,0-10.2,0.8-12-1.2
	c-0.2-0.2-0.5-0.3-0.8-0.1C9.7,67.9,2,57.8,0,45.9V31.2c2.3-11.5,8.6-19.4,21.5-16.5c0.5,0.1,0.7-0.1,0.6-0.6C21.6,8.7,22,4,23.4,0z
	 M25.8,54.3v5c0,0.5,0.3,0.8,0.8,0.8l9.6,0c0.4,0,0.7-0.3,0.7-0.6v0V3.5c0-0.5-0.3-0.8-0.8-0.8H25.6C25.2,2.8,25,3,25,3.4v17.1
	c0,0.6-0.2,0.7-0.6,0.2c-2.3-2.8-4.9-4.1-8-3.8C6.6,17.6,3.7,25.8,2.7,34.7C1.8,43.2,3.5,59.9,15,60.5c4.7,0.3,8.1-1.9,10.3-6.4
	C25.6,53.5,25.8,53.5,25.8,54.3z"/>
<path class="st2" d="M83.9,0h15.4c1.4,4.5,1.7,9.6,0.8,14.6c-0.4,1.9,0.5,3.3,0.4,4.9c-0.3,13.3-0.3,26.7,0,40
	c0.3,13.6-5.2,21.5-19.9,18.3c-3.8-0.8-3.4-2.9-3.5-6.4c-0.1-2.2,0.1-4.5,0.4-6.7c0-0.3,0.2-0.6,0.4-0.9c1.2-1.1,2.6-1.6,4.2-1.5
	c0.3,0,0.5-0.1,0.5-0.5c0-14.2,0-28.4,0-42.5c0-2,0.5-2.8,0.1-5.3C82,9.3,82.4,4.6,83.9,0z M97.5,2.9c0-0.2-0.2-0.4-0.4-0.4
	c0,0,0,0,0,0l-10.9,0c-0.2,0-0.4,0.2-0.4,0.4c0,0,0,0,0,0l0,10.9c0,0.2,0.2,0.4,0.4,0.4c0,0,0,0,0,0l10.9,0c0.2,0,0.4-0.2,0.4-0.4
	c0,0,0,0,0,0L97.5,2.9z M81.1,75c13.1,2.4,16.3-3.2,16.4-15.2c0.1-8.8,0.1-22.6,0-41.5c0-0.3-0.2-0.5-0.5-0.5H86.3
	c-0.3,0-0.5,0.2-0.5,0.5c0,14.4-0.1,28.8-0.3,43.2c0,3.1-1.5,4.3-4.5,3.7c-0.3-0.1-0.7,0.1-0.8,0.5c0,0,0,0.1,0,0.1V74
	C80.3,74.5,80.6,74.9,81.1,75z"/>
<path class="st3" d="M86.2,2.5l10.9,0c0.2,0,0.4,0.2,0.4,0.4l0,10.9c0,0.2-0.2,0.4-0.4,0.4l-10.9,0c-0.2,0-0.4-0.2-0.4-0.4l0-10.9
	C85.7,2.7,85.9,2.5,86.2,2.5z"/>
<path class="st3" d="M25.3,54.1c-2.1,4.5-5.6,6.7-10.3,6.4C3.5,59.9,1.8,43.2,2.7,34.7c1-8.9,3.9-17.1,13.8-17.8c3-0.2,5.7,1,8,3.8
	c0.4,0.5,0.6,0.4,0.6-0.2V3.4c0-0.4,0.2-0.6,0.6-0.6H36c0.5,0,0.8,0.3,0.8,0.8v55.8c0,0.4-0.3,0.7-0.6,0.7h0l-9.6,0
	c-0.5,0-0.8-0.3-0.8-0.8v-5C25.8,53.5,25.6,53.5,25.3,54.1z M21.8,25.2c-3.9-1.7-5.9,1.2-6.5,4.8c-0.7,4.2-1.9,19,2.3,21.6
	c5.8,3.6,7.2-4.5,7.3-8.1C25,37.9,26.1,27.1,21.8,25.2z"/>
<path class="st2" d="M47.4,59.3c-9.1-7.5-9-30.7-1.3-39.6c5.1-5.8,14.3-7.3,21.4-5C82.8,19.7,83,40.8,78.4,53
	C73.7,65.4,56.9,67,47.4,59.3z M46.4,53c7.1,12.5,26.7,10.2,30.3-3.8c2.7-10.3,2.3-27.6-10-31.6c-4.9-1.6-9.7-1.2-14.4,1.1
	C41.8,23.9,41.7,44.7,46.4,53z"/>
<path class="st2" d="M150,44.4C141.4,39,139,31.9,142.8,23c5.8-13.2,27.9-12.1,32.6,1.8c2.3,6.6-3.7,6.3-7.9,7.6
	c-0.5,0.2-0.5,0.3,0,0.5c7.5,3.1,10.7,8.8,9.9,17c0,0.3,0.1,0.4,0.4,0.4c2.9-0.4,7.1-1.1,9.7,0.9c0.2,0.1,0.3,0.1,0.2-0.1
	c-0.2-3.8-0.2-7.7-0.1-11.5c0.1-3.2-0.5-9.1,0.6-13.6c0.1-0.3,0.3-0.6,0.6-0.7c3.4-0.9,6.3-1.1,8.7-0.4c3.2,0.9,2.5,6.1,2.5,8.5
	c0,0.4,0.2,0.5,0.5,0.4c2.7-0.9,5.5-1,8.2-0.1c0.3,0.1,0.6,0.1,0.9-0.1c3.4-1.5,6.6-1.3,9.6,0.8c1,0.7,2.4,0.4,3.1-0.6
	c0.2-0.3,0.3-0.6,0.4-0.9c1-7,5.3-10,13.1-9c4.7,0.6,4.3,7.3,2.6,10.1c-0.2,0.4-0.1,0.8,0.3,1c0.2,0.1,0.5,0.1,0.7,0
	c5.2-2.9,9.9-3,14.3-0.4c6.8,4.1,6.7,15.1,4.3,21.6c-3.7,10.2-19.8,9.4-22.4-1.1c0-0.1-0.2-0.2-0.3-0.2c-0.1,0-0.2,0.1-0.2,0.2
	c-0.3,3,0.9,6.7-3,7.5c-3.5,0.8-6.6,0.3-9.1-1.3c-0.2-0.2-0.5-0.1-0.6,0.1c-2.1,2.9-9,1.3-11.4-0.1c-0.2-0.2-0.5-0.1-0.6,0.1
	c-1.8,2.5-8.2,1.5-10.4,0.5c-0.3-0.1-0.6-0.1-0.9,0c-3.8,1.6-7.5,1.4-11-0.6c-0.3-0.2-0.5-0.1-0.7,0.1c-2.1,2.4-9.4,1.9-10.9-0.4
	c-1-1.5-0.6-4.2-0.6-6.1c0-0.4-0.1-0.4-0.3-0.1c-6.7,11.5-27.5,12.8-33.8,0.1c-0.7-1.4-1.1-3.4-1.7-5.2c-0.1-0.1-0.2-0.2-0.4-0.2
	c-0.1,0-0.2,0.1-0.2,0.2c-2.9,13.4-18.2,17.5-28.9,11.5c-9.1-5-10.2-16.4-9.8-25.7c0.5-10.8,4.9-19.8,16.5-21.7
	c20.3-3.4,26.1,16.6,23.1,32.1c-0.1,0.3,0.1,0.4,0.3,0.3c3-1.2,6.1-1.9,9.3-1.9C150.2,44.5,150.2,44.5,150,44.4z M109.7,57.3
	c6.3,4.9,16.2,5.1,22.1-0.2c5.5-4.8,6.4-13.5,6.1-20.3c-0.4-8.5-2.7-16.5-11.3-19.3c-4.8-1.5-9.5-1.2-14.2,1.2
	C101.3,24.1,100.5,50,109.7,57.3z M162.7,46.8c4.8,6.4-8.5,10.3-10.4,0.9c-0.1-0.4-0.3-0.5-0.7-0.5l-8.2,1.3c-0.3,0-0.5,0.2-0.5,0.6
	c1.1,12.9,18.2,15,26.6,8.5c7.8-6.1,6-18.4-3.5-21.9c-4.3-1.6-14.3-3.3-10.1-10.3c0.2-0.3,0.5-0.5,0.9-0.6c4-0.7,6.5,1,7.6,4.9
	c0.1,0.3,0.4,0.5,0.8,0.4c0,0,0,0,0,0l7.4-2.1c0.5-0.1,0.6-0.4,0.5-0.9c-2.9-7.5-8.1-10.9-15.4-10.2c-6.9,0.7-12.4,4.3-13.5,11.4
	c-1.5,10.4,6.9,13.5,15.5,16.6C161.2,45.4,162.2,46,162.7,46.8z M225,36.3h-1.6c-0.4,0-0.6,0.2-0.6,0.6v3.6c0,0.5,0.3,0.8,0.8,0.8
	h1.5c0.3,0,0.5,0.2,0.5,0.5v17.5c0,0.4,0.3,0.7,0.7,0.7l5.1,0c0.4,0,0.7-0.3,0.7-0.7v0V42c0-0.5,0.3-0.8,0.8-0.8h2.8
	c0.5,0,0.8-0.3,0.8-0.8v-3.6c0-0.4-0.2-0.6-0.6-0.6h-3.1c-0.5,0-0.7-0.3-0.6-0.8l0.5-2.7c0.1-0.4,0.3-0.6,0.8-0.7l2.9-0.2
	c0.3,0,0.5-0.2,0.4-0.5v-3.7c0-0.4-0.2-0.6-0.6-0.7c-7.6-1.8-9.8,2.5-10.5,8.8C225.4,36.1,225.3,36.3,225,36.3z M159.7,27.5
	c-0.2-0.3-0.6-0.3-0.9-0.2c-0.6,0.3-0.9,0.7-0.7,1.2c0.1,0.3,0.3,0.5,0.6,0.7c0.9,0.6,1.9,1.2,3,1.6c0.2,0.1,0.4,0,0.5-0.2
	c0-0.1,0-0.3-0.1-0.4L159.7,27.5z M197,28.2c0-0.2-0.2-0.4-0.4-0.4c0,0,0,0,0,0l-5.6,0c-0.2,0-0.4,0.2-0.4,0.4c0,0,0,0,0,0l0,5.6
	c0,0.2,0.2,0.4,0.4,0.4c0,0,0,0,0,0l5.6,0c0.2,0,0.4-0.2,0.4-0.4c0,0,0,0,0,0L197,28.2z M207.8,37l0-0.4c0-0.2-0.2-0.4-0.4-0.4h-5.2
	c-0.4,0-0.6,0.2-0.6,0.6v22.4c0,0.5,0.2,0.7,0.7,0.7l5.2,0c0.3,0,0.6-0.3,0.6-0.6c0-5.1,0.1-10.2,0.3-15.3c0.2-4.6,5.2-4.4,5.2-0.6
	c0,5.2,0,10.4,0,15.7c0,0.5,0.3,0.8,0.8,0.8l5.1,0c0.4,0,0.6-0.3,0.6-0.6c0-5,1.1-16.4-0.9-20.6c-1.8-3.6-6.8-4-9.9-1.3
	C208.4,38.2,207.9,38,207.8,37z M256.3,44.6c0-4.7-3.8-8.6-8.5-8.6c0,0,0,0,0,0l-1.4,0c-4.7,0-8.6,3.8-8.6,8.5c0,0,0,0,0,0l-0.1,7.3
	c0,4.7,3.8,8.6,8.5,8.6c0,0,0,0,0,0l1.4,0c4.7,0,8.6-3.8,8.6-8.5c0,0,0,0,0,0L256.3,44.6z M197,36.8c0-0.3-0.3-0.6-0.6-0.6h-5.4
	c-0.3,0-0.6,0.3-0.6,0.6v22.6c0,0.3,0.3,0.6,0.6,0.6h5.4c0.3,0,0.6-0.3,0.6-0.6V36.8z M160.8,48.8l-5.1-2.6c-0.1,0-0.1,0-0.2,0.1
	c0,0,0,0,0,0l0,0.1c-0.6,1.2,0.1,2.7,1.5,3.4l0.2,0.1c1.4,0.7,3.1,0.4,3.7-0.8c0,0,0,0,0,0l0-0.1C160.9,48.9,160.9,48.8,160.8,48.8z
	 M185.2,53.7c0-0.4-0.3-0.7-0.7-0.7l-5.1,0c-0.4,0-0.7,0.3-0.7,0.7l0,5.6c0,0.4,0.3,0.7,0.7,0.7l5.1,0c0.4,0,0.7-0.3,0.7-0.7
	L185.2,53.7z"/>
<path class="st3" d="M46.4,53c-4.7-8.3-4.6-29.1,6-34.3c4.7-2.3,9.5-2.7,14.4-1.1c12.3,4,12.6,21.3,10,31.6
	C73.1,63.2,53.5,65.4,46.4,53z M56.6,49.2c0.9,5.2,7.6,4.5,8.4-0.7c1-6.3,1-12.7,0.1-19.1c-0.8-5.4-7.4-6-8.5-0.9
	C55.3,34.8,55.3,41.6,56.6,49.2z"/>
<path class="st3" d="M109.7,57.3c-9.2-7.3-8.4-33.2,2.7-38.6c4.7-2.3,9.4-2.7,14.2-1.2c8.6,2.8,10.9,10.8,11.3,19.3
	c0.3,6.9-0.5,15.5-6.1,20.3C125.8,62.4,115.9,62.2,109.7,57.3z M116.7,49.2c0.6,3.4,4.4,4.6,6.7,2.6c3.3-2.9,3.8-23.8-0.9-26.3
	c-2.4-1.3-5.4,0.4-6,3.1C115.3,35,115.3,41.9,116.7,49.2z"/>
<path class="st3" d="M152.3,47.6c1.9,9.4,15.2,5.6,10.4-0.9c-0.5-0.7-1.5-1.3-2.9-1.9c-8.6-3.1-17-6.3-15.5-16.6
	c1.1-7.1,6.6-10.7,13.5-11.4c7.3-0.7,12.5,2.7,15.4,10.2c0.2,0.5,0,0.8-0.5,0.9l-7.4,2.1c-0.3,0.1-0.7-0.1-0.8-0.4c0,0,0,0,0,0
	c-1.1-3.9-3.7-5.5-7.6-4.9c-0.4,0.1-0.7,0.3-0.9,0.6c-4.2,7,5.8,8.7,10.1,10.3c9.5,3.5,11.3,15.7,3.5,21.9
	c-8.4,6.6-25.5,4.4-26.6-8.5c0-0.3,0.1-0.5,0.5-0.6l8.2-1.3C152,47.1,152.3,47.2,152.3,47.6z"/>
<path class="st3" d="M81.1,75c-0.5-0.1-0.8-0.5-0.8-1v-8.3c0-0.3,0.3-0.6,0.6-0.6c0,0,0.1,0,0.1,0c3,0.6,4.5-0.6,4.5-3.7
	c0.2-14.4,0.3-28.8,0.3-43.2c0-0.3,0.2-0.5,0.5-0.5h10.7c0.3,0,0.5,0.2,0.5,0.5c0.1,18.8,0.1,32.7,0,41.5
	C97.4,71.8,94.2,77.4,81.1,75z"/>
<path class="st2" d="M21.8,25.2c4.3,1.9,3.2,12.7,3.1,18.3c0,3.5-1.5,11.7-7.3,8.1c-4.2-2.6-2.9-17.4-2.3-21.6
	C15.9,26.4,17.9,23.5,21.8,25.2z M18.7,28.6c-1.8,5.4-1.1,14.2-0.2,19.2c0.1,0.6,0.4,1.1,0.8,1.3c0.6,0.4,1.4,0.2,1.7-0.3
	c0-0.1,0.1-0.1,0.1-0.2c2-4.3,1-14.8,0.5-19.7c-0.1-0.8-0.8-1.4-1.6-1.3C19.4,27.6,18.9,28,18.7,28.6z"/>
<path class="st2" d="M65,48.5c-0.8,5.2-7.5,5.9-8.4,0.7c-1.3-7.5-1.3-14.4,0-20.6c1.1-5.2,7.7-4.5,8.5,0.9C66,35.8,66,42.1,65,48.5z
	 M60.7,50c1.2,0,2.1-5,2.1-11.1v0c0-6.2-0.9-11.1-2.1-11.1l0,0c-1.2,0-2.1,5-2.1,11.1l0,0C58.7,45,59.6,50,60.7,50L60.7,50z"/>
<path class="st2" d="M123.4,51.7c-2.3,2.1-6.1,0.8-6.7-2.6c-1.3-7.3-1.3-14.1-0.1-20.6c0.5-2.7,3.6-4.4,6-3.1
	C127.2,27.9,126.6,48.8,123.4,51.7z M120.7,50c1.2,0,2.1-5,2.1-11.1c0,0,0,0,0,0c0-6.2-0.9-11.1-2.1-11.1c0,0,0,0,0,0
	c-1.2,0-2.1,5-2.1,11.1S119.6,50,120.7,50z"/>
<path class="st4" d="M225.4,35.8c0.7-6.3,2.8-10.6,10.5-8.8c0.4,0.1,0.6,0.3,0.6,0.7v3.7c0,0.3-0.2,0.5-0.4,0.5l-2.9,0.2
	c-0.4,0-0.7,0.3-0.8,0.7l-0.5,2.7c-0.1,0.5,0.1,0.8,0.6,0.8h3.1c0.4,0,0.6,0.2,0.6,0.6v3.6c0,0.5-0.3,0.8-0.8,0.8h-2.8
	c-0.5,0-0.8,0.3-0.8,0.8v17.3c0,0.4-0.3,0.7-0.7,0.7l0,0l-5.1,0c-0.4,0-0.7-0.3-0.7-0.7V41.8c0-0.3-0.2-0.5-0.5-0.5h-1.5
	c-0.5,0-0.8-0.3-0.8-0.8v-3.6c0-0.4,0.2-0.6,0.6-0.6h1.6C225.3,36.3,225.4,36.1,225.4,35.8z"/>
<path class="st4" d="M190.9,27.8l5.6,0c0.2,0,0.4,0.2,0.4,0.4l0,5.6c0,0.2-0.2,0.4-0.4,0.4l-5.6,0c-0.2,0-0.4-0.2-0.4-0.4l0-5.6
	C190.5,28,190.7,27.8,190.9,27.8z"/>
<path class="st4" d="M209.2,37.5c3.1-2.8,8.2-2.4,9.9,1.3c2,4.2,0.9,15.6,0.9,20.6c0,0.4-0.3,0.6-0.6,0.6l-5.1,0
	c-0.5,0-0.8-0.3-0.8-0.8c0-5.3,0-10.5,0-15.7c0-3.8-5-4-5.2,0.6c-0.2,5.1-0.3,10.2-0.3,15.3c0,0.3-0.3,0.6-0.6,0.6l-5.2,0
	c-0.5,0-0.7-0.2-0.7-0.7V36.9c0-0.4,0.2-0.6,0.6-0.6h5.2c0.2,0,0.4,0.1,0.4,0.4l0,0.4C207.9,38,208.4,38.2,209.2,37.5z"/>
<path class="st4" d="M256.3,51.8c0,4.7-3.9,8.6-8.6,8.5c0,0,0,0,0,0l-1.4,0c-4.7,0-8.6-3.9-8.5-8.6c0,0,0,0,0,0l0.1-7.3
	c0-4.7,3.9-8.6,8.6-8.5h0l1.4,0c4.7,0,8.6,3.9,8.5,8.6c0,0,0,0,0,0L256.3,51.8z M246.5,55.9c1.1,0.3,2.2-0.2,2.5-1.3
	c0,0,0-0.1,0-0.2c0.6-2.3,2.5-15.5-3.1-13.8c-0.5,0.2-0.9,0.6-1.1,1.1C244.3,44.4,243,54.8,246.5,55.9z"/>
<path class="st4" d="M191.1,36.3h5.4c0.3,0,0.6,0.3,0.6,0.6v22.6c0,0.3-0.3,0.6-0.6,0.6h-5.4c-0.3,0-0.6-0.3-0.6-0.6V36.8
	C190.5,36.5,190.8,36.3,191.1,36.3z"/>
<path class="st2" d="M246.5,55.9c-3.5-1.1-2.2-11.5-1.6-14.2c0.1-0.5,0.5-1,1.1-1.1c5.6-1.7,3.7,11.5,3.1,13.8
	c-0.3,1.1-1.3,1.7-2.4,1.5C246.6,55.9,246.6,55.9,246.5,55.9z"/>
<path class="st4" d="M179.4,53l5.1,0c0.4,0,0.7,0.3,0.7,0.7l0,5.6c0,0.4-0.3,0.7-0.7,0.7l-5.1,0c-0.4,0-0.7-0.3-0.7-0.7l0-5.6
	C178.7,53.4,179,53,179.4,53z"/>
</svg>
