<?xml version="1.0" encoding="utf-8"?>
<!-- Generator: Adobe Illustrator 24.2.1, SVG Export Plug-In . SVG Version: 6.00 Build 0)  -->
<svg version="1.1" id="Layer_1" xmlns="http://www.w3.org/2000/svg" xmlns:xlink="http://www.w3.org/1999/xlink" x="0px" y="0px"
	 viewBox="0 0 254 80" style="enable-background:new 0 0 254 80;" xml:space="preserve">
<style type="text/css">
	.st0{fill:#D7282A;}
	.st1{fill:#FFFFFF;}
</style>
<g>
	<rect y="3.8" class="st0" width="254" height="72.4"/>
	<g>
		<g>
			
				<image style="overflow:visible;opacity:0.75;enable-background:new    ;" width="1345" height="243" xlink:href="5DD94EB8.png"  transform="matrix(0.1757 0 0 0.1757 8.4315 14.5297)">
			</image>
			<g>
				<g>
					<path class="st1" d="M15.1,38.8c0,0.2,0,0.5,0,1.4c0,2,0.1,2.6,0.3,4.2H9.7c0.1-1.1,0.2-1.8,0.3-2.8c0-0.3,0-0.5,0-1.4
						c0-0.9,0-1.3,0-1.4V21.8c0-0.2,0-0.5,0-1.5c0-1.9-0.1-2.6-0.3-4.2h8.4c2.6,0,4.4,0.4,5.6,1.1c2,1.2,3.1,3.3,3.1,6.1
						c0,5-3.2,8.8-9.5,11.5l-2.2-3.4L15.1,38.8L15.1,38.8z M15.1,30.6c4.2-1.5,6.6-4.1,6.6-6.9c0-2.2-1.2-3-4.1-3h-2.5V30.6z"/>
					<path class="st1" d="M31.9,16c1.7,0,3.1,1.4,3.1,3.1c0,1.7-1.4,3.1-3.1,3.1c-1.7,0-3.1-1.4-3.1-3.1C28.8,17.4,30.2,16,31.9,16z
						 M29.3,44.4c0.1-1,0.2-1.6,0.2-2.4c0-0.3,0-1,0-1.9c0-0.2,0-0.4,0-0.5v-9.1c0-0.2,0-0.5,0-1.2c0-1.6-0.1-2.1-0.3-3.6h5.4
						c-0.1,1-0.2,1.6-0.2,2.4c0,0.3,0,1-0.1,1.9c0,0.2,0,0.4,0,0.5v9.1c0,0.2,0,0.5,0,1.2c0,1.5,0.1,2.2,0.3,3.6H29.3z"/>
					<path class="st1" d="M37,44.4v-4c0.7-0.8,1.5-1.9,2-2.7l5.3-7.8h-2.5c-0.1,0-0.3,0-1,0c-1.6,0-2,0-3.2,0.2v-4.4h12.7v3.8
						c-0.6,0.7-1,1.3-1.7,2.4c-0.1,0.2-0.2,0.3-0.3,0.4l-5.5,7.9h3.5c0.1,0,0.4,0,1.1,0c1.5,0,1.9-0.1,3.1-0.3v4.5L37,44.4L37,44.4z
						"/>
					<path class="st1" d="M52.1,44.4v-4c0.7-0.8,1.5-1.9,2-2.7l5.3-7.8h-2.5c-0.1,0-0.3,0-1,0c-1.6,0-2,0-3.2,0.2v-4.4h12.7v3.8
						c-0.6,0.7-1,1.3-1.7,2.4c-0.1,0.2-0.2,0.3-0.3,0.4L58,40.2h3.5c0.1,0,0.4,0,1.1,0c1.5,0,1.9-0.1,3.1-0.3v4.5L52.1,44.4
						L52.1,44.4z"/>
					<path class="st1" d="M77.5,42.8c-1.5,1.4-2.8,2-4.6,2c-3.3,0-5.6-2.4-5.6-5.8c0-3.8,3-6.5,7.2-6.5c1,0,1.9,0.1,2.8,0.4
						c0-0.2,0-0.4,0-0.5c0-1.9-1-2.8-3.1-2.8c-1.3,0-3,0.4-5.2,1.2v-4.4c2.5-0.6,3.9-0.8,5.8-0.8c3,0,5,0.7,6.1,2.2
						c0.9,1.2,1.1,2.4,1.1,5.3v6.7c0,0.2,0,0.5,0,1.2c0,1.5,0.1,2.2,0.3,3.6h-4.7L77.5,42.8L77.5,42.8z M76.9,36.4
						c-0.8-0.2-1.2-0.3-1.8-0.3c-1.8,0-3,1-3,2.3c0,1.1,0.8,1.9,2.1,1.9c1,0,2-0.4,3.1-1.4v-2.5L76.9,36.4z"/>
					<path class="st1" d="M98.6,22.2c-2.2-1.2-4.6-1.9-6.2-1.9C91,20.3,90,21,90,22.1c0,1,0.8,1.9,3.3,3.9l1.9,1.4
						c4.2,3.3,5.6,5.3,5.6,8.3c0,5.3-4.3,9-10.6,9c-1.9,0-3.7-0.3-6.1-1v-5.4c2,1.1,4.1,1.7,6.1,1.7c3.2,0,5.3-1.5,5.3-3.7
						c0-1.4-0.8-2.5-3.7-4.7l-2-1.6c-3.8-3-5-4.7-5-7.2c0-4.1,3.1-6.9,7.6-6.9c1.9,0,3.7,0.4,6.2,1.3V22.2z"/>
					<path class="st1" d="M108.5,18.6c0,0.4,0,1-0.1,1.9c0,0.2,0,0.4,0,0.5v6c1.6-1.1,2.9-1.5,4.5-1.5c4.4,0,7.5,3.7,7.5,9.1
						c0,5.5-2.5,11-7.1,15.7l-3.8-3.3c3.5-2.6,5.8-7.6,5.8-12.2c0-3-1.4-4.9-3.6-4.9c-1,0-2,0.4-3.3,1.3v8.4c0,0.2,0,0.5,0.1,1.2
						c0,1.5,0.1,2.2,0.3,3.6h-5.4c0.1-1,0.2-1.6,0.2-2.4c0-0.3,0-1,0-1.9c0-0.2,0-0.4,0-0.5V21c0-0.2,0-0.6,0-1.3
						c0-1.5-0.1-2.2-0.3-3.6h5.4C108.6,17.1,108.5,17.8,108.5,18.6z"/>
					<path class="st1" d="M130.9,44.7c-5.1,0-8.6-3.9-8.6-9.6c0-5.7,3.6-9.6,8.6-9.6c5.1,0,8.6,3.9,8.6,9.6S136,44.7,130.9,44.7z
						 M130.9,29.6c-2.2,0-3.6,2.1-3.6,5.5s1.4,5.5,3.6,5.5c2.3,0,3.6-2.1,3.6-5.5S133.2,29.6,130.9,29.6z"/>
					<path class="st1" d="M146.8,27.5c1.7-1.3,3-1.8,4.7-1.8c4.1,0,7,3.6,7,9c0,5.7-3.3,10-7.7,10c-1.2,0-2.4-0.3-3.6-1.1v5.8
						c0,0.2,0,0.6,0,1.3c0,1.5,0.1,2.2,0.3,3.6h-5.4c0.1-1,0.2-1.6,0.2-2.4c0-0.4,0-1,0-1.9c0-0.2,0-0.4,0-0.5v-5V30.6
						c0-0.2,0-0.5,0-1.2c0-1.5-0.1-2.2-0.3-3.6h4.7L146.8,27.5L146.8,27.5z M149.9,40.4c2.2,0,3.6-2.2,3.6-5.7c0-3-1.2-4.9-3.2-4.9
						c-1,0-2,0.5-3.1,1.8v7.5C148.1,40,148.9,40.4,149.9,40.4z"/>
					<path class="st1" d="M172.1,30.6l-0.5-0.2c-2-0.8-3.3-1.1-4.5-1.1c-1.3,0-1.8,0.3-1.8,0.9c0,0.5,0.3,0.9,1.5,1.5l1.1,0.6
						c4.3,2.2,5.5,3.6,5.5,6.3c0,3.8-2.9,6.1-7.6,6.1c-1.8,0-3.8-0.4-5.7-1.2v-4.7c1.9,1,4,1.7,5.7,1.7c1.7,0,2.7-0.6,2.7-1.6
						c0-0.7-0.3-0.9-2.1-2l-1.2-0.7c-3.5-1.9-4.5-3.2-4.5-5.6c0-3.2,2.4-5.2,6.2-5.2c1.3,0,2.8,0.2,4.8,0.8l0.4,0.1L172.1,30.6
						L172.1,30.6z"/>
					<path class="st1" d="M179.5,38.2c1.8,0,3.2,1.4,3.2,3.2c0,1.8-1.4,3.3-3.2,3.3c-1.8,0-3.3-1.5-3.3-3.3
						C176.2,39.7,177.7,38.2,179.5,38.2z"/>
					<path class="st1" d="M188.7,16c1.7,0,3.1,1.4,3.1,3.1c0,1.7-1.4,3.1-3.1,3.1c-1.7,0-3.1-1.4-3.1-3.1
						C185.6,17.4,187,16,188.7,16z M186,44.4c0.1-1,0.2-1.6,0.2-2.4c0-0.3,0-1,0-1.9c0-0.2,0-0.4,0-0.5v-9.1c0-0.2,0-0.5,0-1.2
						c0-1.6-0.1-2.1-0.3-3.6h5.4c-0.1,1-0.2,1.6-0.2,2.4c0,0.3,0,1-0.1,1.9c0,0.2,0,0.4,0,0.5v9.1c0,0.2,0,0.5,0,1.2
						c0,1.5,0.1,2.2,0.3,3.6H186z"/>
					<path class="st1" d="M199.3,27.3c1.6-1.3,3-1.8,4.7-1.8c4.4,0,7.4,3.7,7.4,9.1c0,5.3-2.5,10.9-7,15.6l-3.7-3.2
						c3.5-2.8,5.8-7.6,5.8-12.2c0-3.1-1.4-5-3.6-5c-1.1,0-2,0.4-3.3,1.4v8.3c0,0.2,0,0.5,0,1.2c0,1.5,0.1,2.2,0.3,3.6h-5.4
						c0.1-1,0.2-1.6,0.2-2.4c0-0.3,0-1,0-1.9c0-0.2,0-0.4,0-0.5v-9.1c0-0.2,0-0.5,0-1.2c0-1.5-0.1-2.2-0.3-3.6h4.9V27.3z"/>
					<path class="st1" d="M219.3,39.6c0,0.2,0,0.5,0,1.2c0.1,1.5,0.1,2.2,0.3,3.6h-5.4c0.1-1,0.2-1.6,0.2-2.4c0-0.3,0-1,0-1.9
						c0-0.2,0-0.4,0-0.5v-9.5h-0.1c-0.6,0-1.1,0.1-2,0.2v-4.5h2.1v-1.4c0-5.4,2.4-8.4,6.9-8.4c1.1,0,2.1,0.2,3.2,0.5v4.4
						c-0.9-0.5-1.8-0.8-2.6-0.8c-1.1,0-2.1,0.6-2.4,1.6c-0.2,0.7-0.3,1.5-0.3,2.8v1.3h4.4v4.5c-0.8-0.1-1.4-0.2-2.1-0.2
						c-0.2,0-0.8,0-1.7-0.1c-0.2,0-0.3,0-0.4,0h-0.2L219.3,39.6L219.3,39.6z"/>
					<path class="st1" d="M232.9,44.7c-5.1,0-8.6-3.9-8.6-9.6c0-5.7,3.6-9.6,8.6-9.6c5.1,0,8.6,3.9,8.6,9.6S238.1,44.7,232.9,44.7z
						 M232.9,29.6c-2.2,0-3.6,2.1-3.6,5.5s1.4,5.5,3.6,5.5c2.3,0,3.6-2.1,3.6-5.5S235.2,29.6,232.9,29.6z"/>
				</g>
			</g>
		</g>
		<g>
			<path class="st1" d="M10.9,60.7v2.8H9.7v-6.8h2.3c0.8,0,1.3,0.2,1.8,0.5c0.4,0.3,0.6,0.8,0.6,1.5c0,0.4-0.1,0.7-0.3,0.9
				c-0.2,0.3-0.4,0.5-0.8,0.6c0.4,0.1,0.7,0.3,0.8,0.6s0.3,0.6,0.3,1v0.6c0,0.2,0,0.4,0.1,0.6c0,0.2,0.1,0.3,0.2,0.4v0.1h-1.2
				c-0.1-0.1-0.2-0.3-0.2-0.5c0-0.2-0.1-0.4-0.1-0.7v-0.5c0-0.3-0.1-0.6-0.3-0.8s-0.5-0.3-0.8-0.3L10.9,60.7L10.9,60.7z M10.9,59.8
				H12c0.5,0,0.8-0.1,1-0.3c0.2-0.2,0.3-0.4,0.3-0.8c0-0.3-0.1-0.6-0.3-0.8c-0.2-0.2-0.5-0.3-0.9-0.3h-1.2V59.8z"/>
			<path class="st1" d="M19.6,60.5h-2.7v2.2h3.1v0.9h-4.3v-6.8H20v0.9h-3.1v1.9h2.7V60.5z"/>
			<path class="st1" d="M24.7,61.8c0-0.3-0.1-0.5-0.3-0.7c-0.2-0.2-0.6-0.3-1.1-0.5c-0.7-0.2-1.3-0.5-1.7-0.8
				C21.2,59.5,21,59,21,58.5c0-0.5,0.2-1,0.7-1.4c0.4-0.4,1-0.5,1.7-0.5c0.7,0,1.3,0.2,1.8,0.6s0.7,0.9,0.6,1.5l0,0h-1.1
				c0-0.4-0.1-0.6-0.4-0.9c-0.2-0.2-0.6-0.3-0.9-0.3c-0.4,0-0.7,0.1-0.9,0.3c-0.2,0.2-0.3,0.4-0.3,0.7c0,0.3,0.1,0.5,0.3,0.6
				c0.2,0.2,0.6,0.3,1.1,0.5c0.7,0.2,1.3,0.5,1.6,0.8c0.4,0.3,0.6,0.8,0.6,1.3c0,0.6-0.2,1-0.7,1.3c-0.4,0.3-1,0.5-1.7,0.5
				c-0.7,0-1.3-0.2-1.8-0.5s-0.8-0.9-0.7-1.6l0,0H22c0,0.4,0.1,0.7,0.4,0.9c0.3,0.2,0.6,0.3,1,0.3c0.4,0,0.7-0.1,0.9-0.3
				C24.6,62.3,24.7,62.1,24.7,61.8z"/>
			<path class="st1" d="M30.8,60.5h-2.7v2.2h3.1v0.9H27v-6.8h4.2v0.9h-3.1v1.9h2.7V60.5z"/>
			<path class="st1" d="M35.8,61.9h-2.4l-0.5,1.6h-1.2l2.4-6.8h1.1l2.3,6.8h-1.2L35.8,61.9z M33.7,61h1.8l-0.9-2.7h0L33.7,61z"/>
			<path class="st1" d="M39.4,60.7v2.8h-1.1v-6.8h2.3c0.8,0,1.3,0.2,1.8,0.5s0.6,0.8,0.6,1.5c0,0.4-0.1,0.7-0.3,0.9
				c-0.2,0.3-0.4,0.5-0.8,0.6c0.4,0.1,0.7,0.3,0.8,0.6s0.3,0.6,0.3,1v0.6c0,0.2,0,0.4,0.1,0.6c0,0.2,0.1,0.3,0.2,0.4v0.1h-1.2
				C42.1,63.4,42,63.2,42,63c0-0.2-0.1-0.4-0.1-0.7v-0.5c0-0.3-0.1-0.6-0.3-0.8s-0.5-0.3-0.8-0.3L39.4,60.7L39.4,60.7z M39.4,59.8
				h1.1c0.5,0,0.8-0.1,1-0.3c0.2-0.2,0.3-0.4,0.3-0.8c0-0.3-0.1-0.6-0.3-0.8c-0.2-0.2-0.5-0.3-0.9-0.3h-1.2V59.8L39.4,59.8z"/>
			<path class="st1" d="M49.4,61.3L49.4,61.3c0,0.7-0.2,1.3-0.7,1.7c-0.5,0.4-1.1,0.6-1.9,0.6c-0.8,0-1.4-0.3-1.9-0.8
				c-0.5-0.5-0.7-1.2-0.7-2v-1.3c0-0.8,0.2-1.5,0.7-2c0.5-0.5,1.1-0.8,1.9-0.8c0.8,0,1.4,0.2,1.9,0.6c0.5,0.4,0.7,1,0.7,1.7l0,0
				h-1.1c0-0.5-0.1-0.8-0.4-1c-0.2-0.2-0.6-0.4-1.1-0.4c-0.5,0-0.8,0.2-1.1,0.5c-0.3,0.4-0.4,0.8-0.4,1.4v1.3c0,0.6,0.1,1,0.4,1.4
				c0.3,0.4,0.6,0.5,1.1,0.5c0.5,0,0.8-0.1,1.1-0.4c0.2-0.2,0.4-0.6,0.4-1L49.4,61.3L49.4,61.3z"/>
			<path class="st1" d="M55.8,63.5h-1.1v-2.9h-3v2.9h-1.1v-6.8h1.1v3h3v-3h1.1V63.5z"/>
		</g>
		<g>
			<path class="st1" d="M71.9,60.7v2.8h-1.1v-6.8h2.3c0.8,0,1.3,0.2,1.8,0.5c0.4,0.3,0.6,0.8,0.6,1.5c0,0.4-0.1,0.7-0.3,0.9
				c-0.2,0.3-0.4,0.5-0.8,0.6c0.4,0.1,0.7,0.3,0.8,0.6c0.2,0.3,0.3,0.6,0.3,1v0.6c0,0.2,0,0.4,0.1,0.6c0,0.2,0.1,0.3,0.2,0.4v0.1
				h-1.2c-0.1-0.1-0.2-0.3-0.2-0.5c0-0.2-0.1-0.4-0.1-0.7v-0.5c0-0.3-0.1-0.6-0.3-0.8c-0.2-0.2-0.5-0.3-0.8-0.3L71.9,60.7L71.9,60.7
				z M71.9,59.8H73c0.5,0,0.8-0.1,1-0.3c0.2-0.2,0.3-0.4,0.3-0.8c0-0.3-0.1-0.6-0.3-0.8s-0.5-0.3-0.9-0.3h-1.2V59.8z"/>
			<path class="st1" d="M80.4,61.9h-2.4l-0.5,1.6h-1.2l2.4-6.8h1.1l2.3,6.8h-1.2L80.4,61.9z M78.3,61H80l-0.9-2.7h0L78.3,61z"/>
			<path class="st1" d="M87.2,57.6h-2.1v5.9H84v-5.9h-2.1v-0.9h5.3L87.2,57.6L87.2,57.6z"/>
			<path class="st1" d="M91.9,60.5h-2.7v2.2h3.1v0.9h-4.3v-6.8h4.2v0.9h-3.1v1.9h2.7V60.5z"/>
		</g>
		<g>
			<path class="st1" d="M119.1,61.8c0-0.3-0.1-0.5-0.3-0.7c-0.2-0.2-0.6-0.3-1.1-0.5c-0.7-0.2-1.3-0.5-1.7-0.8
				c-0.4-0.3-0.6-0.8-0.6-1.3c0-0.5,0.2-1,0.7-1.4c0.4-0.4,1-0.5,1.7-0.5c0.7,0,1.3,0.2,1.8,0.6s0.7,0.9,0.6,1.5l0,0h-1.1
				c0-0.4-0.1-0.6-0.4-0.9c-0.2-0.2-0.6-0.3-0.9-0.3c-0.4,0-0.7,0.1-0.9,0.3s-0.3,0.4-0.3,0.7c0,0.3,0.1,0.5,0.3,0.6
				c0.2,0.2,0.6,0.3,1.1,0.5c0.7,0.2,1.3,0.5,1.6,0.8c0.4,0.3,0.6,0.8,0.6,1.3c0,0.6-0.2,1-0.7,1.3c-0.4,0.3-1,0.5-1.7,0.5
				c-0.7,0-1.3-0.2-1.8-0.5c-0.5-0.4-0.8-0.9-0.7-1.6l0,0h1.1c0,0.4,0.1,0.7,0.4,0.9c0.3,0.2,0.6,0.3,1,0.3c0.4,0,0.7-0.1,0.9-0.3
				C119,62.3,119.1,62.1,119.1,61.8z"/>
			<path class="st1" d="M126.7,63.5h-1.1v-2.9h-3v2.9h-1.1v-6.8h1.1v3h3v-3h1.1V63.5z"/>
			<path class="st1" d="M131.8,61.9h-2.4l-0.5,1.6h-1.2l2.4-6.8h1.1l2.3,6.8h-1.2L131.8,61.9z M129.7,61h1.8l-0.9-2.7h0L129.7,61z"
				/>
			<path class="st1" d="M135.4,60.7v2.8h-1.1v-6.8h2.3c0.8,0,1.3,0.2,1.8,0.5c0.4,0.3,0.6,0.8,0.6,1.5c0,0.4-0.1,0.7-0.3,0.9
				s-0.4,0.5-0.8,0.6c0.4,0.1,0.7,0.3,0.8,0.6c0.2,0.3,0.3,0.6,0.3,1v0.6c0,0.2,0,0.4,0.1,0.6c0,0.2,0.1,0.3,0.2,0.4v0.1h-1.2
				c-0.1-0.1-0.2-0.3-0.2-0.5c0-0.2-0.1-0.4-0.1-0.7v-0.5c0-0.3-0.1-0.6-0.3-0.8s-0.5-0.3-0.8-0.3L135.4,60.7L135.4,60.7z
				 M135.4,59.8h1.1c0.5,0,0.8-0.1,1-0.3c0.2-0.2,0.3-0.4,0.3-0.8c0-0.3-0.1-0.6-0.3-0.8c-0.2-0.2-0.5-0.3-0.9-0.3h-1.2L135.4,59.8
				L135.4,59.8z"/>
			<path class="st1" d="M144.2,60.5h-2.7v2.2h3.1v0.9h-4.3v-6.8h4.2v0.9h-3.1v1.9h2.7L144.2,60.5L144.2,60.5z"/>
		</g>
		<g>
			<path class="st1" d="M167.2,60.9v2.6H166v-6.8h2.6c0.7,0,1.3,0.2,1.8,0.6c0.4,0.4,0.6,0.9,0.6,1.5c0,0.6-0.2,1.1-0.6,1.5
				c-0.4,0.4-1,0.6-1.8,0.6L167.2,60.9L167.2,60.9z M167.2,60h1.5c0.4,0,0.7-0.1,0.9-0.3c0.2-0.2,0.3-0.5,0.3-0.9
				c0-0.3-0.1-0.6-0.3-0.9c-0.2-0.2-0.5-0.3-0.9-0.3h-1.5V60z"/>
			<path class="st1" d="M173.3,63.5h-1.1v-6.8h1.1V63.5z"/>
			<path class="st1" d="M175.9,62.6h3.4v0.9h-4.8v-0.7l3.3-5.2h-3.3v-0.9h4.6v0.7L175.9,62.6z"/>
			<path class="st1" d="M181.5,62.6h3.4v0.9h-4.8v-0.7l3.3-5.2h-3.3v-0.9h4.6v0.7L181.5,62.6z"/>
			<path class="st1" d="M189.6,61.9h-2.4l-0.5,1.6h-1.2l2.4-6.8h1.1l2.3,6.8h-1.2L189.6,61.9z M187.5,61h1.8l-0.9-2.7h0L187.5,61z"
				/>
		</g>
		<g>
			<path class="st1" d="M215.8,61.8c0-0.3-0.1-0.5-0.3-0.7c-0.2-0.2-0.6-0.3-1.1-0.5c-0.7-0.2-1.3-0.5-1.7-0.8
				c-0.4-0.3-0.6-0.8-0.6-1.3c0-0.5,0.2-1,0.7-1.4c0.4-0.4,1-0.5,1.7-0.5c0.7,0,1.3,0.2,1.8,0.6c0.4,0.4,0.7,0.9,0.6,1.5l0,0h-1.1
				c0-0.4-0.1-0.6-0.4-0.9c-0.2-0.2-0.6-0.3-0.9-0.3c-0.4,0-0.7,0.1-0.9,0.3c-0.2,0.2-0.3,0.4-0.3,0.7c0,0.3,0.1,0.5,0.3,0.6
				c0.2,0.2,0.6,0.3,1.1,0.5c0.7,0.2,1.3,0.5,1.6,0.8c0.4,0.3,0.6,0.8,0.6,1.3c0,0.6-0.2,1-0.7,1.3c-0.4,0.3-1,0.5-1.7,0.5
				c-0.7,0-1.3-0.2-1.8-0.5s-0.8-0.9-0.7-1.6l0,0h1.1c0,0.4,0.1,0.7,0.4,0.9s0.6,0.3,1,0.3c0.4,0,0.7-0.1,0.9-0.3
				C215.7,62.3,215.8,62.1,215.8,61.8z"/>
			<path class="st1" d="M223.4,63.5h-1.1v-2.9h-3v2.9h-1.1v-6.8h1.1v3h3v-3h1.1V63.5z"/>
			<path class="st1" d="M230.2,60.7c0,0.8-0.3,1.5-0.8,2.1s-1.2,0.8-2,0.8c-0.8,0-1.5-0.3-2-0.8c-0.5-0.5-0.8-1.2-0.8-2.1v-1.2
				c0-0.8,0.3-1.5,0.8-2.1c0.5-0.5,1.2-0.8,2-0.8c0.8,0,1.5,0.3,2,0.8c0.5,0.5,0.8,1.2,0.8,2.1V60.7z M229.1,59.5
				c0-0.6-0.2-1-0.5-1.4c-0.3-0.4-0.7-0.5-1.2-0.5c-0.5,0-0.9,0.2-1.2,0.5c-0.3,0.4-0.4,0.8-0.4,1.4v1.2c0,0.6,0.1,1,0.4,1.4
				s0.7,0.5,1.2,0.5c0.5,0,0.9-0.2,1.2-0.5c0.3-0.4,0.4-0.8,0.4-1.4L229.1,59.5L229.1,59.5z"/>
			<path class="st1" d="M232.5,60.9v2.6h-1.1v-6.8h2.6c0.7,0,1.3,0.2,1.8,0.6c0.4,0.4,0.6,0.9,0.6,1.5c0,0.6-0.2,1.1-0.6,1.5
				c-0.4,0.4-1,0.6-1.8,0.6L232.5,60.9L232.5,60.9z M232.5,60h1.5c0.4,0,0.7-0.1,0.9-0.3c0.2-0.2,0.3-0.5,0.3-0.9
				c0-0.3-0.1-0.6-0.3-0.9c-0.2-0.2-0.5-0.3-0.9-0.3h-1.5V60z"/>
			<path class="st1" d="M241.1,61.8c0-0.3-0.1-0.5-0.3-0.7c-0.2-0.2-0.6-0.3-1.1-0.5c-0.7-0.2-1.3-0.5-1.7-0.8
				c-0.4-0.3-0.6-0.8-0.6-1.3c0-0.5,0.2-1,0.7-1.4c0.4-0.4,1-0.5,1.7-0.5c0.7,0,1.3,0.2,1.8,0.6c0.4,0.4,0.7,0.9,0.6,1.5l0,0H241
				c0-0.4-0.1-0.6-0.4-0.9c-0.2-0.2-0.6-0.3-0.9-0.3c-0.4,0-0.7,0.1-0.9,0.3c-0.2,0.2-0.3,0.4-0.3,0.7c0,0.3,0.1,0.5,0.3,0.6
				c0.2,0.2,0.6,0.3,1.1,0.5c0.7,0.2,1.3,0.5,1.6,0.8c0.4,0.3,0.6,0.8,0.6,1.3c0,0.6-0.2,1-0.7,1.3c-0.4,0.3-1,0.5-1.7,0.5
				c-0.7,0-1.3-0.2-1.8-0.5s-0.8-0.9-0.7-1.6l0,0h1.1c0,0.4,0.1,0.7,0.4,0.9s0.6,0.3,1,0.3c0.4,0,0.7-0.1,0.9-0.3
				C241,62.3,241.1,62.1,241.1,61.8z"/>
		</g>
		<g>
			<path class="st1" d="M61.2,63.2l0.6-2.3L60,59.4l2.4-0.1l0.9-2.2l0.9,2.2l2.4,0.1l-1.9,1.5l0.6,2.3l-2-1.3L61.2,63.2z"/>
		</g>
		<g>
			<path class="st1" d="M101.5,63.2l0.6-2.3l-1.9-1.5l2.4-0.1l0.9-2.2l0.9,2.2l2.4,0.1l-1.9,1.5l0.6,2.3l-2-1.3L101.5,63.2z"/>
		</g>
		<g>
			<path class="st1" d="M152.4,63.2l0.6-2.3l-1.9-1.5l2.4-0.1l0.9-2.2l0.9,2.2l2.4,0.1l-1.9,1.5l0.6,2.3l-2-1.3L152.4,63.2z"/>
		</g>
		<g>
			<path class="st1" d="M200.2,63.2l0.6-2.3l-1.9-1.5l2.4-0.1l0.9-2.2l0.9,2.2l2.4,0.1l-1.9,1.5l0.6,2.3l-2-1.3L200.2,63.2z"/>
		</g>
	</g>
</g>
</svg>
