<?xml version="1.0" encoding="utf-8"?>
<!-- Generator: Adobe Illustrator 24.2.1, SVG Export Plug-In . SVG Version: 6.00 Build 0)  -->
<svg version="1.1" id="Layer_1" xmlns="http://www.w3.org/2000/svg" xmlns:xlink="http://www.w3.org/1999/xlink" x="0px" y="0px"
	 viewBox="0 0 254 80" style="enable-background:new 0 0 254 80;" xml:space="preserve">
<style type="text/css">
	.st0{fill:#962462;}
	.st1{fill:#54B150;}
	.st2{fill:#E55B36;}
	.st3{fill:#929497;}
	.st4{fill:#308CAF;}
	.st5{fill:#F2AE4E;}
	.st6{fill:#E1242E;}
</style>
<g>
	<g>
		<path class="st0" d="M26.4,14.8c2.5-0.6,5.6,1.7,4.9,4.5c-0.8,2.6-4.3,3.5-6.5,2.1c-1.4-0.7-2.1-2.5-1.6-4
			C23.6,16,25,15.1,26.4,14.8z"/>
		<path class="st0" d="M27.7,23c1.8-0.1,3.2-1.5,4.4-2.8c2.2,1.6,4.1,3.6,4.9,6.2c0.7,2,0.5,4.2,0,6.3c-0.6,0.4-1.7,1.2-2.2,0.3
			c-0.5-1.7-0.6-3.6-1.2-5.3c-2.8-0.5-5.7,0.1-8.5-0.3c-2.2-0.8-4.2-2-6.5-2.7c0.8-1.7,2.2-3.3,4.1-3.6C24.1,22.2,25.8,23.3,27.7,23
			z"/>
	</g>
	<g>
		<path class="st1" d="M227.6,15.2c1,0,1.9,0,2.9,0c0,5.9,0,11.9,0,17.8c2-3,4.2-5.9,6.3-8.9c1.2,0,2.4,0,3.6,0
			c-1.9,2.4-3.8,4.7-5.7,7.1c-0.2,0.3-0.7,0.7-0.4,1.1c2.3,3.6,4.6,7.3,6.9,10.9c-1.2,0-2.4,0-3.6,0c-1.8-3.1-3.7-6.1-5.6-9.1
			c-0.5,0.7-1.1,1.3-1.5,2.1c-0.1,2.3,0,4.7,0,7c-1,0-1.9,0-2.9,0C227.6,33.8,227.6,24.5,227.6,15.2z"/>
		<g>
			<path class="st1" d="M203.2,23.8c2.6-0.6,5.5,0.2,7.2,2.3c1.7,2,2.3,4.8,2.4,7.4c0,2.7-0.7,5.6-2.6,7.7c-2.2,2.4-6,3.2-8.9,1.6
				c-2.6-1.3-3.9-4.2-4.3-6.9c-0.4-3,0-6.2,1.6-8.8C199.6,25.5,201.3,24.3,203.2,23.8z M203.7,26.4c-1.7,0.4-2.8,2-3.3,3.6
				c-0.9,2.7-0.8,5.7,0.4,8.3c0.7,1.4,2,2.6,3.6,2.7c1.6,0.2,3.1-0.8,3.9-2.2c1.2-1.9,1.5-4.3,1.3-6.5c-0.2-1.6-0.6-3.3-1.7-4.6
				C206.9,26.5,205.2,26,203.7,26.4z"/>
		</g>
		<path class="st1" d="M221.8,24.1c0.8-0.5,1.7-0.5,2.6-0.5c0,1.1,0,2.2,0,3.3c-1,0-2.2-0.1-3,0.6c-1.6,1.3-2,3.4-2.1,5.3
			c0,3.4,0,6.8,0,10.2c-1,0-1.9,0-2.9,0c0-6.4,0.1-12.7-0.1-19.1c0.9,0,1.7,0,2.6,0c0,1.3,0.1,2.6,0.1,3.9
			C219.6,26.5,220.3,24.9,221.8,24.1z"/>
		<path class="st1" d="M243.5,26.1c1-1.7,3.1-2.6,5-2.5c1.3,0,2.6,0.5,3.8,1.1c-0.3,0.8-0.5,1.7-0.8,2.5c-1.4-0.8-3.2-1.4-4.7-0.7
			c-1.5,0.7-1.8,3.1-0.5,4.2c1.4,1.2,3.3,1.5,4.7,2.8c2.8,2.3,2.4,7.6-1,9.3c-2.5,1.2-5.5,0.8-7.8-0.5c0.2-0.9,0.5-1.8,0.8-2.7
			c1.5,1,3.4,1.7,5.2,1.2c1.3-0.3,2.1-1.7,1.9-3c0-1.4-1.2-2.3-2.3-2.8c-1.5-0.7-3.1-1.5-4.1-2.9C242.3,30.4,242.4,27.9,243.5,26.1z
			"/>
		<path class="st1" d="M171.8,24.1c1,0,2,0,3,0c1.2,5.3,2.5,10.6,3.4,15.9c1.2-5.4,2.7-10.6,4.2-15.9c0.8,0,1.7,0,2.5,0
			c1.3,5.3,2.9,10.5,4,15.9c0.9-5.4,2.4-10.6,3.6-15.9c1,0,1.9,0,2.9,0c-1.8,6.3-3.4,12.7-5.3,19.1c-0.9,0-1.8,0-2.7,0
			c-1.3-5.2-3-10.2-3.9-15.5c-1,5.3-2.7,10.3-4.1,15.5c-0.9,0-1.8,0-2.7,0c-0.7-2.9-1.4-5.7-2.2-8.6
			C173.5,31.1,172.8,27.5,171.8,24.1z"/>
		<path class="st1" d="M47.5,25.6c2.1-0.4,4.4,0.9,5,3c0.3,1.9-1.4,3.7-3.2,4.1c-2.1,0.5-4.8-0.7-5.1-3
			C43.8,27.6,45.6,25.9,47.5,25.6z"/>
		<path class="st1" d="M38.1,25.7c1.9-0.3,3.8,0.2,5.4,1.1c-0.6,1.4-0.8,3.1,0.1,4.4c1.1,1.8,3.3,2.4,5.3,2.5
			c-0.6,3.4-2.7,6.5-5.6,8.2c-1.5,0.8-3,1.5-4.7,1.7c-0.9,0.2-1.6-1.2-0.8-1.7c1.5-1.2,3.1-2.2,4.6-3.4c-1.1-2.3-3-4.2-4-6.6
			C38.2,29.9,38.3,27.8,38.1,25.7z"/>
	</g>
	<g>
		<path d="M77.7,17.9c1.4,0,2.8,0,4.2,0c0,1.5,0,2.9,0,4.4c-1.4,0-2.8,0-4.2,0C77.7,20.8,77.6,19.4,77.7,17.9z"/>
		<path d="M101.3,19.6c1.2-0.1,2.3-0.2,3.5-0.3c0,1.7,0,3.4,0,5.2c1.3,0,2.5,0,3.8,0c0,1.1,0,2.2,0,3.3c-1.2,0-2.5,0-3.7,0
			c0,3.1,0,6.2,0,9.2c0,0.9,0.1,2,1,2.6c1,0.4,2,0.3,3.1,0.3c0,1.1,0,2.2,0,3.3c-2.1,0.5-4.6,0.8-6.5-0.7c-1.4-1.1-1.7-2.9-1.7-4.6
			c0-3.4,0-6.7,0-10.1c-0.8,0-1.5,0-2.3,0c0-1.1,0-2.2,0-3.3c0.9,0,1.7,0,2.6,0C101.1,22.8,101.2,21.2,101.3,19.6z"/>
		<path d="M90.8,28.8c0.7-2.5,2.8-5.2,5.7-4.9c0,1.5,0,3,0,4.5c-1.3,0.1-2.8,0.3-3.7,1.3c-1.1,1.5-1.6,3.4-1.6,5.2
			c0,2.7,0,5.4,0,8.2c-1.4,0-2.8,0-4.2,0c0-6.2,0-12.4,0-18.7c1.3,0,2.5,0,3.8,0C90.8,25.9,90.8,27.4,90.8,28.8z"/>
		<g>
			<path d="M134.1,26.8c1.3-1.6,3.3-2.4,5.3-2.6c2.2-0.2,4.7,0.2,6.4,1.8c2.4,2.1,3.1,5.4,3.1,8.4c-4.3,0-8.6,0-12.8,0
				c0,1.5,0.1,3.1,1.1,4.4c1.3,1.7,3.8,1.9,5.6,1c1-0.5,1.6-1.5,2-2.5c1.3,0.2,2.6,0.3,3.8,0.5c-0.8,2.6-2.9,4.7-5.6,5.4
				c-2.1,0.5-4.5,0.5-6.5-0.4c-2.3-1.1-4-3.3-4.5-5.8C131.2,33.5,131.7,29.5,134.1,26.8z M137.8,27.9c-1.2,0.9-1.6,2.4-1.8,3.7
				c2.8,0,5.7,0,8.5,0c-0.1-1.1-0.4-2.3-1.2-3.2C142,26.8,139.4,26.6,137.8,27.9z"/>
		</g>
		<path d="M58.6,24.4c1.5,0,2.9,0,4.4,0c1.5,4.2,2.8,8.5,4.4,12.6c1.4-4.2,2.8-8.4,4.2-12.6c1.1,0,2.2,0,3.3,0
			c-2.1,6.2-4.3,12.4-6.3,18.7c-1.2,0-2.4,0-3.5,0C63,36.9,60.7,30.7,58.6,24.4z"/>
		<path d="M77.7,24.4c1.4,0,2.8,0,4.2,0c0,6.2,0,12.4,0,18.7c-1.4,0-2.8,0-4.2,0C77.7,36.9,77.7,30.7,77.7,24.4z"/>
		<path d="M112.4,24.4c1.4,0,2.9,0,4.3,0c0,4,0,8,0,12c0,1,0.1,2.2,0.9,2.9c1.1,0.9,2.6,0.7,3.7-0.1c1.7-0.9,2.1-3.1,2.2-4.9
			c0-3.3,0-6.6,0-9.9c1.4,0,2.8,0,4.2,0c0,6.2,0,12.4,0,18.7c-1.3,0-2.6,0-3.9,0c0-1.3,0-2.7,0-4c-0.6,1.6-1.6,3.2-3.2,3.9
			c-2.2,1-5.1,0.8-6.8-1.1c-1.2-1.2-1.5-3-1.5-4.6C112.4,33,112.4,28.7,112.4,24.4z"/>
	</g>
	<g>
		<path class="st2" d="M10.3,26.3c5-1.8,11-1,14.9,2.7c0.6,0.7-0.1,1.8-1,1.6c-1.8-0.4-3.5-1.2-5.3-1.6c-0.7-0.2-1.2,0.4-1.5,1
			c-1,1.6-2,3.1-3.1,4.7c-0.5,0.9-1.6,1.2-2.5,1.6c-1.5,0.6-2.7,1.6-3.9,2.5c-1-1.2-2-2.8-1.6-4.5c0.3-0.4,0.9-0.5,1.4-0.7
			c1.8-0.5,3.3-2.1,3.5-4C11.3,28.3,10.8,27.3,10.3,26.3z"/>
		<path class="st2" d="M4.1,25.8c2-0.8,4.7-0.2,5.7,1.8c0.9,1.7-0.1,3.9-1.8,4.6C6.3,33,4,32.9,2.8,31.4c-0.7-0.8-1.4-1.8-1.1-3
			C2.2,27.3,3,26.3,4.1,25.8z"/>
	</g>
	<path class="st3" d="M158.9,29.6c2.6-0.8,5.5,1.2,5.7,3.8c0.4,2.6-2,5.2-4.6,5c-2.6,0-4.8-2.7-4.3-5.3
		C155.9,31.5,157.2,30.1,158.9,29.6z"/>
	<g>
		<path class="st4" d="M24.9,32.8c3.4-1.1,7.2,0.4,9,3.4c1.4,2.2,1.6,5.1,0.5,7.5c-1.2,2.5-3.7,4.4-6.4,4.6c-3.8,0.5-7.7-2.2-8.5-6
			C18.3,38.4,20.9,33.8,24.9,32.8z"/>
		<path class="st4" d="M42.4,43.6c1.2-0.6,2.3-1.4,3.4-2.3c1.2,1.2,1.9,3,1.7,4.7c-1.8,0.5-3.9,1.2-4.6,3.2
			c-0.8,1.5-0.2,3.1,0.6,4.5c-3.7,1.3-8,1.3-11.6-0.5c-1.2-0.6-2.4-1.3-3.4-2.3c-0.5-0.6,0-1.7,0.9-1.6c1.9,0.3,3.6,1.3,5.5,1.6
			c0.7,0.1,1.1-0.5,1.5-1c1-1.6,2-3.2,3.1-4.7C40.2,44.3,41.4,44.2,42.4,43.6z"/>
		<path class="st4" d="M46.3,47.5c1.5-0.5,3.4-0.3,4.5,1c0.8,0.9,1.7,2.3,0.9,3.5c-0.7,1.7-2.6,2.6-4.4,2.4
			c-1.8-0.1-3.6-1.5-3.7-3.4C43.5,49.5,44.8,48,46.3,47.5z"/>
	</g>
	<g>
		<path class="st5" d="M10,38.3c1.6-1,3.4-1.8,5.3-2c0.8-0.1,1.4,1.1,0.7,1.6c-1.4,1.2-3.1,2.2-4.5,3.5c0,0.1,0,0.3,0,0.4
			c0.7,1.2,1.6,2.3,2.3,3.5c0.6,1.1,1.7,2.1,1.7,3.5c0,1.8,0.1,3.6,0.2,5.5c-1.9,0.3-3.8-0.3-5.4-1.2c0.5-1.4,0.7-3.2-0.2-4.5
			c-1.1-1.7-3.3-2.4-5.2-2.3C5.3,43,7.2,40.1,10,38.3z"/>
		<path class="st5" d="M4.3,47.4c2.2-0.6,5,0.7,5.2,3.2c0.3,2.1-1.7,3.8-3.6,3.9c-2.1,0.3-4.3-1.2-4.8-3.3
			C1.1,49.4,2.6,47.8,4.3,47.4z"/>
	</g>
	<g>
		<path class="st6" d="M16.7,47.4c0.4-0.7,1.6-1.2,2.2-0.5c0.6,1.7,0.5,3.6,1.2,5.2c0.2,0.4,0.8,0.3,1.2,0.4c2.2,0,4.5-0.1,6.7,0
			c1.1,0.1,2.1,0.7,3.1,1.1c1.4,0.6,2.7,1.3,4.1,1.7c-0.8,1.7-2.2,3-4,3.7c-1.3-1-2.7-2-4.3-2c-2.1-0.2-3.9,1.2-5.2,2.8
			c-2.1-1.5-3.9-3.5-4.8-5.9C16.1,51.8,16.1,49.5,16.7,47.4z"/>
		<path class="st6" d="M24.9,58.2c2.2-0.9,5.4,0.2,5.8,2.8c0.5,2.8-2.9,5-5.3,4c-1.5-0.4-2.9-1.8-2.9-3.4
			C22.4,60.1,23.5,58.8,24.9,58.2z"/>
	</g>
	<g>
		<path class="st3" d="M64.2,50.9v8.4h-1.7v-8.4H64.2z"/>
		<path class="st3" d="M71.6,50.9v1.4h-2.2v7h-1.7v-7h-2.2v-1.4H71.6z"/>
		<path class="st3" d="M77,59.1c-0.5-0.2-0.8-0.5-1.1-0.9c-0.3-0.4-0.4-0.8-0.4-1.3h1.8c0,0.3,0.1,0.6,0.4,0.8
			c0.2,0.2,0.5,0.3,0.9,0.3c0.4,0,0.7-0.1,0.9-0.3c0.2-0.2,0.3-0.4,0.3-0.7c0-0.2-0.1-0.5-0.2-0.6c-0.2-0.2-0.3-0.3-0.6-0.4
			c-0.2-0.1-0.5-0.2-0.9-0.3c-0.5-0.2-1-0.3-1.3-0.5c-0.3-0.2-0.6-0.4-0.9-0.7c-0.2-0.3-0.4-0.7-0.4-1.3c0-0.5,0.1-0.9,0.4-1.3
			c0.2-0.4,0.6-0.7,1-0.8c0.4-0.2,1-0.3,1.5-0.3c0.9,0,1.6,0.2,2.1,0.6c0.5,0.4,0.8,1,0.9,1.8h-1.9c0-0.3-0.1-0.5-0.4-0.7
			c-0.2-0.2-0.5-0.3-0.9-0.3c-0.3,0-0.6,0.1-0.8,0.3c-0.2,0.2-0.3,0.4-0.3,0.7c0,0.2,0.1,0.4,0.2,0.6c0.1,0.1,0.3,0.3,0.6,0.4
			c0.2,0.1,0.5,0.2,0.9,0.3c0.5,0.2,1,0.3,1.3,0.5c0.3,0.2,0.6,0.4,0.9,0.7c0.2,0.3,0.4,0.7,0.4,1.3c0,0.4-0.1,0.9-0.4,1.3
			c-0.2,0.4-0.6,0.7-1,0.9c-0.4,0.2-1,0.3-1.6,0.3C78,59.4,77.5,59.3,77,59.1z"/>
		<path class="st3" d="M84.8,58.8c-0.7-0.4-1.2-0.9-1.6-1.5c-0.4-0.7-0.6-1.4-0.6-2.2c0-0.8,0.2-1.6,0.6-2.2
			c0.4-0.7,0.9-1.2,1.6-1.5c0.7-0.4,1.4-0.6,2.2-0.6c0.8,0,1.5,0.2,2.2,0.6c0.7,0.4,1.2,0.9,1.6,1.5c0.4,0.7,0.6,1.4,0.6,2.2
			c0,0.8-0.2,1.6-0.6,2.2c-0.4,0.7-0.9,1.2-1.6,1.5c-0.7,0.4-1.4,0.6-2.2,0.6S85.4,59.2,84.8,58.8z M88.3,57.5
			c0.4-0.2,0.7-0.6,0.9-1c0.2-0.4,0.3-0.9,0.3-1.5c0-0.6-0.1-1.1-0.3-1.5c-0.2-0.4-0.5-0.7-0.9-1s-0.8-0.3-1.3-0.3
			c-0.5,0-1,0.1-1.3,0.3c-0.4,0.2-0.7,0.5-0.9,1c-0.2,0.4-0.3,0.9-0.3,1.5c0,0.6,0.1,1.1,0.3,1.5c0.2,0.4,0.5,0.8,0.9,1
			c0.4,0.2,0.8,0.3,1.3,0.3C87.5,57.9,87.9,57.8,88.3,57.5z"/>
		<path class="st3" d="M94.2,58H97v1.3h-4.5v-8.4h1.7L94.2,58L94.2,58z"/>
		<path class="st3" d="M99.7,50.9v5.2c0,0.6,0.1,1,0.4,1.3c0.3,0.3,0.7,0.5,1.3,0.5c0.5,0,1-0.2,1.3-0.5c0.3-0.3,0.4-0.7,0.4-1.3
			v-5.2h1.7v5.2c0,0.7-0.2,1.3-0.5,1.8c-0.3,0.5-0.7,0.9-1.2,1.1c-0.5,0.2-1.1,0.4-1.7,0.4c-0.6,0-1.2-0.1-1.7-0.4
			c-0.5-0.2-0.9-0.6-1.2-1.1c-0.3-0.5-0.4-1.1-0.4-1.8v-5.2L99.7,50.9L99.7,50.9z"/>
		<path class="st3" d="M112.1,50.9v1.4h-2.2v7h-1.7v-7H106v-1.4H112.1z"/>
		<path class="st3" d="M115.1,50.9v8.4h-1.7v-8.4H115.1z"/>
		<path class="st3" d="M118.5,58.8c-0.7-0.4-1.2-0.9-1.6-1.5c-0.4-0.7-0.6-1.4-0.6-2.2c0-0.8,0.2-1.6,0.6-2.2
			c0.4-0.7,0.9-1.2,1.6-1.5c0.7-0.4,1.4-0.6,2.2-0.6c0.8,0,1.5,0.2,2.2,0.6s1.2,0.9,1.6,1.5c0.4,0.7,0.6,1.4,0.6,2.2
			c0,0.8-0.2,1.6-0.6,2.2c-0.4,0.7-0.9,1.2-1.6,1.5c-0.7,0.4-1.4,0.6-2.2,0.6C119.8,59.4,119.1,59.2,118.5,58.8z M122,57.5
			c0.4-0.2,0.7-0.6,0.9-1c0.2-0.4,0.3-0.9,0.3-1.5c0-0.6-0.1-1.1-0.3-1.5c-0.2-0.4-0.5-0.7-0.9-1c-0.4-0.2-0.8-0.3-1.3-0.3
			c-0.5,0-1,0.1-1.3,0.3c-0.4,0.2-0.7,0.5-0.9,1c-0.2,0.4-0.3,0.9-0.3,1.5c0,0.6,0.1,1.1,0.3,1.5c0.2,0.4,0.5,0.8,0.9,1
			c0.4,0.2,0.8,0.3,1.3,0.3C121.1,57.9,121.6,57.8,122,57.5z"/>
		<path class="st3" d="M133.4,59.3h-1.7l-3.8-5.8v5.8h-1.7v-8.4h1.7l3.8,5.8v-5.8h1.7V59.3z"/>
		<path class="st3" d="M136.3,59.1c-0.5-0.2-0.8-0.5-1.1-0.9c-0.3-0.4-0.4-0.8-0.4-1.3h1.8c0,0.3,0.1,0.6,0.4,0.8
			c0.2,0.2,0.5,0.3,0.9,0.3c0.4,0,0.7-0.1,0.9-0.3s0.3-0.4,0.3-0.7c0-0.2-0.1-0.5-0.2-0.6c-0.2-0.2-0.3-0.3-0.6-0.4
			c-0.2-0.1-0.5-0.2-0.9-0.3c-0.5-0.2-1-0.3-1.3-0.5c-0.3-0.2-0.6-0.4-0.9-0.7c-0.2-0.3-0.4-0.7-0.4-1.3c0-0.5,0.1-0.9,0.4-1.3
			c0.2-0.4,0.6-0.7,1-0.8c0.4-0.2,1-0.3,1.5-0.3c0.9,0,1.6,0.2,2.1,0.6c0.5,0.4,0.8,1,0.9,1.8h-1.9c0-0.3-0.1-0.5-0.4-0.7
			c-0.2-0.2-0.5-0.3-0.9-0.3c-0.3,0-0.6,0.1-0.8,0.3c-0.2,0.2-0.3,0.4-0.3,0.7c0,0.2,0.1,0.4,0.2,0.6c0.1,0.1,0.3,0.3,0.6,0.4
			c0.2,0.1,0.5,0.2,0.9,0.3c0.5,0.2,1,0.3,1.3,0.5c0.3,0.2,0.6,0.4,0.9,0.7s0.4,0.7,0.4,1.3c0,0.4-0.1,0.9-0.4,1.3
			c-0.2,0.4-0.6,0.7-1,0.9c-0.4,0.2-1,0.3-1.6,0.3C137.3,59.4,136.8,59.3,136.3,59.1z"/>
		<path class="st3" d="M150.4,50.9v1.4h-3.5v2.2h2.7v1.3h-2.7v3.6h-1.7v-8.4H150.4z"/>
		<path class="st3" d="M153.3,58.8c-0.7-0.4-1.2-0.9-1.6-1.5c-0.4-0.7-0.6-1.4-0.6-2.2c0-0.8,0.2-1.6,0.6-2.2
			c0.4-0.7,0.9-1.2,1.6-1.5c0.7-0.4,1.4-0.6,2.2-0.6c0.8,0,1.5,0.2,2.2,0.6s1.2,0.9,1.6,1.5c0.4,0.7,0.6,1.4,0.6,2.2
			c0,0.8-0.2,1.6-0.6,2.2c-0.4,0.7-0.9,1.2-1.6,1.5c-0.7,0.4-1.4,0.6-2.2,0.6C154.7,59.4,154,59.2,153.3,58.8z M156.8,57.5
			c0.4-0.2,0.7-0.6,0.9-1c0.2-0.4,0.3-0.9,0.3-1.5c0-0.6-0.1-1.1-0.3-1.5c-0.2-0.4-0.5-0.7-0.9-1s-0.8-0.3-1.3-0.3
			c-0.5,0-1,0.1-1.3,0.3c-0.4,0.2-0.7,0.5-0.9,1c-0.2,0.4-0.3,0.9-0.3,1.5c0,0.6,0.1,1.1,0.3,1.5c0.2,0.4,0.5,0.8,0.9,1
			c0.4,0.2,0.8,0.3,1.3,0.3S156.5,57.8,156.8,57.5z"/>
		<path class="st3" d="M165.4,59.3l-1.9-3.3h-0.8v3.3h-1.7v-8.4h3.2c0.7,0,1.2,0.1,1.7,0.3c0.5,0.2,0.8,0.5,1,0.9
			c0.2,0.4,0.3,0.8,0.3,1.3c0,0.6-0.2,1.1-0.5,1.5c-0.3,0.4-0.8,0.8-1.4,0.9l2,3.4L165.4,59.3L165.4,59.3z M162.7,54.8h1.4
			c0.5,0,0.8-0.1,1-0.3c0.2-0.2,0.3-0.5,0.3-0.9c0-0.4-0.1-0.7-0.3-0.9c-0.2-0.2-0.6-0.3-1-0.3h-1.4V54.8z"/>
		<path class="st3" d="M178.8,59.3h-1.7l-3.8-5.8v5.8h-1.7v-8.4h1.7l3.8,5.8v-5.8h1.7V59.3z"/>
		<path class="st3" d="M182.2,58.8c-0.7-0.4-1.2-0.9-1.6-1.5c-0.4-0.7-0.6-1.4-0.6-2.2c0-0.8,0.2-1.6,0.6-2.2
			c0.4-0.7,0.9-1.2,1.6-1.5c0.7-0.4,1.4-0.6,2.2-0.6c0.8,0,1.5,0.2,2.2,0.6s1.2,0.9,1.6,1.5c0.4,0.7,0.6,1.4,0.6,2.2
			c0,0.8-0.2,1.6-0.6,2.2c-0.4,0.7-0.9,1.2-1.6,1.5c-0.7,0.4-1.4,0.6-2.2,0.6C183.6,59.4,182.9,59.2,182.2,58.8z M185.7,57.5
			c0.4-0.2,0.7-0.6,0.9-1c0.2-0.4,0.3-0.9,0.3-1.5c0-0.6-0.1-1.1-0.3-1.5c-0.2-0.4-0.5-0.7-0.9-1s-0.8-0.3-1.3-0.3
			c-0.5,0-1,0.1-1.3,0.3c-0.4,0.2-0.7,0.5-0.9,1c-0.2,0.4-0.3,0.9-0.3,1.5c0,0.6,0.1,1.1,0.3,1.5c0.2,0.4,0.5,0.8,0.9,1
			c0.4,0.2,0.8,0.3,1.3,0.3C184.9,57.9,185.3,57.8,185.7,57.5z"/>
		<path class="st3" d="M197.1,59.3h-1.7l-3.8-5.8v5.8h-1.7v-8.4h1.7l3.8,5.8v-5.8h1.7V59.3z"/>
		<path class="st3" d="M203.9,54.3v1.4h-5.1v-1.4H203.9z"/>
		<path class="st3" d="M211.6,54.8c-0.2,0.4-0.5,0.7-1,1c-0.5,0.2-1,0.4-1.7,0.4h-1.4v3.2h-1.7v-8.4h3.1c0.7,0,1.2,0.1,1.7,0.3
			s0.8,0.5,1,0.9c0.2,0.4,0.3,0.8,0.3,1.3C211.9,53.9,211.8,54.4,211.6,54.8z M209.9,54.4c0.2-0.2,0.3-0.5,0.3-0.9
			c0-0.8-0.5-1.2-1.4-1.2h-1.3v2.4h1.3C209.3,54.7,209.6,54.6,209.9,54.4z"/>
		<path class="st3" d="M217.5,59.3l-1.9-3.3h-0.8v3.3h-1.7v-8.4h3.2c0.7,0,1.2,0.1,1.7,0.3c0.5,0.2,0.8,0.5,1,0.9
			c0.2,0.4,0.3,0.8,0.3,1.3c0,0.6-0.2,1.1-0.5,1.5c-0.3,0.4-0.8,0.8-1.4,0.9l2,3.4L217.5,59.3L217.5,59.3z M214.8,54.8h1.4
			c0.5,0,0.8-0.1,1-0.3s0.3-0.5,0.3-0.9c0-0.4-0.1-0.7-0.3-0.9c-0.2-0.2-0.6-0.3-1-0.3h-1.4V54.8z"/>
		<path class="st3" d="M222.6,58.8c-0.7-0.4-1.2-0.9-1.6-1.5c-0.4-0.7-0.6-1.4-0.6-2.2c0-0.8,0.2-1.6,0.6-2.2
			c0.4-0.7,0.9-1.2,1.6-1.5c0.7-0.4,1.4-0.6,2.2-0.6c0.8,0,1.5,0.2,2.2,0.6s1.2,0.9,1.6,1.5c0.4,0.7,0.6,1.4,0.6,2.2
			c0,0.8-0.2,1.6-0.6,2.2c-0.4,0.7-0.9,1.2-1.6,1.5c-0.7,0.4-1.4,0.6-2.2,0.6C224,59.4,223.2,59.2,222.6,58.8z M226.1,57.5
			c0.4-0.2,0.7-0.6,0.9-1c0.2-0.4,0.3-0.9,0.3-1.5c0-0.6-0.1-1.1-0.3-1.5c-0.2-0.4-0.5-0.7-0.9-1s-0.8-0.3-1.3-0.3
			c-0.5,0-1,0.1-1.3,0.3c-0.4,0.2-0.7,0.5-0.9,1c-0.2,0.4-0.3,0.9-0.3,1.5c0,0.6,0.1,1.1,0.3,1.5c0.2,0.4,0.5,0.8,0.9,1
			c0.4,0.2,0.8,0.3,1.3,0.3C225.3,57.9,225.7,57.8,226.1,57.5z"/>
		<path class="st3" d="M235.5,50.9v1.4H232v2.2h2.7v1.3H232v3.6h-1.7v-8.4H235.5z"/>
		<path class="st3" d="M238.4,50.9v8.4h-1.7v-8.4H238.4z"/>
		<path class="st3" d="M245.8,50.9v1.4h-2.2v7h-1.7v-7h-2.2v-1.4H245.8z"/>
		<path class="st3" d="M248.3,59.1c-0.5-0.2-0.8-0.5-1.1-0.9c-0.3-0.4-0.4-0.8-0.4-1.3h1.8c0,0.3,0.1,0.6,0.4,0.8
			c0.2,0.2,0.5,0.3,0.9,0.3c0.4,0,0.7-0.1,0.9-0.3c0.2-0.2,0.3-0.4,0.3-0.7c0-0.2-0.1-0.5-0.2-0.6c-0.2-0.2-0.3-0.3-0.6-0.4
			c-0.2-0.1-0.5-0.2-0.9-0.3c-0.5-0.2-1-0.3-1.3-0.5c-0.3-0.2-0.6-0.4-0.9-0.7c-0.2-0.3-0.4-0.7-0.4-1.3c0-0.5,0.1-0.9,0.4-1.3
			c0.2-0.4,0.6-0.7,1-0.8c0.4-0.2,1-0.3,1.5-0.3c0.9,0,1.6,0.2,2.1,0.6c0.5,0.4,0.8,1,0.9,1.8h-1.9c0-0.3-0.1-0.5-0.4-0.7
			c-0.2-0.2-0.5-0.3-0.9-0.3c-0.3,0-0.6,0.1-0.8,0.3c-0.2,0.2-0.3,0.4-0.3,0.7c0,0.2,0.1,0.4,0.2,0.6c0.1,0.1,0.3,0.3,0.6,0.4
			c0.2,0.1,0.5,0.2,0.9,0.3c0.5,0.2,1,0.3,1.3,0.5c0.3,0.2,0.6,0.4,0.9,0.7c0.2,0.3,0.4,0.7,0.4,1.3c0,0.4-0.1,0.9-0.4,1.3
			c-0.2,0.4-0.6,0.7-1,0.9c-0.4,0.2-1,0.3-1.6,0.3C249.3,59.4,248.8,59.3,248.3,59.1z"/>
	</g>
</g>
</svg>
