<svg id="Layer_1" data-name="Layer 1" xmlns="http://www.w3.org/2000/svg" viewBox="0 0 253.17 60.48"><defs><style>.cls-1{fill:#4a696f;}.cls-2{fill:#4548b9;}.cls-3{fill:#6366f1;}.cls-4{fill:#384949;}.cls-5{fill:#d2c5c2;}</style></defs><path class="cls-1" d="M11.88,58.77a7.85,7.85,0,0,1,0-11.08L19.56,40a7.86,7.86,0,0,1,11.09,0h0l6.52-6.52L36.68,33a15.32,15.32,0,0,0-21.6,0L4.87,43.21a15.32,15.32,0,0,0,0,21.6l.49.48,6.52-6.52Z" transform="translate(-0.42 -9.76)"/><path class="cls-2" d="M56.44,15.19,56,14.7l-6.52,6.53h0a7.85,7.85,0,0,1,0,11.08L41.75,40a7.86,7.86,0,0,1-11.09,0h0l-6.52,6.52.49.49a15.32,15.32,0,0,0,21.6,0l10.2-10.21A15.31,15.31,0,0,0,56.44,15.19Z" transform="translate(-0.42 -9.76)"/><path class="cls-3" d="M30.66,28.9l7.68-7.67a7.86,7.86,0,0,1,11.09,0L56,14.7l-.49-.48a15.32,15.32,0,0,0-21.6,0l-10.2,10.2a15.32,15.32,0,0,0,0,21.6l.48.49L30.67,40A7.87,7.87,0,0,1,30.66,28.9Z" transform="translate(-0.42 -9.76)"/><path class="cls-4" d="M37.65,34l-.48-.48L30.64,40h0a7.86,7.86,0,0,1,0,11.09L23,58.77a7.86,7.86,0,0,1-11.09,0h0L5.36,65.3l.48.48a15.33,15.33,0,0,0,21.61,0l10.2-10.2A15.33,15.33,0,0,0,37.65,34Z" transform="translate(-0.42 -9.76)"/><path class="cls-5" d="M38.46,68.53h0a1.81,1.81,0,0,1-2.22-1.28l-.86-3.15a1.82,1.82,0,0,1,1.28-2.22h0a1.81,1.81,0,0,1,2.22,1.27l.86,3.16A1.82,1.82,0,0,1,38.46,68.53Z" transform="translate(-0.42 -9.76)"/><path class="cls-5" d="M51.65,60.92h0a1.84,1.84,0,0,1-2.57-.05l-2.26-2.36A1.81,1.81,0,0,1,46.88,56h0a1.81,1.81,0,0,1,2.56,0l2.26,2.36A1.81,1.81,0,0,1,51.65,60.92Z" transform="translate(-0.42 -9.76)"/><path class="cls-5" d="M59.36,47.76h0A1.81,1.81,0,0,1,57.14,49L54,48.19A1.81,1.81,0,0,1,52.71,46h0a1.81,1.81,0,0,1,2.22-1.28l3.15.85A1.81,1.81,0,0,1,59.36,47.76Z" transform="translate(-0.42 -9.76)"/><path class="cls-5" d="M2.13,32.19h0A1.82,1.82,0,0,0,3.4,34.42l3.15.85A1.81,1.81,0,0,0,8.77,34h0A1.83,1.83,0,0,0,7.5,31.77l-3.15-.85A1.81,1.81,0,0,0,2.13,32.19Z" transform="translate(-0.42 -9.76)"/><path class="cls-5" d="M9.74,19h0a1.81,1.81,0,0,0,0,2.56l2.35,2.26a1.83,1.83,0,0,0,2.57,0h0a1.83,1.83,0,0,0-.06-2.57L12.3,19A1.81,1.81,0,0,0,9.74,19Z" transform="translate(-0.42 -9.76)"/><path class="cls-5" d="M22.89,11.29h0a1.83,1.83,0,0,0-1.28,2.23l.86,3.15a1.81,1.81,0,0,0,2.22,1.27h0A1.82,1.82,0,0,0,26,15.72l-.86-3.15A1.82,1.82,0,0,0,22.89,11.29Z" transform="translate(-0.42 -9.76)"/><path class="cls-4" d="M78.08,49l.46,2.4h.14l.48-2.4,4.27-16.28h7.31L81.92,58.7H75.23L66.41,32.76h7.31Z" transform="translate(-0.42 -9.76)"/><path class="cls-4" d="M100.28,32.76l.29,3.43a8.65,8.65,0,0,1,3.13-2.89,9,9,0,0,1,4.35-1,8,8,0,0,1,4.27,1.1A6.85,6.85,0,0,1,115,36.72a8.89,8.89,0,0,1,3.12-3.26,8.37,8.37,0,0,1,4.5-1.18A7.41,7.41,0,0,1,128.68,35c1.47,1.82,2.21,4.58,2.21,8.31V58.7h-7V43.28c0-2.08-.32-3.52-1-4.34a3.44,3.44,0,0,0-2.86-1.22,4.9,4.9,0,0,0-2.58.66,4.84,4.84,0,0,0-1.73,1.83c0,.31,0,.57,0,.78s0,.44,0,.66V58.7h-7V43.28a7.27,7.27,0,0,0-1-4.3A3.39,3.39,0,0,0,105,37.72a5.4,5.4,0,0,0-2.48.54,4.81,4.81,0,0,0-1.77,1.52V58.7h-7V32.76Z" transform="translate(-0.42 -9.76)"/><path class="cls-4" d="M146,41h.14l4-8.25h7.91l-7.81,12.83,8.08,13.11h-7.89l-4.24-8.61-4.25,8.61H134l8.08-13.11-7.84-12.83h7.86Z" transform="translate(-0.42 -9.76)"/><path class="cls-4" d="M169.1,58.7h-7V52.56h7Z" transform="translate(-0.42 -9.76)"/><path class="cls-4" d="M183,58.7h-7V21.3h7Z" transform="translate(-0.42 -9.76)"/><path class="cls-4" d="M196.1,26.55h-7V21.3h7Zm0,32.15h-7V32.76h7Z" transform="translate(-0.42 -9.76)"/><path class="cls-4" d="M208.25,32.76l.31,3.72a9.62,9.62,0,0,1,3.19-3.1,8.35,8.35,0,0,1,4.24-1.1,7.69,7.69,0,0,1,6.14,2.53q2.2,2.53,2.21,8V58.7h-7V42.83a6.18,6.18,0,0,0-1-3.94,3.57,3.57,0,0,0-2.91-1.17,6.18,6.18,0,0,0-2.75.59,5.31,5.31,0,0,0-2,1.62V58.7h-7V32.76Z" transform="translate(-0.42 -9.76)"/><path class="cls-4" d="M238.34,47.84h-1.78V58.7h-7V21.3h7V42.52h1.56l6.21-9.76h8.1L244,44.58l9.59,14.12h-8.05Z" transform="translate(-0.42 -9.76)"/></svg>