<?xml version="1.0" encoding="utf-8"?>
<!-- Generator: Adobe Illustrator 24.2.1, SVG Export Plug-In . SVG Version: 6.00 Build 0)  -->
<svg version="1.1" id="Layer_1" xmlns="http://www.w3.org/2000/svg" xmlns:xlink="http://www.w3.org/1999/xlink" x="0px" y="0px"
	 viewBox="0 0 512 512" style="enable-background:new 0 0 512 512;" xml:space="preserve">
<style type="text/css">
	.st0{fill-rule:evenodd;clip-rule:evenodd;fill:#FFCEB4;}
</style>
<g>
	<path d="M282.6,67.2l43.8,80.9l92.1,51.4c1.5,0.8,2.6,2.3,3,4c8.5,29.7,0.8,43.1-14,47.3c-19.3,5.6-51-7.5-71.9-16.2l-9.2-3.8
		c-0.1,0-0.2,0-0.3,0c-2.7-0.9-18-5-21.5,12.2l-1,188c0,2-1,3.8-2.7,4.9c-4.5,3.6-51.7,38.5-61-27c0-0.3,0-0.7,0-1l0.4-67.8
		c-1-1.4-4.8-4.5-18.1-2.3l-1,0.1c-3,0.2-24.6,0.5-34.1-17.9c-11.3,2.8-36.6,5.6-50.7-19.8c-13-0.6-53-7.6-48.9-69.7l0-0.2
		c2.2-36.2,16.9-70.6,41.8-97.1l0.3-62.3c0-3.3,2.7-6,6-6c0.2,0,0.3,0,0.5,0l141-1.3C279.4,63.7,281.6,65,282.6,67.2z M316.8,155.3
		l-43.2-79.6l-132,1.3l-0.3,58.8c0,1.5-0.6,3-1.8,4.2c-23.9,24.7-38.1,57.1-40,91.4c-3.7,57.2,35.8,57.2,39.9,57
		c2.6-0.3,5,1.1,6.1,3.4c12.1,25.8,39.4,16.7,42.6,15.5c3-1.4,6.6-0.1,8,2.9c0.1,0.2,0.2,0.5,0.3,0.7l-0.1,0
		c5,15.6,22.3,15.1,24.4,15.1c22.1-3.5,29,6.5,30.8,9.9c0.5,0.9,0.8,2,0.8,3.1l-0.4,68.8c5.8,39.9,31.8,25.7,39.6,20.2l1-185.4
		c0-0.4,0.1-0.8,0.2-1.1c5.8-30.9,32.9-23.5,37.3-22c0.3,0.1,0.5,0.1,0.7,0.2l9.4,3.8c19.5,8.1,48.8,20.3,64,15.9
		c8-2.2,11.6-10.7,6.4-30.6l-91.1-50.9C318.3,157.3,317.4,156.4,316.8,155.3L316.8,155.3z"/>
	<path class="st0" d="M316.8,155.3l-43.2-79.6l-132,1.3l-0.3,58.8c0,1.5-0.6,3-1.8,4.2c-23.9,24.7-38.1,57.1-40,91.4
		c-3.7,57.2,35.8,57.2,39.9,57c2.6-0.3,5,1.1,6.1,3.4c12.1,25.8,39.4,16.7,42.6,15.5c3-1.4,6.6-0.1,8,2.9c0.1,0.2,0.2,0.5,0.3,0.7
		l-0.1,0c5,15.6,22.3,15.1,24.4,15.1c22.1-3.5,29,6.5,30.8,9.9c0.5,0.9,0.8,2,0.8,3.1l-0.4,68.8c5.8,39.9,31.8,25.7,39.6,20.2
		l1-185.4c0-0.4,0.1-0.8,0.2-1.1c5.8-30.9,32.9-23.5,37.3-22c0.3,0.1,0.5,0.1,0.7,0.2l9.4,3.8c19.5,8.1,48.8,20.3,64,15.9
		c8-2.2,11.6-10.7,6.4-30.6l-91.1-50.9C318.3,157.3,317.4,156.4,316.8,155.3z"/>
</g>
</svg>
